<svg width="24" height="24" viewBox="0 0 24 24" fill="none" xmlns="http://www.w3.org/2000/svg">
<path d="M16.7723 3.48429C15.6983 2.41035 13.9571 2.41035 12.8832 3.48429L12.1761 4.1914C11.8832 4.48429 11.8832 4.95916 12.1761 5.25206L13.06 6.13594L11.1956 8.0003C9.06023 7.57739 6.7599 8.19336 5.10505 9.84821C4.81215 10.1411 4.81215 10.616 5.10505 10.9089L8.81736 14.6212L5.10505 18.3335C4.81215 18.6264 4.81215 19.1013 5.10505 19.3942C5.39794 19.687 5.87281 19.687 6.16571 19.3942L9.87802 15.6818L13.5903 19.3942C13.8832 19.687 14.3581 19.687 14.651 19.3942C14.8302 19.2149 14.9973 19.0281 15.1522 18.8347L6.73363 10.4161C8.16396 9.34379 10.017 9.09679 11.6421 9.67513L14.6509 6.66627C14.9438 6.37338 14.9438 5.8985 14.6509 5.60561L13.7671 4.72173L13.9438 4.54495C14.432 4.05679 15.2235 4.05679 15.7116 4.54495L19.9542 8.78759C20.4424 9.27575 20.4424 10.0672 19.9542 10.5554L19.7775 10.7321L18.8936 9.84825C18.6007 9.55536 18.1258 9.55536 17.8329 9.84825L14.8241 12.8571C15.2293 13.9959 15.2293 15.2466 14.8241 16.3853L15.9704 17.5316C16.6031 16.2072 16.7792 14.7191 16.4989 13.3036L18.3633 11.4392L19.2471 12.3231C19.54 12.616 20.0149 12.616 20.3078 12.3231L21.0149 11.616C22.0889 10.5421 22.0889 8.80087 21.0149 7.72693L16.7723 3.48429Z" fill="#38405B"/>
</svg>
