<svg width="178" height="120" viewBox="0 0 178 120" fill="none" xmlns="http://www.w3.org/2000/svg">
    <g clip-path="url(#clip0_1800_61158)">
        <rect width="178" height="120" rx="16" fill="#B23C00"/>
        <g clip-path="url(#clip1_1800_61158)">
            <path d="M175.113 2.8873C192.296 20.0704 192.296 47.9296 175.113 65.1127C157.93 82.2958 130.07 82.2958 112.887 65.1127C95.7042 47.9296 95.7042 20.0704 112.887 2.8873C130.07 -14.2958 157.93 -14.2958 175.113 2.8873Z" fill="url(#paint0_radial_1800_61158)"/>
            <path fill-rule="evenodd" clip-rule="evenodd" d="M144.217 32.2192L117.308 9.48096L115.371 11.7724L142.531 34.7223C143.291 35.3649 144.361 35.495 145.253 35.0536L166.11 24.7365L164.78 22.0475L144.217 32.2192Z" fill="url(#paint1_linear_1800_61158)"/>
        </g>
        <rect width="178" height="120" fill="url(#paint2_linear_1800_61158)"/>
    </g>
    <defs>
        <radialGradient id="paint0_radial_1800_61158" cx="0" cy="0" r="1" gradientUnits="userSpaceOnUse" gradientTransform="translate(120.999 57.0005) rotate(-35.2476) scale(91.8368 192.541)">
            <stop stop-color="#FC660C"/>
            <stop offset="0.339183" stop-color="#F48347" stop-opacity="0.75"/>
            <stop offset="1" stop-color="#DAD9F7" stop-opacity="0"/>
        </radialGradient>
        <linearGradient id="paint1_linear_1800_61158" x1="104.873" y1="38.6625" x2="205.546" y2="67.2834" gradientUnits="userSpaceOnUse">
            <stop stop-color="#FCF0E8"/>
            <stop offset="1" stop-color="#FF9844"/>
        </linearGradient>
        <linearGradient id="paint2_linear_1800_61158" x1="2.08054e-07" y1="40.1111" x2="178" y2="40.1111" gradientUnits="userSpaceOnUse">
            <stop stop-color="#FC660C"/>
            <stop offset="1" stop-color="#FC660C" stop-opacity="0"/>
        </linearGradient>
        <clipPath id="clip0_1800_61158">
            <rect width="178" height="120" rx="16" fill="white"/>
        </clipPath>
        <clipPath id="clip1_1800_61158">
            <rect width="88" height="88" fill="white" transform="translate(100 -10)"/>
        </clipPath>
    </defs>
</svg>
