<svg width="172" height="160" viewBox="0 0 172 160" fill="none" xmlns="http://www.w3.org/2000/svg">
    <g clip-path="url(#clip0_1800_61312)">
        <rect width="172" height="160" rx="16" fill="#FF9844"/>
        <g clip-path="url(#clip1_1800_61312)">
            <path d="M169.113 2.8873C186.296 20.0704 186.296 47.9296 169.113 65.1127C151.93 82.2958 124.07 82.2958 106.887 65.1127C89.7042 47.9296 89.7042 20.0704 106.887 2.8873C124.07 -14.2958 151.93 -14.2958 169.113 2.8873Z" fill="url(#paint0_radial_1800_61312)"/>
            <path fill-rule="evenodd" clip-rule="evenodd" d="M138.217 32.2192L111.308 9.48096L109.371 11.7724L136.531 34.7223C137.291 35.3649 138.36 35.495 139.253 35.0536L160.11 24.7365L158.78 22.0475L138.217 32.2192Z" fill="url(#paint1_linear_1800_61312)"/>
        </g>
        <rect width="172" height="160" fill="url(#paint2_linear_1800_61312)"/>
    </g>
    <defs>
        <radialGradient id="paint0_radial_1800_61312" cx="0" cy="0" r="1" gradientUnits="userSpaceOnUse" gradientTransform="translate(114.999 57.0005) rotate(-35.2476) scale(91.8368 192.541)">
            <stop stop-color="#FC660C"/>
            <stop offset="0.339183" stop-color="#F48347" stop-opacity="0.75"/>
            <stop offset="1" stop-color="#DAD9F7" stop-opacity="0"/>
        </radialGradient>
        <linearGradient id="paint1_linear_1800_61312" x1="98.8732" y1="38.6625" x2="199.546" y2="67.2834" gradientUnits="userSpaceOnUse">
            <stop stop-color="#FCF0E8"/>
            <stop offset="1" stop-color="#FF9844"/>
        </linearGradient>
        <linearGradient id="paint2_linear_1800_61312" x1="2.01041e-07" y1="53.4815" x2="172" y2="53.4815" gradientUnits="userSpaceOnUse">
            <stop stop-color="#FC660C"/>
            <stop offset="1" stop-color="#FC660C" stop-opacity="0"/>
        </linearGradient>
        <clipPath id="clip0_1800_61312">
            <rect width="172" height="160" rx="16" fill="white"/>
        </clipPath>
        <clipPath id="clip1_1800_61312">
            <rect width="88" height="88" fill="white" transform="translate(94 -10)"/>
        </clipPath>
    </defs>
</svg>
