<svg width="310" height="376" viewBox="0 0 310 376" fill="none" xmlns="http://www.w3.org/2000/svg">
    <rect x="0.5" y="0.5" width="91" height="31" rx="7.5" fill="white"/>
    <path d="M14.3815 11.6H15.6775V18.812H19.9255V20H14.3815V11.6ZM21.4016 14.048H22.6496V20H21.4016V14.048ZM21.3296 11.72H22.7336V13.1H21.3296V11.72ZM26.5581 20.168C25.8941 20.168 25.3421 20.004 24.9021 19.676C24.4701 19.348 24.1461 18.924 23.9301 18.404L24.9381 17.78C25.0741 18.196 25.2821 18.524 25.5621 18.764C25.8421 19.004 26.1821 19.124 26.5821 19.124C26.9021 19.124 27.1661 19.048 27.3741 18.896C27.5901 18.736 27.6981 18.528 27.6981 18.272C27.6981 18.032 27.5861 17.844 27.3621 17.708C27.1461 17.564 26.7941 17.448 26.3061 17.36C25.6901 17.24 25.1941 17.032 24.8181 16.736C24.4501 16.44 24.2661 16.04 24.2661 15.536C24.2661 15.024 24.4701 14.62 24.8781 14.324C25.2941 14.028 25.8021 13.88 26.4021 13.88C27.0181 13.88 27.5141 14.004 27.8901 14.252C28.2661 14.492 28.5661 14.86 28.7901 15.356L27.8781 15.896C27.7421 15.552 27.5461 15.288 27.2901 15.104C27.0421 14.912 26.7541 14.816 26.4261 14.816C26.1221 14.816 25.8701 14.876 25.6701 14.996C25.4701 15.108 25.3701 15.272 25.3701 15.488C25.3701 15.72 25.4941 15.912 25.7421 16.064C25.9981 16.216 26.3741 16.34 26.8701 16.436C27.5421 16.572 28.0381 16.784 28.3581 17.072C28.6861 17.352 28.8501 17.74 28.8501 18.236C28.8501 18.588 28.7581 18.912 28.5741 19.208C28.3981 19.504 28.1341 19.74 27.7821 19.916C27.4381 20.084 27.0301 20.168 26.5581 20.168ZM32.3011 20.168C31.7811 20.168 31.3611 20.028 31.0411 19.748C30.7211 19.46 30.5611 19 30.5611 18.368V15.044H29.6011V14.048H30.5611V12.44H31.7971V14.048H33.1531V15.044H31.7971V18.188C31.7971 18.78 32.0611 19.076 32.5891 19.076C32.7491 19.076 32.9091 19.052 33.0691 19.004L33.1891 20.024C32.9171 20.12 32.6211 20.168 32.3011 20.168Z" fill="#6A6D8F"/>
    <rect x="47" y="2" width="43" height="28" rx="6" fill="#DAD9F7"/>
    <path d="M55.8835 11.6H58.2955C59.1595 11.6 59.9235 11.764 60.5875 12.092C61.2595 12.412 61.7835 12.888 62.1595 13.52C62.5355 14.152 62.7235 14.912 62.7235 15.8C62.7235 16.688 62.5355 17.448 62.1595 18.08C61.7835 18.712 61.2595 19.192 60.5875 19.52C59.9235 19.84 59.1595 20 58.2955 20H55.8835V11.6ZM58.3315 18.812C59.2755 18.812 60.0235 18.556 60.5755 18.044C61.1355 17.532 61.4155 16.784 61.4155 15.8C61.4155 14.816 61.1355 14.068 60.5755 13.556C60.0235 13.044 59.2755 12.788 58.3315 12.788H57.1795V18.812H58.3315ZM65.6748 20.168C65.0828 20.168 64.6028 20 64.2348 19.664C63.8668 19.32 63.6828 18.872 63.6828 18.32C63.6828 17.76 63.8748 17.32 64.2588 17C64.6508 16.68 65.1508 16.472 65.7588 16.376L67.6548 16.076V15.836C67.6548 15.492 67.5468 15.232 67.3308 15.056C67.1228 14.88 66.8188 14.792 66.4188 14.792C66.0268 14.792 65.7188 14.872 65.4948 15.032C65.2788 15.184 65.1708 15.376 65.1708 15.608C65.1708 15.664 65.1788 15.716 65.1948 15.764L64.1028 16.136C64.0388 15.984 64.0068 15.82 64.0068 15.644C64.0068 15.332 64.1028 15.044 64.2948 14.78C64.4948 14.508 64.7788 14.292 65.1468 14.132C65.5148 13.964 65.9388 13.88 66.4188 13.88C67.2188 13.88 67.8308 14.056 68.2548 14.408C68.6868 14.76 68.9028 15.272 68.9028 15.944V18.524C68.9028 18.86 68.9308 19.136 68.9868 19.352C69.0428 19.56 69.1428 19.776 69.2868 20H68.0268C67.8108 19.72 67.7028 19.368 67.7028 18.944C67.5188 19.328 67.2428 19.628 66.8748 19.844C66.5148 20.06 66.1148 20.168 65.6748 20.168ZM65.9388 19.136C66.4508 19.136 66.8628 18.952 67.1748 18.584C67.4948 18.208 67.6548 17.728 67.6548 17.144V16.976L66.0348 17.252C65.6668 17.316 65.3828 17.432 65.1828 17.6C64.9908 17.768 64.8948 17.988 64.8948 18.26C64.8948 18.532 64.9868 18.748 65.1708 18.908C65.3628 19.06 65.6188 19.136 65.9388 19.136ZM71.5148 22.532C71.2348 22.532 70.9868 22.488 70.7708 22.4L70.9628 21.26C71.1388 21.34 71.3068 21.38 71.4668 21.38C71.6348 21.38 71.7748 21.332 71.8868 21.236C71.9988 21.148 72.0948 21 72.1748 20.792L72.4748 20.036L70.0268 14.048H71.4308L73.1228 18.308L74.7788 14.048H76.1828L73.2788 21.2C73.0868 21.672 72.8468 22.012 72.5588 22.22C72.2788 22.428 71.9308 22.532 71.5148 22.532ZM79.3843 20.168C78.7203 20.168 78.1683 20.004 77.7283 19.676C77.2963 19.348 76.9723 18.924 76.7563 18.404L77.7643 17.78C77.9003 18.196 78.1083 18.524 78.3883 18.764C78.6683 19.004 79.0083 19.124 79.4083 19.124C79.7283 19.124 79.9923 19.048 80.2003 18.896C80.4163 18.736 80.5243 18.528 80.5243 18.272C80.5243 18.032 80.4123 17.844 80.1883 17.708C79.9723 17.564 79.6203 17.448 79.1323 17.36C78.5163 17.24 78.0203 17.032 77.6443 16.736C77.2763 16.44 77.0923 16.04 77.0923 15.536C77.0923 15.024 77.2963 14.62 77.7043 14.324C78.1203 14.028 78.6283 13.88 79.2283 13.88C79.8443 13.88 80.3403 14.004 80.7163 14.252C81.0923 14.492 81.3923 14.86 81.6163 15.356L80.7043 15.896C80.5683 15.552 80.3723 15.288 80.1163 15.104C79.8683 14.912 79.5803 14.816 79.2523 14.816C78.9483 14.816 78.6963 14.876 78.4963 14.996C78.2963 15.108 78.1963 15.272 78.1963 15.488C78.1963 15.72 78.3203 15.912 78.5683 16.064C78.8243 16.216 79.2003 16.34 79.6963 16.436C80.3683 16.572 80.8643 16.784 81.1843 17.072C81.5123 17.352 81.6763 17.74 81.6763 18.236C81.6763 18.588 81.5843 18.912 81.4003 19.208C81.2243 19.504 80.9603 19.74 80.6083 19.916C80.2643 20.084 79.8563 20.168 79.3843 20.168Z" fill="#1A1D29"/>
    <rect x="0.5" y="0.5" width="91" height="31" rx="7.5" stroke="#EAEAFB"/>
    <path d="M140 11L135 16L140 21" stroke="#38405B" stroke-width="1.5" stroke-linejoin="round"/>
    <path d="M171.106 11.2H177.714V12.544H172.618V15.54H177.294V16.884H172.618V21H171.106V11.2ZM181.934 21.196C181.3 21.196 180.712 21.042 180.17 20.734C179.638 20.426 179.214 19.992 178.896 19.432C178.579 18.872 178.42 18.2373 178.42 17.528C178.42 16.8187 178.579 16.1887 178.896 15.638C179.214 15.078 179.643 14.644 180.184 14.336C180.735 14.0187 181.342 13.86 182.004 13.86C182.667 13.86 183.25 14.0093 183.754 14.308C184.268 14.5973 184.664 15.008 184.944 15.54C185.224 16.0627 185.364 16.66 185.364 17.332V17.836H179.82C179.867 18.4613 180.086 18.97 180.478 19.362C180.87 19.754 181.365 19.95 181.962 19.95C182.476 19.95 182.9 19.8333 183.236 19.6C183.572 19.3573 183.857 19.0073 184.09 18.55L185.154 19.166C184.818 19.8473 184.389 20.356 183.866 20.692C183.344 21.028 182.7 21.196 181.934 21.196ZM183.978 16.702C183.922 16.17 183.708 15.7547 183.334 15.456C182.961 15.148 182.504 14.994 181.962 14.994C181.44 14.994 180.987 15.1573 180.604 15.484C180.222 15.8013 179.97 16.2073 179.848 16.702H183.978ZM190.646 21.196C190.114 21.196 189.643 21.0793 189.232 20.846C188.831 20.6127 188.523 20.3233 188.308 19.978V21H186.852V11.2H188.308V15.064C188.569 14.6907 188.91 14.3967 189.33 14.182C189.759 13.9673 190.221 13.86 190.716 13.86C191.332 13.86 191.887 14.014 192.382 14.322C192.886 14.6207 193.278 15.05 193.558 15.61C193.847 16.1607 193.992 16.8 193.992 17.528C193.992 18.256 193.843 18.9 193.544 19.46C193.255 20.0107 192.853 20.44 192.34 20.748C191.836 21.0467 191.271 21.196 190.646 21.196ZM190.352 19.866C190.987 19.866 191.505 19.6467 191.906 19.208C192.307 18.7693 192.508 18.2093 192.508 17.528C192.508 16.8467 192.307 16.2867 191.906 15.848C191.505 15.4093 190.987 15.19 190.352 15.19C189.941 15.19 189.573 15.2927 189.246 15.498C188.919 15.694 188.663 15.9693 188.476 16.324C188.289 16.6787 188.196 17.08 188.196 17.528C188.196 17.976 188.285 18.3773 188.462 18.732C188.649 19.0867 188.905 19.3667 189.232 19.572C189.568 19.768 189.941 19.866 190.352 19.866ZM195.452 14.056H196.908V15.232C197.094 14.812 197.356 14.4807 197.692 14.238C198.037 13.986 198.424 13.86 198.854 13.86C199.059 13.86 199.26 13.888 199.456 13.944L199.218 15.288C199.04 15.2227 198.854 15.19 198.658 15.19C198.144 15.19 197.724 15.4093 197.398 15.848C197.071 16.2773 196.908 16.8093 196.908 17.444V21H195.452V14.056ZM203.14 21.196C202.394 21.196 201.782 20.9673 201.306 20.51C200.83 20.0433 200.592 19.3667 200.592 18.48V14.056H202.048V18.2C202.048 18.7413 202.179 19.1567 202.44 19.446C202.711 19.726 203.094 19.866 203.588 19.866C204.111 19.866 204.545 19.6653 204.89 19.264C205.236 18.8533 205.408 18.3307 205.408 17.696V14.056H206.85V21H205.408V19.852C205.184 20.272 204.872 20.6033 204.47 20.846C204.069 21.0793 203.626 21.196 203.14 21.196ZM210.62 21.196C209.93 21.196 209.37 21 208.94 20.608C208.511 20.2067 208.296 19.684 208.296 19.04C208.296 18.3867 208.52 17.8733 208.968 17.5C209.426 17.1267 210.009 16.884 210.718 16.772L212.93 16.422V16.142C212.93 15.7407 212.804 15.4373 212.552 15.232C212.31 15.0267 211.955 14.924 211.488 14.924C211.031 14.924 210.672 15.0173 210.41 15.204C210.158 15.3813 210.032 15.6053 210.032 15.876C210.032 15.9413 210.042 16.002 210.06 16.058L208.786 16.492C208.712 16.3147 208.674 16.1233 208.674 15.918C208.674 15.554 208.786 15.218 209.01 14.91C209.244 14.5927 209.575 14.3407 210.004 14.154C210.434 13.958 210.928 13.86 211.488 13.86C212.422 13.86 213.136 14.0653 213.63 14.476C214.134 14.8867 214.386 15.484 214.386 16.268V19.278C214.386 19.67 214.419 19.992 214.484 20.244C214.55 20.4867 214.666 20.7387 214.834 21H213.364C213.112 20.6733 212.986 20.2627 212.986 19.768C212.772 20.216 212.45 20.566 212.02 20.818C211.6 21.07 211.134 21.196 210.62 21.196ZM210.928 19.992C211.526 19.992 212.006 19.7773 212.37 19.348C212.744 18.9093 212.93 18.3493 212.93 17.668V17.472L211.04 17.794C210.611 17.8687 210.28 18.004 210.046 18.2C209.822 18.396 209.71 18.6527 209.71 18.97C209.71 19.2873 209.818 19.5393 210.032 19.726C210.256 19.9033 210.555 19.992 210.928 19.992ZM216.192 14.056H217.648V15.232C217.835 14.812 218.096 14.4807 218.432 14.238C218.777 13.986 219.165 13.86 219.594 13.86C219.799 13.86 220 13.888 220.196 13.944L219.958 15.288C219.781 15.2227 219.594 15.19 219.398 15.19C218.885 15.19 218.465 15.4093 218.138 15.848C217.811 16.2773 217.648 16.8093 217.648 17.444V21H216.192V14.056ZM222.679 23.954C222.352 23.954 222.063 23.9027 221.811 23.8L222.035 22.47C222.24 22.5633 222.436 22.61 222.623 22.61C222.819 22.61 222.982 22.554 223.113 22.442C223.244 22.3393 223.356 22.1667 223.449 21.924L223.799 21.042L220.943 14.056H222.581L224.555 19.026L226.487 14.056H228.125L224.737 22.4C224.513 22.9507 224.233 23.3473 223.897 23.59C223.57 23.8327 223.164 23.954 222.679 23.954ZM232.77 19.922L236.522 16.24C236.98 15.792 237.302 15.4 237.488 15.064C237.684 14.7187 237.782 14.3453 237.782 13.944C237.782 13.4587 237.624 13.0713 237.306 12.782C236.989 12.4833 236.564 12.334 236.032 12.334C235.519 12.334 235.099 12.4833 234.772 12.782C234.455 13.0713 234.296 13.4727 234.296 13.986C234.296 14.2287 234.334 14.448 234.408 14.644L232.966 14.91C232.845 14.602 232.784 14.2567 232.784 13.874C232.784 13.37 232.915 12.8987 233.176 12.46C233.447 12.0213 233.83 11.6713 234.324 11.41C234.819 11.1393 235.393 11.004 236.046 11.004C236.718 11.004 237.292 11.1253 237.768 11.368C238.254 11.6107 238.622 11.942 238.874 12.362C239.126 12.782 239.252 13.258 239.252 13.79C239.252 14.4153 239.126 14.9753 238.874 15.47C238.622 15.9647 238.17 16.5293 237.516 17.164L235.052 19.586H239.28V21H232.77V19.922ZM244.67 21.196C243.83 21.196 243.079 20.986 242.416 20.566C241.763 20.1367 241.25 19.5393 240.876 18.774C240.512 17.9993 240.33 17.108 240.33 16.1C240.33 15.092 240.512 14.2053 240.876 13.44C241.25 12.6653 241.763 12.068 242.416 11.648C243.079 11.2187 243.83 11.004 244.67 11.004C245.51 11.004 246.257 11.2187 246.91 11.648C247.573 12.068 248.091 12.6653 248.464 13.44C248.838 14.2053 249.024 15.092 249.024 16.1C249.024 17.108 248.838 17.9993 248.464 18.774C248.091 19.5393 247.573 20.1367 246.91 20.566C246.257 20.986 245.51 21.196 244.67 21.196ZM244.67 19.81C245.221 19.81 245.711 19.6607 246.14 19.362C246.57 19.0633 246.906 18.634 247.148 18.074C247.391 17.514 247.512 16.856 247.512 16.1C247.512 15.344 247.391 14.686 247.148 14.126C246.906 13.566 246.57 13.1367 246.14 12.838C245.711 12.5393 245.221 12.39 244.67 12.39C244.12 12.39 243.63 12.5393 243.2 12.838C242.771 13.1367 242.435 13.566 242.192 14.126C241.95 14.686 241.828 15.344 241.828 16.1C241.828 16.856 241.95 17.514 242.192 18.074C242.435 18.634 242.771 19.0633 243.2 19.362C243.63 19.6607 244.12 19.81 244.67 19.81ZM250.147 19.922L253.899 16.24C254.357 15.792 254.679 15.4 254.865 15.064C255.061 14.7187 255.159 14.3453 255.159 13.944C255.159 13.4587 255.001 13.0713 254.683 12.782C254.366 12.4833 253.941 12.334 253.409 12.334C252.896 12.334 252.476 12.4833 252.149 12.782C251.832 13.0713 251.673 13.4727 251.673 13.986C251.673 14.2287 251.711 14.448 251.785 14.644L250.343 14.91C250.222 14.602 250.161 14.2567 250.161 13.874C250.161 13.37 250.292 12.8987 250.553 12.46C250.824 12.0213 251.207 11.6713 251.701 11.41C252.196 11.1393 252.77 11.004 253.423 11.004C254.095 11.004 254.669 11.1253 255.145 11.368C255.631 11.6107 255.999 11.942 256.251 12.362C256.503 12.782 256.629 13.258 256.629 13.79C256.629 14.4153 256.503 14.9753 256.251 15.47C255.999 15.9647 255.547 16.5293 254.893 17.164L252.429 19.586H256.657V21H250.147V19.922ZM261.289 21.196C260.58 21.196 259.964 21.0607 259.441 20.79C258.928 20.5193 258.536 20.1647 258.265 19.726C257.995 19.278 257.859 18.7973 257.859 18.284C257.859 17.9573 257.911 17.6773 258.013 17.444L259.441 17.794C259.395 17.9153 259.371 18.0693 259.371 18.256C259.371 18.7413 259.549 19.138 259.903 19.446C260.258 19.754 260.72 19.908 261.289 19.908C261.859 19.908 262.321 19.754 262.675 19.446C263.039 19.1287 263.221 18.69 263.221 18.13C263.221 17.5233 262.979 17.0753 262.493 16.786C262.008 16.4873 261.373 16.338 260.589 16.338V15.162C261.308 15.162 261.854 15.0173 262.227 14.728C262.601 14.4387 262.787 14.0607 262.787 13.594C262.787 13.1833 262.643 12.8567 262.353 12.614C262.073 12.3713 261.691 12.25 261.205 12.25C260.739 12.25 260.351 12.3807 260.043 12.642C259.735 12.894 259.581 13.2253 259.581 13.636C259.581 13.804 259.609 13.9533 259.665 14.084L258.265 14.378C258.181 14.126 258.139 13.8833 258.139 13.65C258.139 13.174 258.265 12.7353 258.517 12.334C258.779 11.9327 259.143 11.6107 259.609 11.368C260.076 11.1253 260.613 11.004 261.219 11.004C262.19 11.004 262.937 11.228 263.459 11.676C263.991 12.1147 264.257 12.6887 264.257 13.398C264.257 13.8927 264.117 14.3407 263.837 14.742C263.567 15.1433 263.193 15.4373 262.717 15.624C263.305 15.8013 263.786 16.1 264.159 16.52C264.542 16.94 264.733 17.4673 264.733 18.102C264.733 18.7273 264.584 19.2733 264.285 19.74C263.996 20.2067 263.59 20.566 263.067 20.818C262.545 21.07 261.952 21.196 261.289 21.196Z" fill="#38405B"/>
    <rect x="154.5" y="0.5" width="127" height="31" rx="7.5" stroke="#EAEAFB"/>
    <path d="M296 21L301 16L296 11" stroke="#38405B" stroke-width="1.5" stroke-linejoin="round"/>
    <path d="M10.665 68.6H12.045L14.889 75.668L17.745 68.6H19.125V77H17.865V71.192C17.745 71.664 17.609 72.08 17.457 72.44L15.537 77H14.253L12.333 72.44C12.213 72.16 12.073 71.744 11.913 71.192V77H10.665V68.6ZM23.7867 77.168C23.2267 77.168 22.7027 77.048 22.2147 76.808C21.7267 76.56 21.3347 76.2 21.0387 75.728C20.7427 75.248 20.5947 74.68 20.5947 74.024C20.5947 73.368 20.7427 72.804 21.0387 72.332C21.3347 71.852 21.7267 71.492 22.2147 71.252C22.7027 71.004 23.2267 70.88 23.7867 70.88C24.3387 70.88 24.8587 71.004 25.3467 71.252C25.8347 71.492 26.2267 71.852 26.5227 72.332C26.8187 72.804 26.9667 73.368 26.9667 74.024C26.9667 74.68 26.8187 75.248 26.5227 75.728C26.2267 76.2 25.8347 76.56 25.3467 76.808C24.8587 77.048 24.3387 77.168 23.7867 77.168ZM23.7867 76.028C24.1307 76.028 24.4507 75.948 24.7467 75.788C25.0427 75.62 25.2747 75.384 25.4427 75.08C25.6187 74.776 25.7067 74.424 25.7067 74.024C25.7067 73.624 25.6187 73.272 25.4427 72.968C25.2747 72.664 25.0427 72.432 24.7467 72.272C24.4507 72.104 24.1307 72.02 23.7867 72.02C23.4347 72.02 23.1107 72.104 22.8147 72.272C22.5267 72.432 22.2947 72.664 22.1187 72.968C21.9427 73.272 21.8547 73.624 21.8547 74.024C21.8547 74.424 21.9427 74.776 22.1187 75.08C22.2947 75.384 22.5267 75.62 22.8147 75.788C23.1107 75.948 23.4347 76.028 23.7867 76.028ZM28.3883 71.048H29.6363V72.056C29.8523 71.688 30.1403 71.4 30.5003 71.192C30.8603 70.984 31.2523 70.88 31.6763 70.88C32.2923 70.88 32.7923 71.064 33.1763 71.432C33.5683 71.792 33.7643 72.296 33.7643 72.944V77H32.5163V73.388C32.5163 72.956 32.4003 72.62 32.1683 72.38C31.9443 72.14 31.6203 72.02 31.1963 72.02C30.9083 72.02 30.6443 72.1 30.4043 72.26C30.1723 72.42 29.9843 72.64 29.8403 72.92C29.7043 73.192 29.6363 73.504 29.6363 73.856V77H28.3883V71.048Z" fill="#6A6D8F"/>
    <path d="M59.2301 69.788H56.6501V68.6H63.1061V69.788H60.5261V77H59.2301V69.788ZM65.3912 77.168C64.7512 77.168 64.2272 76.972 63.8192 76.58C63.4112 76.18 63.2072 75.6 63.2072 74.84V71.048H64.4552V74.6C64.4552 75.064 64.5672 75.42 64.7912 75.668C65.0232 75.908 65.3512 76.028 65.7752 76.028C66.2232 76.028 66.5952 75.856 66.8912 75.512C67.1872 75.16 67.3352 74.712 67.3352 74.168V71.048H68.5712V77H67.3352V76.016C67.1432 76.376 66.8752 76.66 66.5312 76.868C66.1872 77.068 65.8072 77.168 65.3912 77.168ZM72.9998 77.168C72.4558 77.168 71.9518 77.036 71.4878 76.772C71.0318 76.508 70.6678 76.136 70.3958 75.656C70.1238 75.176 69.9878 74.632 69.9878 74.024C69.9878 73.416 70.1238 72.876 70.3958 72.404C70.6678 71.924 71.0358 71.552 71.4998 71.288C71.9718 71.016 72.4918 70.88 73.0598 70.88C73.6278 70.88 74.1278 71.008 74.5598 71.264C74.9998 71.512 75.3398 71.864 75.5798 72.32C75.8198 72.768 75.9398 73.28 75.9398 73.856V74.288H71.1878C71.2278 74.824 71.4158 75.26 71.7518 75.596C72.0878 75.932 72.5118 76.1 73.0238 76.1C73.4638 76.1 73.8278 76 74.1158 75.8C74.4038 75.592 74.6478 75.292 74.8478 74.9L75.7598 75.428C75.4718 76.012 75.1038 76.448 74.6558 76.736C74.2078 77.024 73.6558 77.168 72.9998 77.168ZM74.7518 73.316C74.7038 72.86 74.5198 72.504 74.1998 72.248C73.8798 71.984 73.4878 71.852 73.0238 71.852C72.5758 71.852 72.1878 71.992 71.8598 72.272C71.5318 72.544 71.3158 72.892 71.2118 73.316H74.7518Z" fill="#6A6D8F"/>
    <path d="M98.2489 68.6H99.5929L101.093 74.384C101.197 74.8 101.269 75.104 101.309 75.296L101.513 74.372L103.013 68.6H104.381L105.881 74.372L106.085 75.296C106.125 75.104 106.197 74.8 106.301 74.384L107.801 68.6H109.145L106.805 77H105.413L103.697 70.4L101.981 77H100.589L98.2489 68.6ZM112.301 77.168C111.757 77.168 111.253 77.036 110.789 76.772C110.333 76.508 109.969 76.136 109.697 75.656C109.425 75.176 109.289 74.632 109.289 74.024C109.289 73.416 109.425 72.876 109.697 72.404C109.969 71.924 110.337 71.552 110.801 71.288C111.273 71.016 111.793 70.88 112.361 70.88C112.929 70.88 113.429 71.008 113.861 71.264C114.301 71.512 114.641 71.864 114.881 72.32C115.121 72.768 115.241 73.28 115.241 73.856V74.288H110.489C110.529 74.824 110.717 75.26 111.053 75.596C111.389 75.932 111.813 76.1 112.325 76.1C112.765 76.1 113.129 76 113.417 75.8C113.705 75.592 113.949 75.292 114.149 74.9L115.061 75.428C114.773 76.012 114.405 76.448 113.957 76.736C113.509 77.024 112.957 77.168 112.301 77.168ZM114.053 73.316C114.005 72.86 113.821 72.504 113.501 72.248C113.181 71.984 112.789 71.852 112.325 71.852C111.877 71.852 111.489 71.992 111.161 72.272C110.833 72.544 110.617 72.892 110.513 73.316H114.053ZM119.217 77.168C118.673 77.168 118.181 77.04 117.741 76.784C117.301 76.52 116.953 76.152 116.697 75.68C116.441 75.2 116.313 74.648 116.313 74.024C116.313 73.408 116.445 72.864 116.709 72.392C116.981 71.912 117.337 71.54 117.777 71.276C118.225 71.012 118.701 70.88 119.205 70.88C119.653 70.88 120.049 70.972 120.393 71.156C120.737 71.34 121.001 71.592 121.185 71.912V68.6H122.433V77H121.185V76.052C121.009 76.38 120.749 76.648 120.405 76.856C120.061 77.064 119.665 77.168 119.217 77.168ZM119.433 76.028C119.785 76.028 120.101 75.944 120.381 75.776C120.661 75.6 120.881 75.36 121.041 75.056C121.201 74.752 121.281 74.408 121.281 74.024C121.281 73.64 121.201 73.296 121.041 72.992C120.881 72.688 120.661 72.452 120.381 72.284C120.101 72.108 119.785 72.02 119.433 72.02C118.889 72.02 118.445 72.208 118.101 72.584C117.757 72.96 117.585 73.44 117.585 74.024C117.585 74.608 117.757 75.088 118.101 75.464C118.445 75.84 118.889 76.028 119.433 76.028Z" fill="#6A6D8F"/>
    <path d="M147.239 69.788H144.659V68.6H151.115V69.788H148.535V77H147.239V69.788ZM152.283 68.6H153.531V72.056C153.747 71.688 154.039 71.4 154.407 71.192C154.775 70.984 155.183 70.88 155.631 70.88C156.279 70.88 156.791 71.068 157.167 71.444C157.543 71.82 157.731 72.328 157.731 72.968V77H156.495V73.388C156.495 72.956 156.379 72.62 156.147 72.38C155.915 72.14 155.587 72.02 155.163 72.02C154.867 72.02 154.595 72.1 154.347 72.26C154.099 72.42 153.899 72.644 153.747 72.932C153.603 73.212 153.531 73.528 153.531 73.88V77H152.283V68.6ZM161.56 77.168C160.92 77.168 160.396 76.972 159.988 76.58C159.58 76.18 159.376 75.6 159.376 74.84V71.048H160.624V74.6C160.624 75.064 160.736 75.42 160.96 75.668C161.192 75.908 161.52 76.028 161.944 76.028C162.392 76.028 162.764 75.856 163.06 75.512C163.356 75.16 163.504 74.712 163.504 74.168V71.048H164.74V77H163.504V76.016C163.312 76.376 163.044 76.66 162.7 76.868C162.356 77.068 161.976 77.168 161.56 77.168Z" fill="#6A6D8F"/>
    <path d="M192.958 68.6H198.622V69.752H194.254V72.32H198.262V73.472H194.254V77H192.958V68.6ZM199.932 71.048H201.18V72.056C201.34 71.696 201.564 71.412 201.852 71.204C202.148 70.988 202.48 70.88 202.848 70.88C203.024 70.88 203.196 70.904 203.364 70.952L203.16 72.104C203.008 72.048 202.848 72.02 202.68 72.02C202.24 72.02 201.88 72.208 201.6 72.584C201.32 72.952 201.18 73.408 201.18 73.952V77H199.932V71.048ZM204.506 71.048H205.754V77H204.506V71.048ZM204.434 68.72H205.838V70.1H204.434V68.72Z" fill="#6A6D8F"/>
    <path d="M238.329 77.168C237.369 77.168 236.597 76.928 236.013 76.448C235.437 75.96 235.065 75.32 234.897 74.528L236.049 73.928C236.305 75.328 237.065 76.028 238.329 76.028C238.873 76.028 239.309 75.9 239.637 75.644C239.965 75.388 240.129 75.068 240.129 74.684C240.129 74.268 239.953 73.944 239.601 73.712C239.249 73.472 238.705 73.284 237.969 73.148C237.129 72.988 236.469 72.708 235.989 72.308C235.517 71.9 235.281 71.356 235.281 70.676C235.281 70.236 235.401 69.848 235.641 69.512C235.889 69.168 236.229 68.904 236.661 68.72C237.093 68.528 237.589 68.432 238.149 68.432C238.925 68.432 239.581 68.612 240.117 68.972C240.653 69.332 241.041 69.852 241.281 70.532L240.249 71.132C240.073 70.628 239.805 70.244 239.445 69.98C239.085 69.708 238.649 69.572 238.137 69.572C237.673 69.572 237.285 69.668 236.973 69.86C236.669 70.044 236.517 70.308 236.517 70.652C236.517 71.028 236.693 71.328 237.045 71.552C237.405 71.776 237.957 71.964 238.701 72.116C239.613 72.308 240.293 72.604 240.741 73.004C241.197 73.404 241.425 73.94 241.425 74.612C241.425 75.076 241.297 75.504 241.041 75.896C240.785 76.288 240.421 76.6 239.949 76.832C239.485 77.056 238.945 77.168 238.329 77.168ZM244.533 77.168C243.941 77.168 243.461 77 243.093 76.664C242.725 76.32 242.541 75.872 242.541 75.32C242.541 74.76 242.733 74.32 243.117 74C243.509 73.68 244.009 73.472 244.617 73.376L246.513 73.076V72.836C246.513 72.492 246.405 72.232 246.189 72.056C245.981 71.88 245.677 71.792 245.277 71.792C244.885 71.792 244.577 71.872 244.353 72.032C244.137 72.184 244.029 72.376 244.029 72.608C244.029 72.664 244.037 72.716 244.053 72.764L242.961 73.136C242.897 72.984 242.865 72.82 242.865 72.644C242.865 72.332 242.961 72.044 243.153 71.78C243.353 71.508 243.637 71.292 244.005 71.132C244.373 70.964 244.797 70.88 245.277 70.88C246.077 70.88 246.689 71.056 247.113 71.408C247.545 71.76 247.761 72.272 247.761 72.944V75.524C247.761 75.86 247.789 76.136 247.845 76.352C247.901 76.56 248.001 76.776 248.145 77H246.885C246.669 76.72 246.561 76.368 246.561 75.944C246.377 76.328 246.101 76.628 245.733 76.844C245.373 77.06 244.973 77.168 244.533 77.168ZM244.797 76.136C245.309 76.136 245.721 75.952 246.033 75.584C246.353 75.208 246.513 74.728 246.513 74.144V73.976L244.893 74.252C244.525 74.316 244.241 74.432 244.041 74.6C243.849 74.768 243.753 74.988 243.753 75.26C243.753 75.532 243.845 75.748 244.029 75.908C244.221 76.06 244.477 76.136 244.797 76.136ZM251.544 77.168C251.024 77.168 250.604 77.028 250.284 76.748C249.964 76.46 249.804 76 249.804 75.368V72.044H248.844V71.048H249.804V69.44H251.04V71.048H252.396V72.044H251.04V75.188C251.04 75.78 251.304 76.076 251.832 76.076C251.992 76.076 252.152 76.052 252.312 76.004L252.432 77.024C252.16 77.12 251.864 77.168 251.544 77.168Z" fill="#6A6D8F"/>
    <path d="M280.845 77.168C279.885 77.168 279.113 76.928 278.529 76.448C277.953 75.96 277.581 75.32 277.413 74.528L278.565 73.928C278.821 75.328 279.581 76.028 280.845 76.028C281.389 76.028 281.825 75.9 282.153 75.644C282.481 75.388 282.645 75.068 282.645 74.684C282.645 74.268 282.469 73.944 282.117 73.712C281.765 73.472 281.221 73.284 280.485 73.148C279.645 72.988 278.985 72.708 278.505 72.308C278.033 71.9 277.797 71.356 277.797 70.676C277.797 70.236 277.917 69.848 278.157 69.512C278.405 69.168 278.745 68.904 279.177 68.72C279.609 68.528 280.105 68.432 280.665 68.432C281.441 68.432 282.097 68.612 282.633 68.972C283.169 69.332 283.557 69.852 283.797 70.532L282.765 71.132C282.589 70.628 282.321 70.244 281.961 69.98C281.601 69.708 281.165 69.572 280.653 69.572C280.189 69.572 279.801 69.668 279.489 69.86C279.185 70.044 279.033 70.308 279.033 70.652C279.033 71.028 279.209 71.328 279.561 71.552C279.921 71.776 280.473 71.964 281.217 72.116C282.129 72.308 282.809 72.604 283.257 73.004C283.713 73.404 283.941 73.94 283.941 74.612C283.941 75.076 283.813 75.504 283.557 75.896C283.301 76.288 282.937 76.6 282.465 76.832C282.001 77.056 281.461 77.168 280.845 77.168ZM287.787 77.168C287.147 77.168 286.623 76.972 286.215 76.58C285.807 76.18 285.603 75.6 285.603 74.84V71.048H286.851V74.6C286.851 75.064 286.963 75.42 287.187 75.668C287.419 75.908 287.747 76.028 288.171 76.028C288.619 76.028 288.991 75.856 289.287 75.512C289.583 75.16 289.731 74.712 289.731 74.168V71.048H290.967V77H289.731V76.016C289.539 76.376 289.271 76.66 288.927 76.868C288.583 77.068 288.203 77.168 287.787 77.168ZM292.685 71.048H293.933V72.056C294.149 71.688 294.437 71.4 294.797 71.192C295.157 70.984 295.549 70.88 295.973 70.88C296.589 70.88 297.089 71.064 297.473 71.432C297.865 71.792 298.061 72.296 298.061 72.944V77H296.813V73.388C296.813 72.956 296.697 72.62 296.465 72.38C296.241 72.14 295.917 72.02 295.493 72.02C295.205 72.02 294.941 72.1 294.701 72.26C294.469 72.42 294.281 72.64 294.137 72.92C294.001 73.192 293.933 73.504 293.933 73.856V77H292.685V71.048Z" fill="#6A6D8F"/>
    <path d="M17.2094 113.196C16.5001 113.196 15.8841 113.061 15.3614 112.79C14.8481 112.519 14.4561 112.165 14.1854 111.726C13.9147 111.278 13.7794 110.797 13.7794 110.284C13.7794 109.957 13.8307 109.677 13.9334 109.444L15.3614 109.794C15.3147 109.915 15.2914 110.069 15.2914 110.256C15.2914 110.741 15.4687 111.138 15.8234 111.446C16.1781 111.754 16.6401 111.908 17.2094 111.908C17.7787 111.908 18.2407 111.754 18.5954 111.446C18.9594 111.129 19.1414 110.69 19.1414 110.13C19.1414 109.523 18.8987 109.075 18.4134 108.786C17.9281 108.487 17.2934 108.338 16.5094 108.338V107.162C17.2281 107.162 17.7741 107.017 18.1474 106.728C18.5207 106.439 18.7074 106.061 18.7074 105.594C18.7074 105.183 18.5627 104.857 18.2734 104.614C17.9934 104.371 17.6107 104.25 17.1254 104.25C16.6587 104.25 16.2714 104.381 15.9634 104.642C15.6554 104.894 15.5014 105.225 15.5014 105.636C15.5014 105.804 15.5294 105.953 15.5854 106.084L14.1854 106.378C14.1014 106.126 14.0594 105.883 14.0594 105.65C14.0594 105.174 14.1854 104.735 14.4374 104.334C14.6987 103.933 15.0627 103.611 15.5294 103.368C15.9961 103.125 16.5327 103.004 17.1394 103.004C18.1101 103.004 18.8567 103.228 19.3794 103.676C19.9114 104.115 20.1774 104.689 20.1774 105.398C20.1774 105.893 20.0374 106.341 19.7574 106.742C19.4867 107.143 19.1134 107.437 18.6374 107.624C19.2254 107.801 19.7061 108.1 20.0794 108.52C20.4621 108.94 20.6534 109.467 20.6534 110.102C20.6534 110.727 20.5041 111.273 20.2054 111.74C19.9161 112.207 19.5101 112.566 18.9874 112.818C18.4647 113.07 17.8721 113.196 17.2094 113.196ZM26.2252 113.196C25.3852 113.196 24.6338 112.986 23.9712 112.566C23.3178 112.137 22.8045 111.539 22.4312 110.774C22.0672 109.999 21.8852 109.108 21.8852 108.1C21.8852 107.092 22.0672 106.205 22.4312 105.44C22.8045 104.665 23.3178 104.068 23.9712 103.648C24.6338 103.219 25.3852 103.004 26.2252 103.004C27.0652 103.004 27.8118 103.219 28.4652 103.648C29.1278 104.068 29.6458 104.665 30.0192 105.44C30.3925 106.205 30.5792 107.092 30.5792 108.1C30.5792 109.108 30.3925 109.999 30.0192 110.774C29.6458 111.539 29.1278 112.137 28.4652 112.566C27.8118 112.986 27.0652 113.196 26.2252 113.196ZM26.2252 111.81C26.7758 111.81 27.2658 111.661 27.6952 111.362C28.1245 111.063 28.4605 110.634 28.7032 110.074C28.9458 109.514 29.0672 108.856 29.0672 108.1C29.0672 107.344 28.9458 106.686 28.7032 106.126C28.4605 105.566 28.1245 105.137 27.6952 104.838C27.2658 104.539 26.7758 104.39 26.2252 104.39C25.6745 104.39 25.1845 104.539 24.7552 104.838C24.3258 105.137 23.9898 105.566 23.7472 106.126C23.5045 106.686 23.3832 107.344 23.3832 108.1C23.3832 108.856 23.5045 109.514 23.7472 110.074C23.9898 110.634 24.3258 111.063 24.7552 111.362C25.1845 111.661 25.6745 111.81 26.2252 111.81Z" fill="#AAA7CC"/>
    <path d="M64.0381 113.196C63.3287 113.196 62.7127 113.061 62.1901 112.79C61.6767 112.519 61.2847 112.165 61.0141 111.726C60.7434 111.278 60.6081 110.797 60.6081 110.284C60.6081 109.957 60.6594 109.677 60.7621 109.444L62.1901 109.794C62.1434 109.915 62.1201 110.069 62.1201 110.256C62.1201 110.741 62.2974 111.138 62.6521 111.446C63.0067 111.754 63.4687 111.908 64.0381 111.908C64.6074 111.908 65.0694 111.754 65.4241 111.446C65.7881 111.129 65.9701 110.69 65.9701 110.13C65.9701 109.523 65.7274 109.075 65.2421 108.786C64.7567 108.487 64.1221 108.338 63.3381 108.338V107.162C64.0567 107.162 64.6027 107.017 64.9761 106.728C65.3494 106.439 65.5361 106.061 65.5361 105.594C65.5361 105.183 65.3914 104.857 65.1021 104.614C64.8221 104.371 64.4394 104.25 63.9541 104.25C63.4874 104.25 63.1001 104.381 62.7921 104.642C62.4841 104.894 62.3301 105.225 62.3301 105.636C62.3301 105.804 62.3581 105.953 62.4141 106.084L61.0141 106.378C60.9301 106.126 60.8881 105.883 60.8881 105.65C60.8881 105.174 61.0141 104.735 61.2661 104.334C61.5274 103.933 61.8914 103.611 62.3581 103.368C62.8247 103.125 63.3614 103.004 63.9681 103.004C64.9387 103.004 65.6854 103.228 66.2081 103.676C66.7401 104.115 67.0061 104.689 67.0061 105.398C67.0061 105.893 66.8661 106.341 66.5861 106.742C66.3154 107.143 65.9421 107.437 65.4661 107.624C66.0541 107.801 66.5347 108.1 66.9081 108.52C67.2907 108.94 67.4821 109.467 67.4821 110.102C67.4821 110.727 67.3327 111.273 67.0341 111.74C66.7447 112.207 66.3387 112.566 65.8161 112.818C65.2934 113.07 64.7007 113.196 64.0381 113.196ZM70.4577 105.118C70.2057 105.379 69.9211 105.561 69.6037 105.664C69.2864 105.767 68.8851 105.818 68.3997 105.818V104.432C68.9504 104.432 69.3937 104.334 69.7297 104.138C70.0751 103.933 70.3551 103.62 70.5697 103.2H71.9557V113H70.4577V105.118Z" fill="#AAA7CC"/>
    <path d="M110.82 105.118C110.568 105.379 110.283 105.561 109.966 105.664C109.648 105.767 109.247 105.818 108.762 105.818V104.432C109.312 104.432 109.756 104.334 110.092 104.138C110.437 103.933 110.717 103.62 110.932 103.2H112.318V113H110.82V105.118Z" fill="#1A1D29"/>
    <path d="M151.626 111.922L155.378 108.24C155.835 107.792 156.157 107.4 156.344 107.064C156.54 106.719 156.638 106.345 156.638 105.944C156.638 105.459 156.479 105.071 156.162 104.782C155.844 104.483 155.42 104.334 154.888 104.334C154.374 104.334 153.954 104.483 153.628 104.782C153.31 105.071 153.152 105.473 153.152 105.986C153.152 106.229 153.189 106.448 153.264 106.644L151.822 106.91C151.7 106.602 151.64 106.257 151.64 105.874C151.64 105.37 151.77 104.899 152.032 104.46C152.302 104.021 152.685 103.671 153.18 103.41C153.674 103.139 154.248 103.004 154.902 103.004C155.574 103.004 156.148 103.125 156.624 103.368C157.109 103.611 157.478 103.942 157.73 104.362C157.982 104.782 158.108 105.258 158.108 105.79C158.108 106.415 157.982 106.975 157.73 107.47C157.478 107.965 157.025 108.529 156.372 109.164L153.908 111.586H158.136V113H151.626V111.922Z" fill="#1A1D29"/>
    <path d="M199.308 113.196C198.599 113.196 197.983 113.061 197.46 112.79C196.947 112.519 196.555 112.165 196.284 111.726C196.014 111.278 195.878 110.797 195.878 110.284C195.878 109.957 195.93 109.677 196.032 109.444L197.46 109.794C197.414 109.915 197.39 110.069 197.39 110.256C197.39 110.741 197.568 111.138 197.922 111.446C198.277 111.754 198.739 111.908 199.308 111.908C199.878 111.908 200.34 111.754 200.694 111.446C201.058 111.129 201.24 110.69 201.24 110.13C201.24 109.523 200.998 109.075 200.512 108.786C200.027 108.487 199.392 108.338 198.608 108.338V107.162C199.327 107.162 199.873 107.017 200.246 106.728C200.62 106.439 200.806 106.061 200.806 105.594C200.806 105.183 200.662 104.857 200.372 104.614C200.092 104.371 199.71 104.25 199.224 104.25C198.758 104.25 198.37 104.381 198.062 104.642C197.754 104.894 197.6 105.225 197.6 105.636C197.6 105.804 197.628 105.953 197.684 106.084L196.284 106.378C196.2 106.126 196.158 105.883 196.158 105.65C196.158 105.174 196.284 104.735 196.536 104.334C196.798 103.933 197.162 103.611 197.628 103.368C198.095 103.125 198.632 103.004 199.238 103.004C200.209 103.004 200.956 103.228 201.478 103.676C202.01 104.115 202.276 104.689 202.276 105.398C202.276 105.893 202.136 106.341 201.856 106.742C201.586 107.143 201.212 107.437 200.736 107.624C201.324 107.801 201.805 108.1 202.178 108.52C202.561 108.94 202.752 109.467 202.752 110.102C202.752 110.727 202.603 111.273 202.304 111.74C202.015 112.207 201.609 112.566 201.086 112.818C200.564 113.07 199.971 113.196 199.308 113.196Z" fill="#1A1D29"/>
    <circle cx="199.286" cy="129" r="3" fill="#FF9844"/>
    <path d="M244.785 111.222H240.011V109.836L244.785 103.2H246.297V109.836H247.333V111.222H246.297V113H244.785V111.222ZM244.785 109.836V105.37L241.607 109.836H244.785Z" fill="#1A1D29"/>
    <path d="M287.769 113.196C287.078 113.196 286.476 113.07 285.963 112.818C285.45 112.557 285.058 112.216 284.787 111.796C284.516 111.376 284.381 110.923 284.381 110.438C284.381 110.177 284.428 109.929 284.521 109.696L285.949 110.032C285.912 110.163 285.893 110.293 285.893 110.424C285.893 110.891 286.061 111.255 286.397 111.516C286.742 111.777 287.2 111.908 287.769 111.908C288.404 111.908 288.917 111.707 289.309 111.306C289.701 110.905 289.897 110.359 289.897 109.668C289.897 108.996 289.71 108.469 289.337 108.086C288.964 107.703 288.455 107.512 287.811 107.512C287.382 107.512 286.971 107.638 286.579 107.89C286.196 108.142 285.893 108.464 285.669 108.856L284.465 108.534L284.941 103.2H290.807V104.586H286.019L285.725 107.358C286.014 107.013 286.369 106.751 286.789 106.574C287.209 106.397 287.634 106.308 288.063 106.308C289.127 106.308 289.948 106.616 290.527 107.232C291.115 107.839 291.409 108.651 291.409 109.668C291.409 110.34 291.255 110.942 290.947 111.474C290.639 112.006 290.21 112.426 289.659 112.734C289.108 113.042 288.478 113.196 287.769 113.196Z" fill="#1A1D29"/>
    <path d="M22.2596 161.196C21.5036 161.196 20.8456 161.019 20.2856 160.664C19.7256 160.309 19.2916 159.791 18.9836 159.11C18.6849 158.429 18.5356 157.617 18.5356 156.674C18.5356 155.498 18.7269 154.425 19.1096 153.454C19.4362 152.67 19.8889 152.068 20.4676 151.648C21.0462 151.219 21.7089 151.004 22.4556 151.004C23.0529 151.004 23.5756 151.107 24.0236 151.312C24.4716 151.508 24.8122 151.788 25.0456 152.152C25.2882 152.507 25.4096 152.917 25.4096 153.384C25.4096 153.636 25.3629 153.893 25.2696 154.154L23.8696 153.846C23.9349 153.678 23.9676 153.515 23.9676 153.356C23.9676 152.992 23.8322 152.707 23.5616 152.502C23.3002 152.297 22.9316 152.194 22.4556 152.194C21.7369 152.194 21.1582 152.535 20.7196 153.216C20.2902 153.897 20.0429 154.77 19.9776 155.834C20.2669 155.442 20.6309 155.139 21.0696 154.924C21.5176 154.7 21.9936 154.588 22.4976 154.588C23.1322 154.588 23.6969 154.728 24.1916 155.008C24.6956 155.288 25.0876 155.675 25.3676 156.17C25.6569 156.665 25.8016 157.225 25.8016 157.85C25.8016 158.466 25.6476 159.031 25.3396 159.544C25.0409 160.057 24.6209 160.463 24.0796 160.762C23.5382 161.051 22.9316 161.196 22.2596 161.196ZM22.2456 159.95C22.8336 159.95 23.3282 159.768 23.7296 159.404C24.1309 159.031 24.3316 158.527 24.3316 157.892C24.3316 157.257 24.1309 156.758 23.7296 156.394C23.3282 156.021 22.8336 155.834 22.2456 155.834C21.6576 155.834 21.1582 156.021 20.7476 156.394C20.3462 156.767 20.1456 157.267 20.1456 157.892C20.1456 158.517 20.3462 159.017 20.7476 159.39C21.1582 159.763 21.6576 159.95 22.2456 159.95Z" fill="#1A1D29"/>
    <path d="M68.1363 152.586H63.1803V151.2H69.6623V152.502L65.8683 161H64.3703L68.1363 152.586Z" fill="#1A1D29"/>
    <path d="M110.714 161.196C110.042 161.196 109.45 161.075 108.936 160.832C108.423 160.589 108.022 160.249 107.732 159.81C107.452 159.371 107.312 158.863 107.312 158.284C107.312 157.705 107.462 157.197 107.76 156.758C108.068 156.319 108.474 155.983 108.978 155.75C108.549 155.526 108.213 155.227 107.97 154.854C107.737 154.471 107.62 154.042 107.62 153.566C107.62 153.071 107.751 152.633 108.012 152.25C108.283 151.858 108.652 151.555 109.118 151.34C109.585 151.116 110.117 151.004 110.714 151.004C111.312 151.004 111.844 151.116 112.31 151.34C112.777 151.555 113.141 151.858 113.402 152.25C113.673 152.633 113.808 153.071 113.808 153.566C113.808 154.042 113.687 154.471 113.444 154.854C113.211 155.227 112.88 155.526 112.45 155.75C112.954 155.983 113.356 156.319 113.654 156.758C113.962 157.197 114.116 157.705 114.116 158.284C114.116 158.863 113.972 159.371 113.682 159.81C113.402 160.249 113.006 160.589 112.492 160.832C111.979 161.075 111.386 161.196 110.714 161.196ZM110.714 155.19C111.19 155.19 111.582 155.055 111.89 154.784C112.208 154.504 112.366 154.131 112.366 153.664C112.366 153.197 112.208 152.829 111.89 152.558C111.573 152.287 111.181 152.152 110.714 152.152C110.248 152.152 109.856 152.287 109.538 152.558C109.221 152.829 109.062 153.197 109.062 153.664C109.062 154.131 109.216 154.504 109.524 154.784C109.842 155.055 110.238 155.19 110.714 155.19ZM110.714 159.95C111.274 159.95 111.732 159.787 112.086 159.46C112.45 159.124 112.632 158.699 112.632 158.186C112.632 157.673 112.446 157.253 112.072 156.926C111.708 156.59 111.256 156.422 110.714 156.422C110.173 156.422 109.716 156.59 109.342 156.926C108.978 157.253 108.796 157.673 108.796 158.186C108.796 158.699 108.974 159.124 109.328 159.46C109.692 159.787 110.154 159.95 110.714 159.95Z" fill="#1A1D29"/>
    <circle cx="110.714" cy="177" r="3" fill="#FF9844"/>
    <path d="M154.683 161.196C154.067 161.196 153.535 161.093 153.087 160.888C152.639 160.673 152.298 160.384 152.065 160.02C151.831 159.656 151.715 159.245 151.715 158.788C151.715 158.545 151.757 158.298 151.841 158.046L153.255 158.368C153.189 158.564 153.157 158.723 153.157 158.844C153.157 159.208 153.297 159.493 153.577 159.698C153.866 159.903 154.249 160.006 154.725 160.006C155.425 160.006 155.985 159.684 156.405 159.04C156.834 158.396 157.086 157.509 157.161 156.38C156.937 156.753 156.615 157.052 156.195 157.276C155.775 157.5 155.289 157.612 154.739 157.612C154.085 157.612 153.502 157.472 152.989 157.192C152.475 156.912 152.069 156.525 151.771 156.03C151.481 155.535 151.337 154.975 151.337 154.35C151.337 153.725 151.486 153.16 151.785 152.656C152.093 152.143 152.513 151.741 153.045 151.452C153.586 151.153 154.197 151.004 154.879 151.004C156.073 151.004 156.993 151.401 157.637 152.194C158.281 152.978 158.603 154.089 158.603 155.526C158.603 156.702 158.407 157.789 158.015 158.788C157.716 159.553 157.273 160.146 156.685 160.566C156.106 160.986 155.439 161.196 154.683 161.196ZM154.907 156.366C155.28 156.366 155.625 156.287 155.943 156.128C156.269 155.96 156.526 155.722 156.713 155.414C156.909 155.097 157.007 154.728 157.007 154.308C157.007 153.888 156.909 153.524 156.713 153.216C156.526 152.899 156.269 152.661 155.943 152.502C155.625 152.334 155.28 152.25 154.907 152.25C154.533 152.25 154.183 152.334 153.857 152.502C153.539 152.661 153.283 152.899 153.087 153.216C152.9 153.524 152.807 153.888 152.807 154.308C152.807 154.728 152.9 155.097 153.087 155.414C153.283 155.722 153.539 155.96 153.857 156.128C154.183 156.287 154.533 156.366 154.907 156.366Z" fill="#1A1D29"/>
    <path d="M194.373 153.118C194.121 153.379 193.837 153.561 193.519 153.664C193.202 153.767 192.801 153.818 192.315 153.818V152.432C192.866 152.432 193.309 152.334 193.645 152.138C193.991 151.933 194.271 151.62 194.485 151.2H195.871V161H194.373V153.118ZM201.919 161.196C201.079 161.196 200.327 160.986 199.665 160.566C199.011 160.137 198.498 159.539 198.125 158.774C197.761 157.999 197.579 157.108 197.579 156.1C197.579 155.092 197.761 154.205 198.125 153.44C198.498 152.665 199.011 152.068 199.665 151.648C200.327 151.219 201.079 151.004 201.919 151.004C202.759 151.004 203.505 151.219 204.159 151.648C204.821 152.068 205.339 152.665 205.713 153.44C206.086 154.205 206.273 155.092 206.273 156.1C206.273 157.108 206.086 157.999 205.713 158.774C205.339 159.539 204.821 160.137 204.159 160.566C203.505 160.986 202.759 161.196 201.919 161.196ZM201.919 159.81C202.469 159.81 202.959 159.661 203.389 159.362C203.818 159.063 204.154 158.634 204.397 158.074C204.639 157.514 204.761 156.856 204.761 156.1C204.761 155.344 204.639 154.686 204.397 154.126C204.154 153.566 203.818 153.137 203.389 152.838C202.959 152.539 202.469 152.39 201.919 152.39C201.368 152.39 200.878 152.539 200.449 152.838C200.019 153.137 199.683 153.566 199.441 154.126C199.198 154.686 199.077 155.344 199.077 156.1C199.077 156.856 199.198 157.514 199.441 158.074C199.683 158.634 200.019 159.063 200.449 159.362C200.878 159.661 201.368 159.81 201.919 159.81Z" fill="#1A1D29"/>
    <path d="M241.038 153.118C240.786 153.379 240.501 153.561 240.184 153.664C239.867 153.767 239.465 153.818 238.98 153.818V152.432C239.531 152.432 239.974 152.334 240.31 152.138C240.655 151.933 240.935 151.62 241.15 151.2H242.536V161H241.038V153.118ZM246.315 153.118C246.063 153.379 245.779 153.561 245.461 153.664C245.144 153.767 244.743 153.818 244.257 153.818V152.432C244.808 152.432 245.251 152.334 245.587 152.138C245.933 151.933 246.213 151.62 246.427 151.2H247.813V161H246.315V153.118Z" fill="#1A1D29"/>
    <path d="M283.888 153.118C283.636 153.379 283.352 153.561 283.034 153.664C282.717 153.767 282.316 153.818 281.83 153.818V152.432C282.381 152.432 282.824 152.334 283.16 152.138C283.506 151.933 283.786 151.62 284 151.2H285.386V161H283.888V153.118ZM287.122 159.922L290.874 156.24C291.331 155.792 291.653 155.4 291.84 155.064C292.036 154.719 292.134 154.345 292.134 153.944C292.134 153.459 291.975 153.071 291.658 152.782C291.34 152.483 290.916 152.334 290.384 152.334C289.87 152.334 289.45 152.483 289.124 152.782C288.806 153.071 288.648 153.473 288.648 153.986C288.648 154.229 288.685 154.448 288.76 154.644L287.318 154.91C287.196 154.602 287.136 154.257 287.136 153.874C287.136 153.37 287.266 152.899 287.528 152.46C287.798 152.021 288.181 151.671 288.676 151.41C289.17 151.139 289.744 151.004 290.398 151.004C291.07 151.004 291.644 151.125 292.12 151.368C292.605 151.611 292.974 151.942 293.226 152.362C293.478 152.782 293.604 153.258 293.604 153.79C293.604 154.415 293.478 154.975 293.226 155.47C292.974 155.965 292.521 156.529 291.868 157.164L289.404 159.586H293.632V161H287.122V159.922Z" fill="#1A1D29"/>
    <path d="M18.0988 201.118C17.8468 201.379 17.5621 201.561 17.2448 201.664C16.9274 201.767 16.5261 201.818 16.0408 201.818V200.432C16.5914 200.432 17.0348 200.334 17.3708 200.138C17.7161 199.933 17.9961 199.62 18.2108 199.2H19.5968V209H18.0988V201.118ZM24.8041 209.196C24.0948 209.196 23.4788 209.061 22.9561 208.79C22.4428 208.519 22.0508 208.165 21.7801 207.726C21.5094 207.278 21.3741 206.797 21.3741 206.284C21.3741 205.957 21.4254 205.677 21.5281 205.444L22.9561 205.794C22.9094 205.915 22.8861 206.069 22.8861 206.256C22.8861 206.741 23.0634 207.138 23.4181 207.446C23.7728 207.754 24.2348 207.908 24.8041 207.908C25.3734 207.908 25.8354 207.754 26.1901 207.446C26.5541 207.129 26.7361 206.69 26.7361 206.13C26.7361 205.523 26.4934 205.075 26.0081 204.786C25.5228 204.487 24.8881 204.338 24.1041 204.338V203.162C24.8228 203.162 25.3688 203.017 25.7421 202.728C26.1154 202.439 26.3021 202.061 26.3021 201.594C26.3021 201.183 26.1574 200.857 25.8681 200.614C25.5881 200.371 25.2054 200.25 24.7201 200.25C24.2534 200.25 23.8661 200.381 23.5581 200.642C23.2501 200.894 23.0961 201.225 23.0961 201.636C23.0961 201.804 23.1241 201.953 23.1801 202.084L21.7801 202.378C21.6961 202.126 21.6541 201.883 21.6541 201.65C21.6541 201.174 21.7801 200.735 22.0321 200.334C22.2934 199.933 22.6574 199.611 23.1241 199.368C23.5908 199.125 24.1274 199.004 24.7341 199.004C25.7048 199.004 26.4514 199.228 26.9741 199.676C27.5061 200.115 27.7721 200.689 27.7721 201.398C27.7721 201.893 27.6321 202.341 27.3521 202.742C27.0814 203.143 26.7081 203.437 26.2321 203.624C26.8201 203.801 27.3008 204.1 27.6741 204.52C28.0568 204.94 28.2481 205.467 28.2481 206.102C28.2481 206.727 28.0988 207.273 27.8001 207.74C27.5108 208.207 27.1048 208.566 26.5821 208.818C26.0594 209.07 25.4668 209.196 24.8041 209.196Z" fill="#1A1D29"/>
    <path d="M62.3571 201.118C62.1051 201.379 61.8205 201.561 61.5031 201.664C61.1858 201.767 60.7845 201.818 60.2991 201.818V200.432C60.8498 200.432 61.2931 200.334 61.6291 200.138C61.9745 199.933 62.2545 199.62 62.4691 199.2H63.8551V209H62.3571V201.118ZM70.2805 207.222H65.5065V205.836L70.2805 199.2H71.7925V205.836H72.8285V207.222H71.7925V209H70.2805V207.222ZM70.2805 205.836V201.37L67.1025 205.836H70.2805Z" fill="#1A1D29"/>
    <rect x="94.7143" y="188" width="32" height="32" rx="16" fill="#38405B"/>
    <path d="M106.616 201.118C106.364 201.379 106.079 201.561 105.762 201.664C105.444 201.767 105.043 201.818 104.558 201.818V200.432C105.108 200.432 105.552 200.334 105.888 200.138C106.233 199.933 106.513 199.62 106.728 199.2H108.114V209H106.616V201.118ZM113.265 209.196C112.574 209.196 111.972 209.07 111.459 208.818C110.946 208.557 110.554 208.216 110.283 207.796C110.012 207.376 109.877 206.923 109.877 206.438C109.877 206.177 109.924 205.929 110.017 205.696L111.445 206.032C111.408 206.163 111.389 206.293 111.389 206.424C111.389 206.891 111.557 207.255 111.893 207.516C112.238 207.777 112.696 207.908 113.265 207.908C113.9 207.908 114.413 207.707 114.805 207.306C115.197 206.905 115.393 206.359 115.393 205.668C115.393 204.996 115.206 204.469 114.833 204.086C114.46 203.703 113.951 203.512 113.307 203.512C112.878 203.512 112.467 203.638 112.075 203.89C111.692 204.142 111.389 204.464 111.165 204.856L109.961 204.534L110.437 199.2H116.303V200.586H111.515L111.221 203.358C111.51 203.013 111.865 202.751 112.285 202.574C112.705 202.397 113.13 202.308 113.559 202.308C114.623 202.308 115.444 202.616 116.023 203.232C116.611 203.839 116.905 204.651 116.905 205.668C116.905 206.34 116.751 206.942 116.443 207.474C116.135 208.006 115.706 208.426 115.155 208.734C114.604 209.042 113.974 209.196 113.265 209.196Z" fill="#F5F5FD"/>
    <path d="M150.826 201.118C150.574 201.379 150.289 201.561 149.972 201.664C149.655 201.767 149.253 201.818 148.768 201.818V200.432C149.319 200.432 149.762 200.334 150.098 200.138C150.443 199.933 150.723 199.62 150.938 199.2H152.324V209H150.826V201.118ZM157.755 209.196C156.999 209.196 156.341 209.019 155.781 208.664C155.221 208.309 154.787 207.791 154.479 207.11C154.181 206.429 154.031 205.617 154.031 204.674C154.031 203.498 154.223 202.425 154.605 201.454C154.932 200.67 155.385 200.068 155.963 199.648C156.542 199.219 157.205 199.004 157.951 199.004C158.549 199.004 159.071 199.107 159.519 199.312C159.967 199.508 160.308 199.788 160.541 200.152C160.784 200.507 160.905 200.917 160.905 201.384C160.905 201.636 160.859 201.893 160.765 202.154L159.365 201.846C159.431 201.678 159.463 201.515 159.463 201.356C159.463 200.992 159.328 200.707 159.057 200.502C158.796 200.297 158.427 200.194 157.951 200.194C157.233 200.194 156.654 200.535 156.215 201.216C155.786 201.897 155.539 202.77 155.473 203.834C155.763 203.442 156.127 203.139 156.565 202.924C157.013 202.7 157.489 202.588 157.993 202.588C158.628 202.588 159.193 202.728 159.687 203.008C160.191 203.288 160.583 203.675 160.863 204.17C161.153 204.665 161.297 205.225 161.297 205.85C161.297 206.466 161.143 207.031 160.835 207.544C160.537 208.057 160.117 208.463 159.575 208.762C159.034 209.051 158.427 209.196 157.755 209.196ZM157.741 207.95C158.329 207.95 158.824 207.768 159.225 207.404C159.627 207.031 159.827 206.527 159.827 205.892C159.827 205.257 159.627 204.758 159.225 204.394C158.824 204.021 158.329 203.834 157.741 203.834C157.153 203.834 156.654 204.021 156.243 204.394C155.842 204.767 155.641 205.267 155.641 205.892C155.641 206.517 155.842 207.017 156.243 207.39C156.654 207.763 157.153 207.95 157.741 207.95Z" fill="#1A1D29"/>
    <circle cx="155" cy="225" r="3" fill="#FF9844"/>
    <path d="M195.611 201.118C195.359 201.379 195.074 201.561 194.757 201.664C194.439 201.767 194.038 201.818 193.553 201.818V200.432C194.103 200.432 194.547 200.334 194.883 200.138C195.228 199.933 195.508 199.62 195.723 199.2H197.109V209H195.611V201.118ZM203.632 200.586H198.676V199.2H205.158V200.502L201.364 209H199.866L203.632 200.586Z" fill="#1A1D29"/>
    <path d="M239.65 201.118C239.398 201.379 239.114 201.561 238.796 201.664C238.479 201.767 238.078 201.818 237.592 201.818V200.432C238.143 200.432 238.586 200.334 238.922 200.138C239.268 199.933 239.548 199.62 239.762 199.2H241.148V209H239.65V201.118ZM246.149 209.196C245.477 209.196 244.884 209.075 244.371 208.832C243.857 208.589 243.456 208.249 243.167 207.81C242.887 207.371 242.747 206.863 242.747 206.284C242.747 205.705 242.896 205.197 243.195 204.758C243.503 204.319 243.909 203.983 244.413 203.75C243.983 203.526 243.647 203.227 243.405 202.854C243.171 202.471 243.055 202.042 243.055 201.566C243.055 201.071 243.185 200.633 243.447 200.25C243.717 199.858 244.086 199.555 244.553 199.34C245.019 199.116 245.551 199.004 246.149 199.004C246.746 199.004 247.278 199.116 247.745 199.34C248.211 199.555 248.575 199.858 248.837 200.25C249.107 200.633 249.243 201.071 249.243 201.566C249.243 202.042 249.121 202.471 248.879 202.854C248.645 203.227 248.314 203.526 247.885 203.75C248.389 203.983 248.79 204.319 249.089 204.758C249.397 205.197 249.551 205.705 249.551 206.284C249.551 206.863 249.406 207.371 249.117 207.81C248.837 208.249 248.44 208.589 247.927 208.832C247.413 209.075 246.821 209.196 246.149 209.196ZM246.149 203.19C246.625 203.19 247.017 203.055 247.325 202.784C247.642 202.504 247.801 202.131 247.801 201.664C247.801 201.197 247.642 200.829 247.325 200.558C247.007 200.287 246.615 200.152 246.149 200.152C245.682 200.152 245.29 200.287 244.973 200.558C244.655 200.829 244.497 201.197 244.497 201.664C244.497 202.131 244.651 202.504 244.959 202.784C245.276 203.055 245.673 203.19 246.149 203.19ZM246.149 207.95C246.709 207.95 247.166 207.787 247.521 207.46C247.885 207.124 248.067 206.699 248.067 206.186C248.067 205.673 247.88 205.253 247.507 204.926C247.143 204.59 246.69 204.422 246.149 204.422C245.607 204.422 245.15 204.59 244.777 204.926C244.413 205.253 244.231 205.673 244.231 206.186C244.231 206.699 244.408 207.124 244.763 207.46C245.127 207.787 245.589 207.95 246.149 207.95Z" fill="#1A1D29"/>
    <path d="M283.683 201.118C283.431 201.379 283.146 201.561 282.829 201.664C282.512 201.767 282.11 201.818 281.625 201.818V200.432C282.176 200.432 282.619 200.334 282.955 200.138C283.3 199.933 283.58 199.62 283.795 199.2H285.181V209H283.683V201.118ZM290.178 209.196C289.562 209.196 289.03 209.093 288.582 208.888C288.134 208.673 287.794 208.384 287.56 208.02C287.327 207.656 287.21 207.245 287.21 206.788C287.21 206.545 287.252 206.298 287.336 206.046L288.75 206.368C288.685 206.564 288.652 206.723 288.652 206.844C288.652 207.208 288.792 207.493 289.072 207.698C289.362 207.903 289.744 208.006 290.22 208.006C290.92 208.006 291.48 207.684 291.9 207.04C292.33 206.396 292.582 205.509 292.656 204.38C292.432 204.753 292.11 205.052 291.69 205.276C291.27 205.5 290.785 205.612 290.234 205.612C289.581 205.612 288.998 205.472 288.484 205.192C287.971 204.912 287.565 204.525 287.266 204.03C286.977 203.535 286.832 202.975 286.832 202.35C286.832 201.725 286.982 201.16 287.28 200.656C287.588 200.143 288.008 199.741 288.54 199.452C289.082 199.153 289.693 199.004 290.374 199.004C291.569 199.004 292.488 199.401 293.132 200.194C293.776 200.978 294.098 202.089 294.098 203.526C294.098 204.702 293.902 205.789 293.51 206.788C293.212 207.553 292.768 208.146 292.18 208.566C291.602 208.986 290.934 209.196 290.178 209.196ZM290.402 204.366C290.776 204.366 291.121 204.287 291.438 204.128C291.765 203.96 292.022 203.722 292.208 203.414C292.404 203.097 292.502 202.728 292.502 202.308C292.502 201.888 292.404 201.524 292.208 201.216C292.022 200.899 291.765 200.661 291.438 200.502C291.121 200.334 290.776 200.25 290.402 200.25C290.029 200.25 289.679 200.334 289.352 200.502C289.035 200.661 288.778 200.899 288.582 201.216C288.396 201.524 288.302 201.888 288.302 202.308C288.302 202.728 288.396 203.097 288.582 203.414C288.778 203.722 289.035 203.96 289.352 204.128C289.679 204.287 290.029 204.366 290.402 204.366Z" fill="#1A1D29"/>
    <rect x="6.14286" y="236" width="32" height="32" rx="16" fill="#DAD9F7"/>
    <path d="M14.0313 255.922L17.7833 252.24C18.2407 251.792 18.5627 251.4 18.7493 251.064C18.9453 250.719 19.0433 250.345 19.0433 249.944C19.0433 249.459 18.8847 249.071 18.5673 248.782C18.25 248.483 17.8253 248.334 17.2933 248.334C16.78 248.334 16.36 248.483 16.0333 248.782C15.716 249.071 15.5573 249.473 15.5573 249.986C15.5573 250.229 15.5947 250.448 15.6693 250.644L14.2273 250.91C14.106 250.602 14.0453 250.257 14.0453 249.874C14.0453 249.37 14.176 248.899 14.4373 248.46C14.708 248.021 15.0907 247.671 15.5853 247.41C16.08 247.139 16.654 247.004 17.3073 247.004C17.9793 247.004 18.5533 247.125 19.0293 247.368C19.5147 247.611 19.8833 247.942 20.1353 248.362C20.3873 248.782 20.5133 249.258 20.5133 249.79C20.5133 250.415 20.3873 250.975 20.1353 251.47C19.8833 251.965 19.4307 252.529 18.7773 253.164L16.3133 255.586H20.5413V257H14.0313V255.922ZM25.9312 257.196C25.0912 257.196 24.3399 256.986 23.6772 256.566C23.0239 256.137 22.5106 255.539 22.1372 254.774C21.7732 253.999 21.5912 253.108 21.5912 252.1C21.5912 251.092 21.7732 250.205 22.1372 249.44C22.5106 248.665 23.0239 248.068 23.6772 247.648C24.3399 247.219 25.0912 247.004 25.9312 247.004C26.7712 247.004 27.5179 247.219 28.1712 247.648C28.8339 248.068 29.3519 248.665 29.7252 249.44C30.0986 250.205 30.2852 251.092 30.2852 252.1C30.2852 253.108 30.0986 253.999 29.7252 254.774C29.3519 255.539 28.8339 256.137 28.1712 256.566C27.5179 256.986 26.7712 257.196 25.9312 257.196ZM25.9312 255.81C26.4819 255.81 26.9719 255.661 27.4012 255.362C27.8306 255.063 28.1666 254.634 28.4092 254.074C28.6519 253.514 28.7732 252.856 28.7732 252.1C28.7732 251.344 28.6519 250.686 28.4092 250.126C28.1666 249.566 27.8306 249.137 27.4012 248.838C26.9719 248.539 26.4819 248.39 25.9312 248.39C25.3806 248.39 24.8906 248.539 24.4612 248.838C24.0319 249.137 23.6959 249.566 23.4532 250.126C23.2106 250.686 23.0892 251.344 23.0892 252.1C23.0892 252.856 23.2106 253.514 23.4532 254.074C23.6959 254.634 24.0319 255.063 24.4612 255.362C24.8906 255.661 25.3806 255.81 25.9312 255.81Z" fill="#1A1D29"/>
    <circle cx="22.1429" cy="273" r="3" fill="#FC660C"/>
    <path d="M60.4157 255.922L64.1677 252.24C64.625 251.792 64.947 251.4 65.1337 251.064C65.3297 250.719 65.4277 250.345 65.4277 249.944C65.4277 249.459 65.269 249.071 64.9517 248.782C64.6343 248.483 64.2097 248.334 63.6777 248.334C63.1643 248.334 62.7443 248.483 62.4177 248.782C62.1003 249.071 61.9417 249.473 61.9417 249.986C61.9417 250.229 61.979 250.448 62.0537 250.644L60.6117 250.91C60.4903 250.602 60.4297 250.257 60.4297 249.874C60.4297 249.37 60.5603 248.899 60.8217 248.46C61.0923 248.021 61.475 247.671 61.9697 247.41C62.4643 247.139 63.0383 247.004 63.6917 247.004C64.3637 247.004 64.9377 247.125 65.4137 247.368C65.899 247.611 66.2677 247.942 66.5197 248.362C66.7717 248.782 66.8977 249.258 66.8977 249.79C66.8977 250.415 66.7717 250.975 66.5197 251.47C66.2677 251.965 65.815 252.529 65.1617 253.164L62.6977 255.586H66.9257V257H60.4157V255.922ZM70.6081 249.118C70.3561 249.379 70.0715 249.561 69.7541 249.664C69.4368 249.767 69.0355 249.818 68.5501 249.818V248.432C69.1008 248.432 69.5441 248.334 69.8801 248.138C70.2255 247.933 70.5055 247.62 70.7201 247.2H72.1061V257H70.6081V249.118Z" fill="#1A1D29"/>
    <path d="M103.266 255.922L107.018 252.24C107.475 251.792 107.797 251.4 107.984 251.064C108.18 250.719 108.278 250.345 108.278 249.944C108.278 249.459 108.119 249.071 107.802 248.782C107.485 248.483 107.06 248.334 106.528 248.334C106.015 248.334 105.595 248.483 105.268 248.782C104.951 249.071 104.792 249.473 104.792 249.986C104.792 250.229 104.829 250.448 104.904 250.644L103.462 250.91C103.341 250.602 103.28 250.257 103.28 249.874C103.28 249.37 103.411 248.899 103.672 248.46C103.943 248.021 104.325 247.671 104.82 247.41C105.315 247.139 105.889 247.004 106.542 247.004C107.214 247.004 107.788 247.125 108.264 247.368C108.749 247.611 109.118 247.942 109.37 248.362C109.622 248.782 109.748 249.258 109.748 249.79C109.748 250.415 109.622 250.975 109.37 251.47C109.118 251.965 108.665 252.529 108.012 253.164L105.548 255.586H109.776V257H103.266V255.922ZM111.414 255.922L115.166 252.24C115.624 251.792 115.946 251.4 116.132 251.064C116.328 250.719 116.426 250.345 116.426 249.944C116.426 249.459 116.268 249.071 115.95 248.782C115.633 248.483 115.208 248.334 114.676 248.334C114.163 248.334 113.743 248.483 113.416 248.782C113.099 249.071 112.94 249.473 112.94 249.986C112.94 250.229 112.978 250.448 113.052 250.644L111.61 250.91C111.489 250.602 111.428 250.257 111.428 249.874C111.428 249.37 111.559 248.899 111.82 248.46C112.091 248.021 112.474 247.671 112.968 247.41C113.463 247.139 114.037 247.004 114.69 247.004C115.362 247.004 115.936 247.125 116.412 247.368C116.898 247.611 117.266 247.942 117.518 248.362C117.77 248.782 117.896 249.258 117.896 249.79C117.896 250.415 117.77 250.975 117.518 251.47C117.266 251.965 116.814 252.529 116.16 253.164L113.696 255.586H117.924V257H111.414V255.922Z" fill="#1A1D29"/>
    <path d="M147.716 255.922L151.468 252.24C151.925 251.792 152.247 251.4 152.434 251.064C152.63 250.719 152.728 250.345 152.728 249.944C152.728 249.459 152.569 249.071 152.252 248.782C151.934 248.483 151.51 248.334 150.978 248.334C150.464 248.334 150.044 248.483 149.718 248.782C149.4 249.071 149.242 249.473 149.242 249.986C149.242 250.229 149.279 250.448 149.354 250.644L147.912 250.91C147.79 250.602 147.73 250.257 147.73 249.874C147.73 249.37 147.86 248.899 148.122 248.46C148.392 248.021 148.775 247.671 149.27 247.41C149.764 247.139 150.338 247.004 150.992 247.004C151.664 247.004 152.238 247.125 152.714 247.368C153.199 247.611 153.568 247.942 153.82 248.362C154.072 248.782 154.198 249.258 154.198 249.79C154.198 250.415 154.072 250.975 153.82 251.47C153.568 251.965 153.115 252.529 152.462 253.164L149.998 255.586H154.226V257H147.716V255.922ZM158.858 257.196C158.148 257.196 157.532 257.061 157.01 256.79C156.496 256.519 156.104 256.165 155.834 255.726C155.563 255.278 155.428 254.797 155.428 254.284C155.428 253.957 155.479 253.677 155.582 253.444L157.01 253.794C156.963 253.915 156.94 254.069 156.94 254.256C156.94 254.741 157.117 255.138 157.472 255.446C157.826 255.754 158.288 255.908 158.858 255.908C159.427 255.908 159.889 255.754 160.244 255.446C160.608 255.129 160.79 254.69 160.79 254.13C160.79 253.523 160.547 253.075 160.062 252.786C159.576 252.487 158.942 252.338 158.158 252.338V251.162C158.876 251.162 159.422 251.017 159.796 250.728C160.169 250.439 160.356 250.061 160.356 249.594C160.356 249.183 160.211 248.857 159.922 248.614C159.642 248.371 159.259 248.25 158.774 248.25C158.307 248.25 157.92 248.381 157.612 248.642C157.304 248.894 157.15 249.225 157.15 249.636C157.15 249.804 157.178 249.953 157.234 250.084L155.834 250.378C155.75 250.126 155.708 249.883 155.708 249.65C155.708 249.174 155.834 248.735 156.086 248.334C156.347 247.933 156.711 247.611 157.178 247.368C157.644 247.125 158.181 247.004 158.788 247.004C159.758 247.004 160.505 247.228 161.028 247.676C161.56 248.115 161.826 248.689 161.826 249.398C161.826 249.893 161.686 250.341 161.406 250.742C161.135 251.143 160.762 251.437 160.286 251.624C160.874 251.801 161.354 252.1 161.728 252.52C162.11 252.94 162.302 253.467 162.302 254.102C162.302 254.727 162.152 255.273 161.854 255.74C161.564 256.207 161.158 256.566 160.636 256.818C160.113 257.07 159.52 257.196 158.858 257.196Z" fill="#1A1D29"/>
    <path d="M192.104 255.922L195.856 252.24C196.313 251.792 196.635 251.4 196.822 251.064C197.018 250.719 197.116 250.345 197.116 249.944C197.116 249.459 196.957 249.071 196.64 248.782C196.323 248.483 195.898 248.334 195.366 248.334C194.853 248.334 194.433 248.483 194.106 248.782C193.789 249.071 193.63 249.473 193.63 249.986C193.63 250.229 193.667 250.448 193.742 250.644L192.3 250.91C192.179 250.602 192.118 250.257 192.118 249.874C192.118 249.37 192.249 248.899 192.51 248.46C192.781 248.021 193.163 247.671 193.658 247.41C194.153 247.139 194.727 247.004 195.38 247.004C196.052 247.004 196.626 247.125 197.102 247.368C197.587 247.611 197.956 247.942 198.208 248.362C198.46 248.782 198.586 249.258 198.586 249.79C198.586 250.415 198.46 250.975 198.208 251.47C197.956 251.965 197.503 252.529 196.85 253.164L194.386 255.586H198.614V257H192.104V255.922ZM204.204 255.222H199.43V253.836L204.204 247.2H205.716V253.836H206.752V255.222H205.716V257H204.204V255.222ZM204.204 253.836V249.37L201.026 253.836H204.204Z" fill="#1A1D29"/>
    <path d="M236.13 255.922L239.882 252.24C240.339 251.792 240.661 251.4 240.848 251.064C241.044 250.719 241.142 250.345 241.142 249.944C241.142 249.459 240.983 249.071 240.666 248.782C240.348 248.483 239.924 248.334 239.392 248.334C238.878 248.334 238.458 248.483 238.132 248.782C237.814 249.071 237.656 249.473 237.656 249.986C237.656 250.229 237.693 250.448 237.768 250.644L236.326 250.91C236.204 250.602 236.144 250.257 236.144 249.874C236.144 249.37 236.274 248.899 236.536 248.46C236.806 248.021 237.189 247.671 237.684 247.41C238.178 247.139 238.752 247.004 239.406 247.004C240.078 247.004 240.652 247.125 241.128 247.368C241.613 247.611 241.982 247.942 242.234 248.362C242.486 248.782 242.612 249.258 242.612 249.79C242.612 250.415 242.486 250.975 242.234 251.47C241.982 251.965 241.529 252.529 240.876 253.164L238.412 255.586H242.64V257H236.13V255.922ZM247.421 257.196C246.73 257.196 246.128 257.07 245.615 256.818C245.101 256.557 244.709 256.216 244.439 255.796C244.168 255.376 244.033 254.923 244.033 254.438C244.033 254.177 244.079 253.929 244.173 253.696L245.601 254.032C245.563 254.163 245.545 254.293 245.545 254.424C245.545 254.891 245.713 255.255 246.049 255.516C246.394 255.777 246.851 255.908 247.421 255.908C248.055 255.908 248.569 255.707 248.961 255.306C249.353 254.905 249.549 254.359 249.549 253.668C249.549 252.996 249.362 252.469 248.989 252.086C248.615 251.703 248.107 251.512 247.463 251.512C247.033 251.512 246.623 251.638 246.231 251.89C245.848 252.142 245.545 252.464 245.321 252.856L244.117 252.534L244.593 247.2H250.459V248.586H245.671L245.377 251.358C245.666 251.013 246.021 250.751 246.441 250.574C246.861 250.397 247.285 250.308 247.715 250.308C248.779 250.308 249.6 250.616 250.179 251.232C250.767 251.839 251.061 252.651 251.061 253.668C251.061 254.34 250.907 254.942 250.599 255.474C250.291 256.006 249.861 256.426 249.311 256.734C248.76 257.042 248.13 257.196 247.421 257.196Z" fill="#1A1D29"/>
    <path d="M280.34 255.922L284.092 252.24C284.55 251.792 284.872 251.4 285.058 251.064C285.254 250.719 285.352 250.345 285.352 249.944C285.352 249.459 285.194 249.071 284.876 248.782C284.559 248.483 284.134 248.334 283.602 248.334C283.089 248.334 282.669 248.483 282.342 248.782C282.025 249.071 281.866 249.473 281.866 249.986C281.866 250.229 281.904 250.448 281.978 250.644L280.536 250.91C280.415 250.602 280.354 250.257 280.354 249.874C280.354 249.37 280.485 248.899 280.746 248.46C281.017 248.021 281.4 247.671 281.894 247.41C282.389 247.139 282.963 247.004 283.616 247.004C284.288 247.004 284.862 247.125 285.338 247.368C285.824 247.611 286.192 247.942 286.444 248.362C286.696 248.782 286.822 249.258 286.822 249.79C286.822 250.415 286.696 250.975 286.444 251.47C286.192 251.965 285.74 252.529 285.086 253.164L282.622 255.586H286.85V257H280.34V255.922ZM291.911 257.196C291.155 257.196 290.497 257.019 289.937 256.664C289.377 256.309 288.943 255.791 288.635 255.11C288.337 254.429 288.187 253.617 288.187 252.674C288.187 251.498 288.379 250.425 288.761 249.454C289.088 248.67 289.541 248.068 290.119 247.648C290.698 247.219 291.361 247.004 292.107 247.004C292.705 247.004 293.227 247.107 293.675 247.312C294.123 247.508 294.464 247.788 294.697 248.152C294.94 248.507 295.061 248.917 295.061 249.384C295.061 249.636 295.015 249.893 294.921 250.154L293.521 249.846C293.587 249.678 293.619 249.515 293.619 249.356C293.619 248.992 293.484 248.707 293.213 248.502C292.952 248.297 292.583 248.194 292.107 248.194C291.389 248.194 290.81 248.535 290.371 249.216C289.942 249.897 289.695 250.77 289.629 251.834C289.919 251.442 290.283 251.139 290.721 250.924C291.169 250.7 291.645 250.588 292.149 250.588C292.784 250.588 293.349 250.728 293.843 251.008C294.347 251.288 294.739 251.675 295.019 252.17C295.309 252.665 295.453 253.225 295.453 253.85C295.453 254.466 295.299 255.031 294.991 255.544C294.693 256.057 294.273 256.463 293.731 256.762C293.19 257.051 292.583 257.196 291.911 257.196ZM291.897 255.95C292.485 255.95 292.98 255.768 293.381 255.404C293.783 255.031 293.983 254.527 293.983 253.892C293.983 253.257 293.783 252.758 293.381 252.394C292.98 252.021 292.485 251.834 291.897 251.834C291.309 251.834 290.81 252.021 290.399 252.394C289.998 252.767 289.797 253.267 289.797 253.892C289.797 254.517 289.998 255.017 290.399 255.39C290.81 255.763 291.309 255.95 291.897 255.95Z" fill="#1A1D29"/>
    <path d="M15.2755 303.922L19.0275 300.24C19.4848 299.792 19.8068 299.4 19.9935 299.064C20.1895 298.719 20.2875 298.345 20.2875 297.944C20.2875 297.459 20.1288 297.071 19.8115 296.782C19.4941 296.483 19.0695 296.334 18.5375 296.334C18.0241 296.334 17.6041 296.483 17.2775 296.782C16.9601 297.071 16.8015 297.473 16.8015 297.986C16.8015 298.229 16.8388 298.448 16.9135 298.644L15.4715 298.91C15.3501 298.602 15.2895 298.257 15.2895 297.874C15.2895 297.37 15.4201 296.899 15.6815 296.46C15.9521 296.021 16.3348 295.671 16.8295 295.41C17.3241 295.139 17.8981 295.004 18.5515 295.004C19.2235 295.004 19.7975 295.125 20.2735 295.368C20.7588 295.611 21.1275 295.942 21.3795 296.362C21.6315 296.782 21.7575 297.258 21.7575 297.79C21.7575 298.415 21.6315 298.975 21.3795 299.47C21.1275 299.965 20.6748 300.529 20.0215 301.164L17.5575 303.586H21.7855V305H15.2755V303.922ZM27.6377 296.586H22.6817V295.2H29.1637V296.502L25.3697 305H23.8717L27.6377 296.586Z" fill="#1A1D29"/>
    <path d="M59.1442 303.922L62.8962 300.24C63.3535 299.792 63.6755 299.4 63.8622 299.064C64.0582 298.719 64.1562 298.345 64.1562 297.944C64.1562 297.459 63.9975 297.071 63.6802 296.782C63.3629 296.483 62.9382 296.334 62.4062 296.334C61.8929 296.334 61.4729 296.483 61.1462 296.782C60.8289 297.071 60.6702 297.473 60.6702 297.986C60.6702 298.229 60.7075 298.448 60.7822 298.644L59.3402 298.91C59.2189 298.602 59.1582 298.257 59.1582 297.874C59.1582 297.37 59.2889 296.899 59.5502 296.46C59.8209 296.021 60.2035 295.671 60.6982 295.41C61.1929 295.139 61.7669 295.004 62.4202 295.004C63.0922 295.004 63.6662 295.125 64.1422 295.368C64.6275 295.611 64.9962 295.942 65.2482 296.362C65.5002 296.782 65.6262 297.258 65.6262 297.79C65.6262 298.415 65.5002 298.975 65.2482 299.47C64.9962 299.965 64.5435 300.529 63.8902 301.164L61.4262 303.586H65.6542V305H59.1442V303.922ZM70.3252 305.196C69.6532 305.196 69.0605 305.075 68.5472 304.832C68.0338 304.589 67.6325 304.249 67.3432 303.81C67.0632 303.371 66.9232 302.863 66.9232 302.284C66.9232 301.705 67.0725 301.197 67.3712 300.758C67.6792 300.319 68.0852 299.983 68.5892 299.75C68.1598 299.526 67.8238 299.227 67.5812 298.854C67.3478 298.471 67.2312 298.042 67.2312 297.566C67.2312 297.071 67.3618 296.633 67.6232 296.25C67.8938 295.858 68.2625 295.555 68.7292 295.34C69.1958 295.116 69.7278 295.004 70.3252 295.004C70.9225 295.004 71.4545 295.116 71.9212 295.34C72.3878 295.555 72.7518 295.858 73.0132 296.25C73.2838 296.633 73.4192 297.071 73.4192 297.566C73.4192 298.042 73.2978 298.471 73.0552 298.854C72.8218 299.227 72.4905 299.526 72.0612 299.75C72.5652 299.983 72.9665 300.319 73.2652 300.758C73.5732 301.197 73.7272 301.705 73.7272 302.284C73.7272 302.863 73.5825 303.371 73.2932 303.81C73.0132 304.249 72.6165 304.589 72.1032 304.832C71.5898 305.075 70.9972 305.196 70.3252 305.196ZM70.3252 299.19C70.8012 299.19 71.1932 299.055 71.5012 298.784C71.8185 298.504 71.9772 298.131 71.9772 297.664C71.9772 297.197 71.8185 296.829 71.5012 296.558C71.1838 296.287 70.7918 296.152 70.3252 296.152C69.8585 296.152 69.4665 296.287 69.1492 296.558C68.8318 296.829 68.6732 297.197 68.6732 297.664C68.6732 298.131 68.8272 298.504 69.1352 298.784C69.4525 299.055 69.8492 299.19 70.3252 299.19ZM70.3252 303.95C70.8852 303.95 71.3425 303.787 71.6972 303.46C72.0612 303.124 72.2432 302.699 72.2432 302.186C72.2432 301.673 72.0565 301.253 71.6832 300.926C71.3192 300.59 70.8665 300.422 70.3252 300.422C69.7838 300.422 69.3265 300.59 68.9532 300.926C68.5892 301.253 68.4072 301.673 68.4072 302.186C68.4072 302.699 68.5845 303.124 68.9392 303.46C69.3032 303.787 69.7652 303.95 70.3252 303.95Z" fill="#1A1D29"/>
    <circle cx="66.4286" cy="321" r="3" fill="#FF9844"/>
    <path d="M110.82 297.118C110.568 297.379 110.283 297.561 109.966 297.664C109.648 297.767 109.247 297.818 108.762 297.818V296.432C109.312 296.432 109.756 296.334 110.092 296.138C110.437 295.933 110.717 295.62 110.932 295.2H112.318V305H110.82V297.118Z" fill="#AAA7CC"/>
    <path d="M151.626 303.922L155.378 300.24C155.835 299.792 156.157 299.4 156.344 299.064C156.54 298.719 156.638 298.345 156.638 297.944C156.638 297.459 156.479 297.071 156.162 296.782C155.844 296.483 155.42 296.334 154.888 296.334C154.374 296.334 153.954 296.483 153.628 296.782C153.31 297.071 153.152 297.473 153.152 297.986C153.152 298.229 153.189 298.448 153.264 298.644L151.822 298.91C151.7 298.602 151.64 298.257 151.64 297.874C151.64 297.37 151.77 296.899 152.032 296.46C152.302 296.021 152.685 295.671 153.18 295.41C153.674 295.139 154.248 295.004 154.902 295.004C155.574 295.004 156.148 295.125 156.624 295.368C157.109 295.611 157.478 295.942 157.73 296.362C157.982 296.782 158.108 297.258 158.108 297.79C158.108 298.415 157.982 298.975 157.73 299.47C157.478 299.965 157.025 300.529 156.372 301.164L153.908 303.586H158.136V305H151.626V303.922Z" fill="#AAA7CC"/>
    <path d="M199.308 305.196C198.599 305.196 197.983 305.061 197.46 304.79C196.947 304.519 196.555 304.165 196.284 303.726C196.014 303.278 195.878 302.797 195.878 302.284C195.878 301.957 195.93 301.677 196.032 301.444L197.46 301.794C197.414 301.915 197.39 302.069 197.39 302.256C197.39 302.741 197.568 303.138 197.922 303.446C198.277 303.754 198.739 303.908 199.308 303.908C199.878 303.908 200.34 303.754 200.694 303.446C201.058 303.129 201.24 302.69 201.24 302.13C201.24 301.523 200.998 301.075 200.512 300.786C200.027 300.487 199.392 300.338 198.608 300.338V299.162C199.327 299.162 199.873 299.017 200.246 298.728C200.62 298.439 200.806 298.061 200.806 297.594C200.806 297.183 200.662 296.857 200.372 296.614C200.092 296.371 199.71 296.25 199.224 296.25C198.758 296.25 198.37 296.381 198.062 296.642C197.754 296.894 197.6 297.225 197.6 297.636C197.6 297.804 197.628 297.953 197.684 298.084L196.284 298.378C196.2 298.126 196.158 297.883 196.158 297.65C196.158 297.174 196.284 296.735 196.536 296.334C196.798 295.933 197.162 295.611 197.628 295.368C198.095 295.125 198.632 295.004 199.238 295.004C200.209 295.004 200.956 295.228 201.478 295.676C202.01 296.115 202.276 296.689 202.276 297.398C202.276 297.893 202.136 298.341 201.856 298.742C201.586 299.143 201.212 299.437 200.736 299.624C201.324 299.801 201.805 300.1 202.178 300.52C202.561 300.94 202.752 301.467 202.752 302.102C202.752 302.727 202.603 303.273 202.304 303.74C202.015 304.207 201.609 304.566 201.086 304.818C200.564 305.07 199.971 305.196 199.308 305.196Z" fill="#AAA7CC"/>
    <path d="M244.785 303.222H240.011V301.836L244.785 295.2H246.297V301.836H247.333V303.222H246.297V305H244.785V303.222ZM244.785 301.836V297.37L241.607 301.836H244.785Z" fill="#AAA7CC"/>
    <path d="M287.769 305.196C287.078 305.196 286.476 305.07 285.963 304.818C285.45 304.557 285.058 304.216 284.787 303.796C284.516 303.376 284.381 302.923 284.381 302.438C284.381 302.177 284.428 301.929 284.521 301.696L285.949 302.032C285.912 302.163 285.893 302.293 285.893 302.424C285.893 302.891 286.061 303.255 286.397 303.516C286.742 303.777 287.2 303.908 287.769 303.908C288.404 303.908 288.917 303.707 289.309 303.306C289.701 302.905 289.897 302.359 289.897 301.668C289.897 300.996 289.71 300.469 289.337 300.086C288.964 299.703 288.455 299.512 287.811 299.512C287.382 299.512 286.971 299.638 286.579 299.89C286.196 300.142 285.893 300.464 285.669 300.856L284.465 300.534L284.941 295.2H290.807V296.586H286.019L285.725 299.358C286.014 299.013 286.369 298.751 286.789 298.574C287.209 298.397 287.634 298.308 288.063 298.308C289.127 298.308 289.948 298.616 290.527 299.232C291.115 299.839 291.409 300.651 291.409 301.668C291.409 302.34 291.255 302.942 290.947 303.474C290.639 304.006 290.21 304.426 289.659 304.734C289.108 305.042 288.478 305.196 287.769 305.196Z" fill="#AAA7CC"/>
    <path d="M22.2596 353.196C21.5036 353.196 20.8456 353.019 20.2856 352.664C19.7256 352.309 19.2916 351.791 18.9836 351.11C18.6849 350.429 18.5356 349.617 18.5356 348.674C18.5356 347.498 18.7269 346.425 19.1096 345.454C19.4362 344.67 19.8889 344.068 20.4676 343.648C21.0462 343.219 21.7089 343.004 22.4556 343.004C23.0529 343.004 23.5756 343.107 24.0236 343.312C24.4716 343.508 24.8122 343.788 25.0456 344.152C25.2882 344.507 25.4096 344.917 25.4096 345.384C25.4096 345.636 25.3629 345.893 25.2696 346.154L23.8696 345.846C23.9349 345.678 23.9676 345.515 23.9676 345.356C23.9676 344.992 23.8322 344.707 23.5616 344.502C23.3002 344.297 22.9316 344.194 22.4556 344.194C21.7369 344.194 21.1582 344.535 20.7196 345.216C20.2902 345.897 20.0429 346.77 19.9776 347.834C20.2669 347.442 20.6309 347.139 21.0696 346.924C21.5176 346.7 21.9936 346.588 22.4976 346.588C23.1322 346.588 23.6969 346.728 24.1916 347.008C24.6956 347.288 25.0876 347.675 25.3676 348.17C25.6569 348.665 25.8016 349.225 25.8016 349.85C25.8016 350.466 25.6476 351.031 25.3396 351.544C25.0409 352.057 24.6209 352.463 24.0796 352.762C23.5382 353.051 22.9316 353.196 22.2596 353.196ZM22.2456 351.95C22.8336 351.95 23.3282 351.768 23.7296 351.404C24.1309 351.031 24.3316 350.527 24.3316 349.892C24.3316 349.257 24.1309 348.758 23.7296 348.394C23.3282 348.021 22.8336 347.834 22.2456 347.834C21.6576 347.834 21.1582 348.021 20.7476 348.394C20.3462 348.767 20.1456 349.267 20.1456 349.892C20.1456 350.517 20.3462 351.017 20.7476 351.39C21.1582 351.763 21.6576 351.95 22.2456 351.95Z" fill="#AAA7CC"/>
    <path d="M68.1363 344.586H63.1803V343.2H69.6623V344.502L65.8683 353H64.3703L68.1363 344.586Z" fill="#AAA7CC"/>
    <path d="M110.714 353.196C110.042 353.196 109.45 353.075 108.936 352.832C108.423 352.589 108.022 352.249 107.732 351.81C107.452 351.371 107.312 350.863 107.312 350.284C107.312 349.705 107.462 349.197 107.76 348.758C108.068 348.319 108.474 347.983 108.978 347.75C108.549 347.526 108.213 347.227 107.97 346.854C107.737 346.471 107.62 346.042 107.62 345.566C107.62 345.071 107.751 344.633 108.012 344.25C108.283 343.858 108.652 343.555 109.118 343.34C109.585 343.116 110.117 343.004 110.714 343.004C111.312 343.004 111.844 343.116 112.31 343.34C112.777 343.555 113.141 343.858 113.402 344.25C113.673 344.633 113.808 345.071 113.808 345.566C113.808 346.042 113.687 346.471 113.444 346.854C113.211 347.227 112.88 347.526 112.45 347.75C112.954 347.983 113.356 348.319 113.654 348.758C113.962 349.197 114.116 349.705 114.116 350.284C114.116 350.863 113.972 351.371 113.682 351.81C113.402 352.249 113.006 352.589 112.492 352.832C111.979 353.075 111.386 353.196 110.714 353.196ZM110.714 347.19C111.19 347.19 111.582 347.055 111.89 346.784C112.208 346.504 112.366 346.131 112.366 345.664C112.366 345.197 112.208 344.829 111.89 344.558C111.573 344.287 111.181 344.152 110.714 344.152C110.248 344.152 109.856 344.287 109.538 344.558C109.221 344.829 109.062 345.197 109.062 345.664C109.062 346.131 109.216 346.504 109.524 346.784C109.842 347.055 110.238 347.19 110.714 347.19ZM110.714 351.95C111.274 351.95 111.732 351.787 112.086 351.46C112.45 351.124 112.632 350.699 112.632 350.186C112.632 349.673 112.446 349.253 112.072 348.926C111.708 348.59 111.256 348.422 110.714 348.422C110.173 348.422 109.716 348.59 109.342 348.926C108.978 349.253 108.796 349.673 108.796 350.186C108.796 350.699 108.974 351.124 109.328 351.46C109.692 351.787 110.154 351.95 110.714 351.95Z" fill="#AAA7CC"/>
    <path d="M154.683 353.196C154.067 353.196 153.535 353.093 153.087 352.888C152.639 352.673 152.298 352.384 152.065 352.02C151.831 351.656 151.715 351.245 151.715 350.788C151.715 350.545 151.757 350.298 151.841 350.046L153.255 350.368C153.189 350.564 153.157 350.723 153.157 350.844C153.157 351.208 153.297 351.493 153.577 351.698C153.866 351.903 154.249 352.006 154.725 352.006C155.425 352.006 155.985 351.684 156.405 351.04C156.834 350.396 157.086 349.509 157.161 348.38C156.937 348.753 156.615 349.052 156.195 349.276C155.775 349.5 155.289 349.612 154.739 349.612C154.085 349.612 153.502 349.472 152.989 349.192C152.475 348.912 152.069 348.525 151.771 348.03C151.481 347.535 151.337 346.975 151.337 346.35C151.337 345.725 151.486 345.16 151.785 344.656C152.093 344.143 152.513 343.741 153.045 343.452C153.586 343.153 154.197 343.004 154.879 343.004C156.073 343.004 156.993 343.401 157.637 344.194C158.281 344.978 158.603 346.089 158.603 347.526C158.603 348.702 158.407 349.789 158.015 350.788C157.716 351.553 157.273 352.146 156.685 352.566C156.106 352.986 155.439 353.196 154.683 353.196ZM154.907 348.366C155.28 348.366 155.625 348.287 155.943 348.128C156.269 347.96 156.526 347.722 156.713 347.414C156.909 347.097 157.007 346.728 157.007 346.308C157.007 345.888 156.909 345.524 156.713 345.216C156.526 344.899 156.269 344.661 155.943 344.502C155.625 344.334 155.28 344.25 154.907 344.25C154.533 344.25 154.183 344.334 153.857 344.502C153.539 344.661 153.283 344.899 153.087 345.216C152.9 345.524 152.807 345.888 152.807 346.308C152.807 346.728 152.9 347.097 153.087 347.414C153.283 347.722 153.539 347.96 153.857 348.128C154.183 348.287 154.533 348.366 154.907 348.366Z" fill="#AAA7CC"/>
    <path d="M194.373 345.118C194.121 345.379 193.837 345.561 193.519 345.664C193.202 345.767 192.801 345.818 192.315 345.818V344.432C192.866 344.432 193.309 344.334 193.645 344.138C193.991 343.933 194.271 343.62 194.485 343.2H195.871V353H194.373V345.118ZM201.919 353.196C201.079 353.196 200.327 352.986 199.665 352.566C199.011 352.137 198.498 351.539 198.125 350.774C197.761 349.999 197.579 349.108 197.579 348.1C197.579 347.092 197.761 346.205 198.125 345.44C198.498 344.665 199.011 344.068 199.665 343.648C200.327 343.219 201.079 343.004 201.919 343.004C202.759 343.004 203.505 343.219 204.159 343.648C204.821 344.068 205.339 344.665 205.713 345.44C206.086 346.205 206.273 347.092 206.273 348.1C206.273 349.108 206.086 349.999 205.713 350.774C205.339 351.539 204.821 352.137 204.159 352.566C203.505 352.986 202.759 353.196 201.919 353.196ZM201.919 351.81C202.469 351.81 202.959 351.661 203.389 351.362C203.818 351.063 204.154 350.634 204.397 350.074C204.639 349.514 204.761 348.856 204.761 348.1C204.761 347.344 204.639 346.686 204.397 346.126C204.154 345.566 203.818 345.137 203.389 344.838C202.959 344.539 202.469 344.39 201.919 344.39C201.368 344.39 200.878 344.539 200.449 344.838C200.019 345.137 199.683 345.566 199.441 346.126C199.198 346.686 199.077 347.344 199.077 348.1C199.077 348.856 199.198 349.514 199.441 350.074C199.683 350.634 200.019 351.063 200.449 351.362C200.878 351.661 201.368 351.81 201.919 351.81Z" fill="#AAA7CC"/>
    <circle cx="199.286" cy="369" r="3" fill="#FF9844"/>
    <path d="M241.038 345.118C240.786 345.379 240.501 345.561 240.184 345.664C239.867 345.767 239.465 345.818 238.98 345.818V344.432C239.531 344.432 239.974 344.334 240.31 344.138C240.655 343.933 240.935 343.62 241.15 343.2H242.536V353H241.038V345.118ZM246.315 345.118C246.063 345.379 245.779 345.561 245.461 345.664C245.144 345.767 244.743 345.818 244.257 345.818V344.432C244.808 344.432 245.251 344.334 245.587 344.138C245.933 343.933 246.213 343.62 246.427 343.2H247.813V353H246.315V345.118Z" fill="#AAA7CC"/>
    <path d="M283.888 345.118C283.636 345.379 283.352 345.561 283.034 345.664C282.717 345.767 282.316 345.818 281.83 345.818V344.432C282.381 344.432 282.824 344.334 283.16 344.138C283.506 343.933 283.786 343.62 284 343.2H285.386V353H283.888V345.118ZM287.122 351.922L290.874 348.24C291.331 347.792 291.653 347.4 291.84 347.064C292.036 346.719 292.134 346.345 292.134 345.944C292.134 345.459 291.975 345.071 291.658 344.782C291.34 344.483 290.916 344.334 290.384 344.334C289.87 344.334 289.45 344.483 289.124 344.782C288.806 345.071 288.648 345.473 288.648 345.986C288.648 346.229 288.685 346.448 288.76 346.644L287.318 346.91C287.196 346.602 287.136 346.257 287.136 345.874C287.136 345.37 287.266 344.899 287.528 344.46C287.798 344.021 288.181 343.671 288.676 343.41C289.17 343.139 289.744 343.004 290.398 343.004C291.07 343.004 291.644 343.125 292.12 343.368C292.605 343.611 292.974 343.942 293.226 344.362C293.478 344.782 293.604 345.258 293.604 345.79C293.604 346.415 293.478 346.975 293.226 347.47C292.974 347.965 292.521 348.529 291.868 349.164L289.404 351.586H293.632V353H287.122V351.922Z" fill="#AAA7CC"/>
</svg>
