<svg width="713" height="376" viewBox="0 0 713 376" fill="none" xmlns="http://www.w3.org/2000/svg">
    <path d="M12.248 12.586H9.238V11.2H16.77V12.586H13.76V21H12.248V12.586ZM19.4851 21.196C18.8505 21.196 18.2625 21.042 17.7211 20.734C17.1891 20.426 16.7645 19.992 16.4471 19.432C16.1298 18.872 15.9711 18.2373 15.9711 17.528C15.9711 16.8187 16.1298 16.1887 16.4471 15.638C16.7645 15.078 17.1938 14.644 17.7351 14.336C18.2858 14.0187 18.8925 13.86 19.5551 13.86C20.2178 13.86 20.8011 14.0093 21.3051 14.308C21.8185 14.5973 22.2151 15.008 22.4951 15.54C22.7751 16.0627 22.9151 16.66 22.9151 17.332V17.836H17.3711C17.4178 18.4613 17.6371 18.97 18.0291 19.362C18.4211 19.754 18.9158 19.95 19.5131 19.95C20.0265 19.95 20.4511 19.8333 20.7871 19.6C21.1231 19.3573 21.4078 19.0073 21.6411 18.55L22.7051 19.166C22.3691 19.8473 21.9398 20.356 21.4171 20.692C20.8945 21.028 20.2505 21.196 19.4851 21.196ZM21.5291 16.702C21.4731 16.17 21.2585 15.7547 20.8851 15.456C20.5118 15.148 20.0545 14.994 19.5131 14.994C18.9905 14.994 18.5378 15.1573 18.1551 15.484C17.7725 15.8013 17.5205 16.2073 17.3991 16.702H21.5291ZM24.4028 11.2H25.8588V21H24.4028V11.2ZM30.8328 21.196C30.1981 21.196 29.6101 21.042 29.0688 20.734C28.5368 20.426 28.1121 19.992 27.7948 19.432C27.4774 18.872 27.3188 18.2373 27.3188 17.528C27.3188 16.8187 27.4774 16.1887 27.7948 15.638C28.1121 15.078 28.5414 14.644 29.0828 14.336C29.6334 14.0187 30.2401 13.86 30.9028 13.86C31.5654 13.86 32.1488 14.0093 32.6528 14.308C33.1661 14.5973 33.5628 15.008 33.8428 15.54C34.1228 16.0627 34.2628 16.66 34.2628 17.332V17.836H28.7188C28.7654 18.4613 28.9848 18.97 29.3768 19.362C29.7688 19.754 30.2634 19.95 30.8608 19.95C31.3741 19.95 31.7988 19.8333 32.1348 19.6C32.4708 19.3573 32.7554 19.0073 32.9888 18.55L34.0528 19.166C33.7168 19.8473 33.2874 20.356 32.7648 20.692C32.2421 21.028 31.5981 21.196 30.8328 21.196ZM32.8768 16.702C32.8208 16.17 32.6061 15.7547 32.2328 15.456C31.8594 15.148 31.4021 14.994 30.8608 14.994C30.3381 14.994 29.8854 15.1573 29.5028 15.484C29.1201 15.8013 28.8681 16.2073 28.7468 16.702H32.8768ZM38.8585 24.052C37.8505 24.052 37.0618 23.8513 36.4925 23.45C35.9325 23.0487 35.6525 22.5073 35.6525 21.826C35.6525 21.546 35.7178 21.2893 35.8485 21.056L37.2205 21.476C37.1552 21.644 37.1225 21.8073 37.1225 21.966C37.1225 22.246 37.2765 22.47 37.5845 22.638C37.8925 22.806 38.3172 22.89 38.8585 22.89C40.1465 22.89 40.7905 22.1527 40.7905 20.678V19.726C40.5758 20.0807 40.2865 20.3653 39.9225 20.58C39.5678 20.7853 39.1385 20.888 38.6345 20.888C38.0278 20.888 37.4725 20.7433 36.9685 20.454C36.4645 20.1553 36.0632 19.74 35.7645 19.208C35.4752 18.676 35.3305 18.0647 35.3305 17.374C35.3305 16.6833 35.4798 16.072 35.7785 15.54C36.0865 14.9987 36.4925 14.5833 36.9965 14.294C37.5098 14.0047 38.0605 13.86 38.6485 13.86C39.1245 13.86 39.5445 13.958 39.9085 14.154C40.2818 14.3407 40.5758 14.602 40.7905 14.938V14.056H42.2325V20.538C42.2325 21.6673 41.9338 22.5353 41.3365 23.142C40.7392 23.7487 39.9132 24.052 38.8585 24.052ZM38.8025 19.628C39.3998 19.628 39.8945 19.4273 40.2865 19.026C40.6878 18.6153 40.8885 18.0647 40.8885 17.374C40.8885 16.6833 40.6878 16.1373 40.2865 15.736C39.8945 15.3253 39.3998 15.12 38.8025 15.12C38.2052 15.12 37.7152 15.3253 37.3325 15.736C36.9498 16.1373 36.7585 16.6833 36.7585 17.374C36.7585 18.0647 36.9498 18.6153 37.3325 19.026C37.7152 19.4273 38.2052 19.628 38.8025 19.628ZM44.0083 14.056H45.4643V15.232C45.651 14.812 45.9123 14.4807 46.2483 14.238C46.5936 13.986 46.981 13.86 47.4103 13.86C47.6156 13.86 47.8163 13.888 48.0123 13.944L47.7743 15.288C47.597 15.2227 47.4103 15.19 47.2143 15.19C46.701 15.19 46.281 15.4093 45.9543 15.848C45.6276 16.2773 45.4643 16.8093 45.4643 17.444V21H44.0083V14.056ZM50.8645 21.196C50.1738 21.196 49.6138 21 49.1845 20.608C48.7552 20.2067 48.5405 19.684 48.5405 19.04C48.5405 18.3867 48.7645 17.8733 49.2125 17.5C49.6698 17.1267 50.2532 16.884 50.9625 16.772L53.1745 16.422V16.142C53.1745 15.7407 53.0485 15.4373 52.7965 15.232C52.5538 15.0267 52.1992 14.924 51.7325 14.924C51.2752 14.924 50.9158 15.0173 50.6545 15.204C50.4025 15.3813 50.2765 15.6053 50.2765 15.876C50.2765 15.9413 50.2858 16.002 50.3045 16.058L49.0305 16.492C48.9558 16.3147 48.9185 16.1233 48.9185 15.918C48.9185 15.554 49.0305 15.218 49.2545 14.91C49.4878 14.5927 49.8192 14.3407 50.2485 14.154C50.6778 13.958 51.1725 13.86 51.7325 13.86C52.6658 13.86 53.3798 14.0653 53.8745 14.476C54.3785 14.8867 54.6305 15.484 54.6305 16.268V19.278C54.6305 19.67 54.6632 19.992 54.7285 20.244C54.7938 20.4867 54.9105 20.7387 55.0785 21H53.6085C53.3565 20.6733 53.2305 20.2627 53.2305 19.768C53.0158 20.216 52.6938 20.566 52.2645 20.818C51.8445 21.07 51.3778 21.196 50.8645 21.196ZM51.1725 19.992C51.7698 19.992 52.2505 19.7773 52.6145 19.348C52.9878 18.9093 53.1745 18.3493 53.1745 17.668V17.472L51.2845 17.794C50.8552 17.8687 50.5238 18.004 50.2905 18.2C50.0665 18.396 49.9545 18.6527 49.9545 18.97C49.9545 19.2873 50.0618 19.5393 50.2765 19.726C50.5005 19.9033 50.7992 19.992 51.1725 19.992ZM56.436 14.056H57.892V15.064C58.116 14.6813 58.41 14.3873 58.774 14.182C59.138 13.9673 59.5254 13.86 59.936 13.86C60.412 13.86 60.8134 13.972 61.14 14.196C61.476 14.4107 61.714 14.7187 61.854 15.12C62.0874 14.728 62.4 14.42 62.792 14.196C63.1934 13.972 63.618 13.86 64.066 13.86C64.7474 13.86 65.2794 14.056 65.662 14.448C66.054 14.84 66.25 15.372 66.25 16.044V21H64.808V16.478C64.808 15.5727 64.402 15.12 63.59 15.12C63.1514 15.12 62.7874 15.302 62.498 15.666C62.2087 16.0207 62.064 16.534 62.064 17.206V21H60.622V16.52C60.622 16.072 60.5194 15.7267 60.314 15.484C60.1087 15.2413 59.8054 15.12 59.404 15.12C58.984 15.12 58.6247 15.302 58.326 15.666C58.0367 16.03 57.892 16.5293 57.892 17.164V21H56.436V14.056Z" fill="#38405B"/>
    <path d="M78.62 19.476H74.528V18.288L78.62 12.6H79.916V18.288H80.804V19.476H79.916V21H78.62V19.476ZM78.62 18.288V14.46L75.896 18.288H78.62ZM83.3989 14.244C83.1829 14.468 82.9389 14.624 82.6669 14.712C82.3949 14.8 82.0509 14.844 81.6349 14.844V13.656C82.1069 13.656 82.4869 13.572 82.7749 13.404C83.0709 13.228 83.3109 12.96 83.4949 12.6H84.6829V21H83.3989V14.244ZM89.2663 21.168C88.6743 21.168 88.1583 21.06 87.7183 20.844C87.2783 20.62 86.9423 20.328 86.7103 19.968C86.4783 19.608 86.3623 19.22 86.3623 18.804C86.3623 18.58 86.4023 18.368 86.4823 18.168L87.7063 18.456C87.6743 18.568 87.6583 18.68 87.6583 18.792C87.6583 19.192 87.8023 19.504 88.0903 19.728C88.3863 19.952 88.7783 20.064 89.2663 20.064C89.8103 20.064 90.2503 19.892 90.5863 19.548C90.9223 19.204 91.0903 18.736 91.0903 18.144C91.0903 17.568 90.9303 17.116 90.6103 16.788C90.2903 16.46 89.8543 16.296 89.3023 16.296C88.9343 16.296 88.5823 16.404 88.2463 16.62C87.9183 16.836 87.6583 17.112 87.4663 17.448L86.4343 17.172L86.8423 12.6H91.8703V13.788H87.7663L87.5143 16.164C87.7623 15.868 88.0663 15.644 88.4263 15.492C88.7863 15.34 89.1503 15.264 89.5183 15.264C90.4303 15.264 91.1343 15.528 91.6303 16.056C92.1343 16.576 92.3863 17.272 92.3863 18.144C92.3863 18.72 92.2543 19.236 91.9903 19.692C91.7263 20.148 91.3583 20.508 90.8863 20.772C90.4143 21.036 89.8743 21.168 89.2663 21.168Z" fill="#6A6D8F"/>
    <rect x="1.5" y="0.5" width="101" height="31" rx="7.5" stroke="#EAEAFB"/>
    <rect x="111" width="90" height="32" rx="8" fill="#DAD9F7"/>
    <path d="M122.248 12.586H119.238V11.2H126.77V12.586H123.76V21H122.248V12.586ZM126.07 14.056H127.484L128.786 19.194L130.186 14.056H131.614L133 19.194L134.302 14.056H135.716L133.756 21H132.3L130.9 15.778L129.486 21H128.03L126.07 14.056ZM136.741 14.056H138.197V21H136.741V14.056ZM136.657 11.34H138.295V12.95H136.657V11.34ZM142.653 21.196C142.046 21.196 141.556 21.0327 141.183 20.706C140.809 20.37 140.623 19.8333 140.623 19.096V15.218H139.503V14.056H140.623V12.18H142.065V14.056H143.647V15.218H142.065V18.886C142.065 19.5767 142.373 19.922 142.989 19.922C143.175 19.922 143.362 19.894 143.549 19.838L143.689 21.028C143.371 21.14 143.026 21.196 142.653 21.196ZM147.643 21.196C147.036 21.196 146.546 21.0327 146.173 20.706C145.8 20.37 145.613 19.8333 145.613 19.096V15.218H144.493V14.056H145.613V12.18H147.055V14.056H148.637V15.218H147.055V18.886C147.055 19.5767 147.363 19.922 147.979 19.922C148.166 19.922 148.352 19.894 148.539 19.838L148.679 21.028C148.362 21.14 148.016 21.196 147.643 21.196ZM152.932 21.196C152.298 21.196 151.71 21.042 151.168 20.734C150.636 20.426 150.212 19.992 149.894 19.432C149.577 18.872 149.418 18.2373 149.418 17.528C149.418 16.8187 149.577 16.1887 149.894 15.638C150.212 15.078 150.641 14.644 151.182 14.336C151.733 14.0187 152.34 13.86 153.002 13.86C153.665 13.86 154.248 14.0093 154.752 14.308C155.266 14.5973 155.662 15.008 155.942 15.54C156.222 16.0627 156.362 16.66 156.362 17.332V17.836H150.818C150.865 18.4613 151.084 18.97 151.476 19.362C151.868 19.754 152.363 19.95 152.96 19.95C153.474 19.95 153.898 19.8333 154.234 19.6C154.57 19.3573 154.855 19.0073 155.088 18.55L156.152 19.166C155.816 19.8473 155.387 20.356 154.864 20.692C154.342 21.028 153.698 21.196 152.932 21.196ZM154.976 16.702C154.92 16.17 154.706 15.7547 154.332 15.456C153.959 15.148 153.502 14.994 152.96 14.994C152.438 14.994 151.985 15.1573 151.602 15.484C151.22 15.8013 150.968 16.2073 150.846 16.702H154.976ZM157.85 14.056H159.306V15.232C159.493 14.812 159.754 14.4807 160.09 14.238C160.435 13.986 160.823 13.86 161.252 13.86C161.457 13.86 161.658 13.888 161.854 13.944L161.616 15.288C161.439 15.2227 161.252 15.19 161.056 15.19C160.543 15.19 160.123 15.4093 159.796 15.848C159.469 16.2773 159.306 16.8093 159.306 17.444V21H157.85V14.056Z" fill="#1A1D29"/>
    <path d="M172.576 21.168C171.968 21.168 171.44 21.052 170.992 20.82C170.552 20.588 170.216 20.284 169.984 19.908C169.752 19.524 169.636 19.112 169.636 18.672C169.636 18.392 169.68 18.152 169.768 17.952L170.992 18.252C170.952 18.356 170.932 18.488 170.932 18.648C170.932 19.064 171.084 19.404 171.388 19.668C171.692 19.932 172.088 20.064 172.576 20.064C173.064 20.064 173.46 19.932 173.764 19.668C174.076 19.396 174.232 19.02 174.232 18.54C174.232 18.02 174.024 17.636 173.608 17.388C173.192 17.132 172.648 17.004 171.976 17.004V15.996C172.592 15.996 173.06 15.872 173.38 15.624C173.7 15.376 173.86 15.052 173.86 14.652C173.86 14.3 173.736 14.02 173.488 13.812C173.248 13.604 172.92 13.5 172.504 13.5C172.104 13.5 171.772 13.612 171.508 13.836C171.244 14.052 171.112 14.336 171.112 14.688C171.112 14.832 171.136 14.96 171.184 15.072L169.984 15.324C169.912 15.108 169.876 14.9 169.876 14.7C169.876 14.292 169.984 13.916 170.2 13.572C170.424 13.228 170.736 12.952 171.136 12.744C171.536 12.536 171.996 12.432 172.516 12.432C173.348 12.432 173.988 12.624 174.436 13.008C174.892 13.384 175.12 13.876 175.12 14.484C175.12 14.908 175 15.292 174.76 15.636C174.528 15.98 174.208 16.232 173.8 16.392C174.304 16.544 174.716 16.8 175.036 17.16C175.364 17.52 175.528 17.972 175.528 18.516C175.528 19.052 175.4 19.52 175.144 19.92C174.896 20.32 174.548 20.628 174.1 20.844C173.652 21.06 173.144 21.168 172.576 21.168ZM176.881 20.076L180.097 16.92C180.489 16.536 180.765 16.2 180.925 15.912C181.093 15.616 181.177 15.296 181.177 14.952C181.177 14.536 181.041 14.204 180.769 13.956C180.497 13.7 180.133 13.572 179.677 13.572C179.237 13.572 178.877 13.7 178.597 13.956C178.325 14.204 178.189 14.548 178.189 14.988C178.189 15.196 178.221 15.384 178.285 15.552L177.049 15.78C176.945 15.516 176.893 15.22 176.893 14.892C176.893 14.46 177.005 14.056 177.229 13.68C177.461 13.304 177.789 13.004 178.213 12.78C178.637 12.548 179.129 12.432 179.689 12.432C180.265 12.432 180.757 12.536 181.165 12.744C181.581 12.952 181.897 13.236 182.113 13.596C182.329 13.956 182.437 14.364 182.437 14.82C182.437 15.356 182.329 15.836 182.113 16.26C181.897 16.684 181.509 17.168 180.949 17.712L178.837 19.788H182.461V21H176.881V20.076ZM186.6 21.168C185.992 21.168 185.464 21.052 185.016 20.82C184.576 20.588 184.24 20.284 184.008 19.908C183.776 19.524 183.66 19.112 183.66 18.672C183.66 18.392 183.704 18.152 183.792 17.952L185.016 18.252C184.976 18.356 184.956 18.488 184.956 18.648C184.956 19.064 185.108 19.404 185.412 19.668C185.716 19.932 186.112 20.064 186.6 20.064C187.088 20.064 187.484 19.932 187.788 19.668C188.1 19.396 188.256 19.02 188.256 18.54C188.256 18.02 188.048 17.636 187.632 17.388C187.216 17.132 186.672 17.004 186 17.004V15.996C186.616 15.996 187.084 15.872 187.404 15.624C187.724 15.376 187.884 15.052 187.884 14.652C187.884 14.3 187.76 14.02 187.512 13.812C187.272 13.604 186.944 13.5 186.528 13.5C186.128 13.5 185.796 13.612 185.532 13.836C185.268 14.052 185.136 14.336 185.136 14.688C185.136 14.832 185.16 14.96 185.208 15.072L184.008 15.324C183.936 15.108 183.9 14.9 183.9 14.7C183.9 14.292 184.008 13.916 184.224 13.572C184.448 13.228 184.76 12.952 185.16 12.744C185.56 12.536 186.02 12.432 186.54 12.432C187.372 12.432 188.012 12.624 188.46 13.008C188.916 13.384 189.144 13.876 189.144 14.484C189.144 14.908 189.024 15.292 188.784 15.636C188.552 15.98 188.232 16.232 187.824 16.392C188.328 16.544 188.74 16.8 189.06 17.16C189.388 17.52 189.552 17.972 189.552 18.516C189.552 19.052 189.424 19.52 189.168 19.92C188.92 20.32 188.572 20.628 188.124 20.844C187.676 21.06 187.168 21.168 186.6 21.168Z" fill="#1A1D29"/>
    <path d="M218.106 11.2H220.92C221.928 11.2 222.819 11.3913 223.594 11.774C224.378 12.1473 224.989 12.7027 225.428 13.44C225.867 14.1773 226.086 15.064 226.086 16.1C226.086 17.136 225.867 18.0227 225.428 18.76C224.989 19.4973 224.378 20.0573 223.594 20.44C222.819 20.8133 221.928 21 220.92 21H218.106V11.2ZM220.962 19.614C222.063 19.614 222.936 19.3153 223.58 18.718C224.233 18.1207 224.56 17.248 224.56 16.1C224.56 14.952 224.233 14.0793 223.58 13.482C222.936 12.8847 222.063 12.586 220.962 12.586H219.618V19.614H220.962ZM227.713 14.056H229.169V21H227.713V14.056ZM227.629 11.34H229.267V12.95H227.629V11.34ZM233.533 21.196C232.759 21.196 232.115 21.0047 231.601 20.622C231.097 20.2393 230.719 19.7447 230.467 19.138L231.643 18.41C231.802 18.8953 232.045 19.278 232.371 19.558C232.698 19.838 233.095 19.978 233.561 19.978C233.935 19.978 234.243 19.8893 234.485 19.712C234.737 19.5253 234.863 19.2827 234.863 18.984C234.863 18.704 234.733 18.4847 234.471 18.326C234.219 18.158 233.809 18.0227 233.239 17.92C232.521 17.78 231.942 17.5373 231.503 17.192C231.074 16.8467 230.859 16.38 230.859 15.792C230.859 15.1947 231.097 14.7233 231.573 14.378C232.059 14.0327 232.651 13.86 233.351 13.86C234.07 13.86 234.649 14.0047 235.087 14.294C235.526 14.574 235.876 15.0033 236.137 15.582L235.073 16.212C234.915 15.8107 234.686 15.5027 234.387 15.288C234.098 15.064 233.762 14.952 233.379 14.952C233.025 14.952 232.731 15.022 232.497 15.162C232.264 15.2927 232.147 15.484 232.147 15.736C232.147 16.0067 232.292 16.2307 232.581 16.408C232.88 16.5853 233.319 16.73 233.897 16.842C234.681 17.0007 235.26 17.248 235.633 17.584C236.016 17.9107 236.207 18.3633 236.207 18.942C236.207 19.3527 236.1 19.7307 235.885 20.076C235.68 20.4213 235.372 20.6967 234.961 20.902C234.56 21.098 234.084 21.196 233.533 21.196ZM240.749 21.196C240.068 21.196 239.452 21.042 238.901 20.734C238.35 20.426 237.916 19.9967 237.599 19.446C237.291 18.886 237.137 18.2467 237.137 17.528C237.137 16.8187 237.3 16.1887 237.627 15.638C237.954 15.078 238.392 14.644 238.943 14.336C239.503 14.0187 240.105 13.86 240.749 13.86C241.496 13.86 242.126 14.0093 242.639 14.308C243.162 14.6067 243.549 15.0407 243.801 15.61L242.611 16.338C242.21 15.582 241.589 15.204 240.749 15.204C240.348 15.204 239.984 15.302 239.657 15.498C239.34 15.6847 239.088 15.9553 238.901 16.31C238.714 16.6553 238.621 17.0613 238.621 17.528C238.621 18.228 238.817 18.7927 239.209 19.222C239.61 19.642 240.124 19.852 240.749 19.852C241.216 19.852 241.598 19.754 241.897 19.558C242.196 19.362 242.457 19.068 242.681 18.676L243.843 19.39C243.134 20.594 242.102 21.196 240.749 21.196ZM248.408 21.196C247.755 21.196 247.143 21.056 246.574 20.776C246.005 20.4867 245.547 20.0667 245.202 19.516C244.857 18.956 244.684 18.2933 244.684 17.528C244.684 16.7627 244.857 16.1047 245.202 15.554C245.547 14.994 246.005 14.574 246.574 14.294C247.143 14.0047 247.755 13.86 248.408 13.86C249.052 13.86 249.659 14.0047 250.228 14.294C250.797 14.574 251.255 14.994 251.6 15.554C251.945 16.1047 252.118 16.7627 252.118 17.528C252.118 18.2933 251.945 18.956 251.6 19.516C251.255 20.0667 250.797 20.4867 250.228 20.776C249.659 21.056 249.052 21.196 248.408 21.196ZM248.408 19.866C248.809 19.866 249.183 19.7727 249.528 19.586C249.873 19.39 250.144 19.1147 250.34 18.76C250.545 18.4053 250.648 17.9947 250.648 17.528C250.648 17.0613 250.545 16.6507 250.34 16.296C250.144 15.9413 249.873 15.6707 249.528 15.484C249.183 15.288 248.809 15.19 248.408 15.19C247.997 15.19 247.619 15.288 247.274 15.484C246.938 15.6707 246.667 15.9413 246.462 16.296C246.257 16.6507 246.154 17.0613 246.154 17.528C246.154 17.9947 246.257 18.4053 246.462 18.76C246.667 19.1147 246.938 19.39 247.274 19.586C247.619 19.7727 247.997 19.866 248.408 19.866ZM253.581 14.056H255.037V15.232C255.223 14.812 255.485 14.4807 255.821 14.238C256.166 13.986 256.553 13.86 256.983 13.86C257.188 13.86 257.389 13.888 257.585 13.944L257.347 15.288C257.169 15.2227 256.983 15.19 256.787 15.19C256.273 15.19 255.853 15.4093 255.527 15.848C255.2 16.2773 255.037 16.8093 255.037 17.444V21H253.581V14.056ZM261.361 21.196C260.726 21.196 260.152 21.0467 259.639 20.748C259.126 20.44 258.72 20.0107 258.421 19.46C258.122 18.9 257.973 18.256 257.973 17.528C257.973 16.8093 258.127 16.1747 258.435 15.624C258.752 15.064 259.168 14.63 259.681 14.322C260.204 14.014 260.759 13.86 261.347 13.86C261.87 13.86 262.332 13.9673 262.733 14.182C263.134 14.3967 263.442 14.6907 263.657 15.064V11.2H265.113V21H263.657V19.894C263.452 20.2767 263.148 20.5893 262.747 20.832C262.346 21.0747 261.884 21.196 261.361 21.196ZM261.613 19.866C262.024 19.866 262.392 19.768 262.719 19.572C263.046 19.3667 263.302 19.0867 263.489 18.732C263.676 18.3773 263.769 17.976 263.769 17.528C263.769 17.08 263.676 16.6787 263.489 16.324C263.302 15.9693 263.046 15.694 262.719 15.498C262.392 15.2927 262.024 15.19 261.613 15.19C260.978 15.19 260.46 15.4093 260.059 15.848C259.658 16.2867 259.457 16.8467 259.457 17.528C259.457 18.2093 259.658 18.7693 260.059 19.208C260.46 19.6467 260.978 19.866 261.613 19.866Z" fill="#38405B"/>
    <path d="M273.6 20.076L276.816 16.92C277.208 16.536 277.484 16.2 277.644 15.912C277.812 15.616 277.896 15.296 277.896 14.952C277.896 14.536 277.76 14.204 277.488 13.956C277.216 13.7 276.852 13.572 276.396 13.572C275.956 13.572 275.596 13.7 275.316 13.956C275.044 14.204 274.908 14.548 274.908 14.988C274.908 15.196 274.94 15.384 275.004 15.552L273.768 15.78C273.664 15.516 273.612 15.22 273.612 14.892C273.612 14.46 273.724 14.056 273.948 13.68C274.18 13.304 274.508 13.004 274.932 12.78C275.356 12.548 275.848 12.432 276.408 12.432C276.984 12.432 277.476 12.536 277.884 12.744C278.3 12.952 278.616 13.236 278.832 13.596C279.048 13.956 279.156 14.364 279.156 14.82C279.156 15.356 279.048 15.836 278.832 16.26C278.616 16.684 278.228 17.168 277.668 17.712L275.556 19.788H279.18V21H273.6V20.076ZM284.14 19.476H280.048V18.288L284.14 12.6H285.436V18.288H286.324V19.476H285.436V21H284.14V19.476ZM284.14 18.288V14.46L281.416 18.288H284.14ZM291.224 13.788H286.976V12.6H292.532V13.716L289.28 21H287.996L291.224 13.788Z" fill="#6A6D8F"/>
    <rect x="209.5" y="0.5" width="94" height="31" rx="7.5" stroke="#EAEAFB"/>
    <rect x="537.5" y="0.5" width="175" height="31" rx="7.5" fill="white"/>
    <path d="M552.159 11.6H554.571C555.435 11.6 556.199 11.764 556.863 12.092C557.535 12.412 558.059 12.888 558.435 13.52C558.811 14.152 558.999 14.912 558.999 15.8C558.999 16.688 558.811 17.448 558.435 18.08C558.059 18.712 557.535 19.192 556.863 19.52C556.199 19.84 555.435 20 554.571 20H552.159V11.6ZM554.607 18.812C555.551 18.812 556.299 18.556 556.851 18.044C557.411 17.532 557.691 16.784 557.691 15.8C557.691 14.816 557.411 14.068 556.851 13.556C556.299 13.044 555.551 12.788 554.607 12.788H553.455V18.812H554.607Z" fill="#6A6D8F"/>
    <path d="M584.752 11.6H586.096L587.596 17.384C587.7 17.8 587.772 18.104 587.812 18.296L588.016 17.372L589.516 11.6H590.884L592.384 17.372L592.588 18.296C592.628 18.104 592.7 17.8 592.804 17.384L594.304 11.6H595.648L593.308 20H591.916L590.2 13.4L588.484 20H587.092L584.752 11.6Z" fill="#6A6D8F"/>
    <rect x="608.6" y="2" width="32.8" height="28" rx="6" fill="#DAD9F7"/>
    <path d="M620.768 11.6H622.148L624.992 18.668L627.848 11.6H629.228V20H627.968V14.192C627.848 14.664 627.712 15.08 627.56 15.44L625.64 20H624.356L622.436 15.44C622.316 15.16 622.176 14.744 622.016 14.192V20H620.768V11.6Z" fill="#1A1D29"/>
    <path d="M661.457 21.872C660.945 21.36 660.497 20.788 660.113 20.156C660.049 20.164 659.945 20.168 659.801 20.168C659.009 20.168 658.293 19.984 657.653 19.616C657.021 19.24 656.521 18.72 656.153 18.056C655.785 17.392 655.601 16.64 655.601 15.8C655.601 14.96 655.785 14.208 656.153 13.544C656.521 12.88 657.021 12.364 657.653 11.996C658.293 11.62 659.009 11.432 659.801 11.432C660.593 11.432 661.305 11.62 661.937 11.996C662.577 12.364 663.081 12.88 663.449 13.544C663.817 14.208 664.001 14.96 664.001 15.8C664.001 16.76 663.761 17.604 663.281 18.332C662.809 19.052 662.177 19.568 661.385 19.88C661.577 20.184 661.913 20.568 662.393 21.032L661.457 21.872ZM659.801 18.98C660.353 18.98 660.845 18.852 661.277 18.596C661.717 18.332 662.061 17.96 662.309 17.48C662.557 17 662.681 16.44 662.681 15.8C662.681 15.16 662.557 14.6 662.309 14.12C662.061 13.64 661.717 13.272 661.277 13.016C660.845 12.752 660.353 12.62 659.801 12.62C659.249 12.62 658.753 12.752 658.313 13.016C657.881 13.272 657.541 13.64 657.293 14.12C657.045 14.6 656.921 15.16 656.921 15.8C656.921 16.44 657.045 17 657.293 17.48C657.541 17.96 657.881 18.332 658.313 18.596C658.753 18.852 659.249 18.98 659.801 18.98Z" fill="#6A6D8F"/>
    <path d="M693.951 16.64L691.191 11.6H692.607L694.335 14.864C694.439 15.072 694.527 15.268 694.599 15.452C694.671 15.268 694.759 15.072 694.863 14.864L696.591 11.6H698.007L695.247 16.64V20H693.951V16.64Z" fill="#6A6D8F"/>
    <rect x="537.5" y="0.5" width="175" height="31" rx="7.5" stroke="#EAEAFB"/>
    <rect x="537.5" y="0.5" width="175" height="31" rx="7.5" stroke="#EAEAFB"/>
    <path d="M677.296 359.168C676.576 359.168 675.932 358.988 675.364 358.628C674.804 358.26 674.364 357.748 674.044 357.092C673.732 356.428 673.576 355.664 673.576 354.8C673.576 353.936 673.732 353.176 674.044 352.52C674.364 351.856 674.804 351.344 675.364 350.984C675.932 350.616 676.576 350.432 677.296 350.432C678.016 350.432 678.656 350.616 679.216 350.984C679.784 351.344 680.228 351.856 680.548 352.52C680.868 353.176 681.028 353.936 681.028 354.8C681.028 355.664 680.868 356.428 680.548 357.092C680.228 357.748 679.784 358.26 679.216 358.628C678.656 358.988 678.016 359.168 677.296 359.168ZM677.296 357.98C677.768 357.98 678.188 357.852 678.556 357.596C678.924 357.34 679.212 356.972 679.42 356.492C679.628 356.012 679.732 355.448 679.732 354.8C679.732 354.152 679.628 353.588 679.42 353.108C679.212 352.628 678.924 352.26 678.556 352.004C678.188 351.748 677.768 351.62 677.296 351.62C676.824 351.62 676.404 351.748 676.036 352.004C675.668 352.26 675.38 352.628 675.172 353.108C674.964 353.588 674.86 354.152 674.86 354.8C674.86 355.448 674.964 356.012 675.172 356.492C675.38 356.972 675.668 357.34 676.036 357.596C676.404 357.852 676.824 357.98 677.296 357.98Z" fill="#6A6D8F"/>
    <path d="M675.352 283.244C675.136 283.468 674.892 283.624 674.62 283.712C674.348 283.8 674.004 283.844 673.588 283.844V282.656C674.06 282.656 674.44 282.572 674.728 282.404C675.024 282.228 675.264 281.96 675.448 281.6H676.636V290H675.352V283.244ZM681.987 290.168C681.267 290.168 680.623 289.988 680.055 289.628C679.495 289.26 679.055 288.748 678.735 288.092C678.423 287.428 678.267 286.664 678.267 285.8C678.267 284.936 678.423 284.176 678.735 283.52C679.055 282.856 679.495 282.344 680.055 281.984C680.623 281.616 681.267 281.432 681.987 281.432C682.707 281.432 683.347 281.616 683.907 281.984C684.475 282.344 684.919 282.856 685.239 283.52C685.559 284.176 685.719 284.936 685.719 285.8C685.719 286.664 685.559 287.428 685.239 288.092C684.919 288.748 684.475 289.26 683.907 289.628C683.347 289.988 682.707 290.168 681.987 290.168ZM681.987 288.98C682.459 288.98 682.879 288.852 683.247 288.596C683.615 288.34 683.903 287.972 684.111 287.492C684.319 287.012 684.423 286.448 684.423 285.8C684.423 285.152 684.319 284.588 684.111 284.108C683.903 283.628 683.615 283.26 683.247 283.004C682.879 282.748 682.459 282.62 681.987 282.62C681.515 282.62 681.095 282.748 680.727 283.004C680.359 283.26 680.071 283.628 679.863 284.108C679.655 284.588 679.551 285.152 679.551 285.8C679.551 286.448 679.655 287.012 679.863 287.492C680.071 287.972 680.359 288.34 680.727 288.596C681.095 288.852 681.515 288.98 681.987 288.98ZM690.757 290.168C690.037 290.168 689.393 289.988 688.825 289.628C688.265 289.26 687.825 288.748 687.505 288.092C687.193 287.428 687.037 286.664 687.037 285.8C687.037 284.936 687.193 284.176 687.505 283.52C687.825 282.856 688.265 282.344 688.825 281.984C689.393 281.616 690.037 281.432 690.757 281.432C691.477 281.432 692.117 281.616 692.677 281.984C693.245 282.344 693.689 282.856 694.009 283.52C694.329 284.176 694.489 284.936 694.489 285.8C694.489 286.664 694.329 287.428 694.009 288.092C693.689 288.748 693.245 289.26 692.677 289.628C692.117 289.988 691.477 290.168 690.757 290.168ZM690.757 288.98C691.229 288.98 691.649 288.852 692.017 288.596C692.385 288.34 692.673 287.972 692.881 287.492C693.089 287.012 693.193 286.448 693.193 285.8C693.193 285.152 693.089 284.588 692.881 284.108C692.673 283.628 692.385 283.26 692.017 283.004C691.649 282.748 691.229 282.62 690.757 282.62C690.285 282.62 689.865 282.748 689.497 283.004C689.129 283.26 688.841 283.628 688.633 284.108C688.425 284.588 688.321 285.152 688.321 285.8C688.321 286.448 688.425 287.012 688.633 287.492C688.841 287.972 689.129 288.34 689.497 288.596C689.865 288.852 690.285 288.98 690.757 288.98Z" fill="#6A6D8F"/>
    <path d="M673.6 220.076L676.816 216.92C677.208 216.536 677.484 216.2 677.644 215.912C677.812 215.616 677.896 215.296 677.896 214.952C677.896 214.536 677.76 214.204 677.488 213.956C677.216 213.7 676.852 213.572 676.396 213.572C675.956 213.572 675.596 213.7 675.316 213.956C675.044 214.204 674.908 214.548 674.908 214.988C674.908 215.196 674.94 215.384 675.004 215.552L673.768 215.78C673.664 215.516 673.612 215.22 673.612 214.892C673.612 214.46 673.724 214.056 673.948 213.68C674.18 213.304 674.508 213.004 674.932 212.78C675.356 212.548 675.848 212.432 676.408 212.432C676.984 212.432 677.476 212.536 677.884 212.744C678.3 212.952 678.616 213.236 678.832 213.596C679.048 213.956 679.156 214.364 679.156 214.82C679.156 215.356 679.048 215.836 678.832 216.26C678.616 216.684 678.228 217.168 677.668 217.712L675.556 219.788H679.18V221H673.6V220.076ZM683.968 221.168C683.248 221.168 682.604 220.988 682.036 220.628C681.476 220.26 681.036 219.748 680.716 219.092C680.404 218.428 680.248 217.664 680.248 216.8C680.248 215.936 680.404 215.176 680.716 214.52C681.036 213.856 681.476 213.344 682.036 212.984C682.604 212.616 683.248 212.432 683.968 212.432C684.688 212.432 685.328 212.616 685.888 212.984C686.456 213.344 686.9 213.856 687.22 214.52C687.54 215.176 687.7 215.936 687.7 216.8C687.7 217.664 687.54 218.428 687.22 219.092C686.9 219.748 686.456 220.26 685.888 220.628C685.328 220.988 684.688 221.168 683.968 221.168ZM683.968 219.98C684.44 219.98 684.86 219.852 685.228 219.596C685.596 219.34 685.884 218.972 686.092 218.492C686.3 218.012 686.404 217.448 686.404 216.8C686.404 216.152 686.3 215.588 686.092 215.108C685.884 214.628 685.596 214.26 685.228 214.004C684.86 213.748 684.44 213.62 683.968 213.62C683.496 213.62 683.076 213.748 682.708 214.004C682.34 214.26 682.052 214.628 681.844 215.108C681.636 215.588 681.532 216.152 681.532 216.8C681.532 217.448 681.636 218.012 681.844 218.492C682.052 218.972 682.34 219.34 682.708 219.596C683.076 219.852 683.496 219.98 683.968 219.98Z" fill="#6A6D8F"/>
    <path d="M676.576 152.168C675.968 152.168 675.44 152.052 674.992 151.82C674.552 151.588 674.216 151.284 673.984 150.908C673.752 150.524 673.636 150.112 673.636 149.672C673.636 149.392 673.68 149.152 673.768 148.952L674.992 149.252C674.952 149.356 674.932 149.488 674.932 149.648C674.932 150.064 675.084 150.404 675.388 150.668C675.692 150.932 676.088 151.064 676.576 151.064C677.064 151.064 677.46 150.932 677.764 150.668C678.076 150.396 678.232 150.02 678.232 149.54C678.232 149.02 678.024 148.636 677.608 148.388C677.192 148.132 676.648 148.004 675.976 148.004V146.996C676.592 146.996 677.06 146.872 677.38 146.624C677.7 146.376 677.86 146.052 677.86 145.652C677.86 145.3 677.736 145.02 677.488 144.812C677.248 144.604 676.92 144.5 676.504 144.5C676.104 144.5 675.772 144.612 675.508 144.836C675.244 145.052 675.112 145.336 675.112 145.688C675.112 145.832 675.136 145.96 675.184 146.072L673.984 146.324C673.912 146.108 673.876 145.9 673.876 145.7C673.876 145.292 673.984 144.916 674.2 144.572C674.424 144.228 674.736 143.952 675.136 143.744C675.536 143.536 675.996 143.432 676.516 143.432C677.348 143.432 677.988 143.624 678.436 144.008C678.892 144.384 679.12 144.876 679.12 145.484C679.12 145.908 679 146.292 678.76 146.636C678.528 146.98 678.208 147.232 677.8 147.392C678.304 147.544 678.716 147.8 679.036 148.16C679.364 148.52 679.528 148.972 679.528 149.516C679.528 150.052 679.4 150.52 679.144 150.92C678.896 151.32 678.548 151.628 678.1 151.844C677.652 152.06 677.144 152.168 676.576 152.168ZM684.472 152.168C683.752 152.168 683.108 151.988 682.54 151.628C681.98 151.26 681.54 150.748 681.22 150.092C680.908 149.428 680.752 148.664 680.752 147.8C680.752 146.936 680.908 146.176 681.22 145.52C681.54 144.856 681.98 144.344 682.54 143.984C683.108 143.616 683.752 143.432 684.472 143.432C685.192 143.432 685.832 143.616 686.392 143.984C686.96 144.344 687.404 144.856 687.724 145.52C688.044 146.176 688.204 146.936 688.204 147.8C688.204 148.664 688.044 149.428 687.724 150.092C687.404 150.748 686.96 151.26 686.392 151.628C685.832 151.988 685.192 152.168 684.472 152.168ZM684.472 150.98C684.944 150.98 685.364 150.852 685.732 150.596C686.1 150.34 686.388 149.972 686.596 149.492C686.804 149.012 686.908 148.448 686.908 147.8C686.908 147.152 686.804 146.588 686.596 146.108C686.388 145.628 686.1 145.26 685.732 145.004C685.364 144.748 684.944 144.62 684.472 144.62C684 144.62 683.58 144.748 683.212 145.004C682.844 145.26 682.556 145.628 682.348 146.108C682.14 146.588 682.036 147.152 682.036 147.8C682.036 148.448 682.14 149.012 682.348 149.492C682.556 149.972 682.844 150.34 683.212 150.596C683.58 150.852 684 150.98 684.472 150.98ZM693.241 152.168C692.521 152.168 691.877 151.988 691.309 151.628C690.749 151.26 690.309 150.748 689.989 150.092C689.677 149.428 689.521 148.664 689.521 147.8C689.521 146.936 689.677 146.176 689.989 145.52C690.309 144.856 690.749 144.344 691.309 143.984C691.877 143.616 692.521 143.432 693.241 143.432C693.961 143.432 694.601 143.616 695.161 143.984C695.729 144.344 696.173 144.856 696.493 145.52C696.813 146.176 696.973 146.936 696.973 147.8C696.973 148.664 696.813 149.428 696.493 150.092C696.173 150.748 695.729 151.26 695.161 151.628C694.601 151.988 693.961 152.168 693.241 152.168ZM693.241 150.98C693.713 150.98 694.133 150.852 694.501 150.596C694.869 150.34 695.157 149.972 695.365 149.492C695.573 149.012 695.677 148.448 695.677 147.8C695.677 147.152 695.573 146.588 695.365 146.108C695.157 145.628 694.869 145.26 694.501 145.004C694.133 144.748 693.713 144.62 693.241 144.62C692.769 144.62 692.349 144.748 691.981 145.004C691.613 145.26 691.325 145.628 691.117 146.108C690.909 146.588 690.805 147.152 690.805 147.8C690.805 148.448 690.909 149.012 691.117 149.492C691.325 149.972 691.613 150.34 691.981 150.596C692.349 150.852 692.769 150.98 693.241 150.98Z" fill="#6A6D8F"/>
    <path d="M677.62 81.476H673.528V80.288L677.62 74.6H678.916V80.288H679.804V81.476H678.916V83H677.62V81.476ZM677.62 80.288V76.46L674.896 80.288H677.62ZM684.741 83.168C684.021 83.168 683.377 82.988 682.809 82.628C682.249 82.26 681.809 81.748 681.489 81.092C681.177 80.428 681.021 79.664 681.021 78.8C681.021 77.936 681.177 77.176 681.489 76.52C681.809 75.856 682.249 75.344 682.809 74.984C683.377 74.616 684.021 74.432 684.741 74.432C685.461 74.432 686.101 74.616 686.661 74.984C687.229 75.344 687.673 75.856 687.993 76.52C688.313 77.176 688.473 77.936 688.473 78.8C688.473 79.664 688.313 80.428 687.993 81.092C687.673 81.748 687.229 82.26 686.661 82.628C686.101 82.988 685.461 83.168 684.741 83.168ZM684.741 81.98C685.213 81.98 685.633 81.852 686.001 81.596C686.369 81.34 686.657 80.972 686.865 80.492C687.073 80.012 687.177 79.448 687.177 78.8C687.177 78.152 687.073 77.588 686.865 77.108C686.657 76.628 686.369 76.26 686.001 76.004C685.633 75.748 685.213 75.62 684.741 75.62C684.269 75.62 683.849 75.748 683.481 76.004C683.113 76.26 682.825 76.628 682.617 77.108C682.409 77.588 682.305 78.152 682.305 78.8C682.305 79.448 682.409 80.012 682.617 80.492C682.825 80.972 683.113 81.34 683.481 81.596C683.849 81.852 684.269 81.98 684.741 81.98ZM693.511 83.168C692.791 83.168 692.147 82.988 691.579 82.628C691.019 82.26 690.579 81.748 690.259 81.092C689.947 80.428 689.791 79.664 689.791 78.8C689.791 77.936 689.947 77.176 690.259 76.52C690.579 75.856 691.019 75.344 691.579 74.984C692.147 74.616 692.791 74.432 693.511 74.432C694.231 74.432 694.871 74.616 695.431 74.984C695.999 75.344 696.443 75.856 696.763 76.52C697.083 77.176 697.243 77.936 697.243 78.8C697.243 79.664 697.083 80.428 696.763 81.092C696.443 81.748 695.999 82.26 695.431 82.628C694.871 82.988 694.231 83.168 693.511 83.168ZM693.511 81.98C693.983 81.98 694.403 81.852 694.771 81.596C695.139 81.34 695.427 80.972 695.635 80.492C695.843 80.012 695.947 79.448 695.947 78.8C695.947 78.152 695.843 77.588 695.635 77.108C695.427 76.628 695.139 76.26 694.771 76.004C694.403 75.748 693.983 75.62 693.511 75.62C693.039 75.62 692.619 75.748 692.251 76.004C691.883 76.26 691.595 76.628 691.387 77.108C691.179 77.588 691.075 78.152 691.075 78.8C691.075 79.448 691.179 80.012 691.387 80.492C691.595 80.972 691.883 81.34 692.251 81.596C692.619 81.852 693.039 81.98 693.511 81.98Z" fill="#6A6D8F"/>
    <path d="M665 116H711C712.105 116 713 116.895 713 118V138C713 139.105 712.105 140 711 140H665V116Z" fill="#DAD9F7"/>
    <path d="M691.439 132.668C690.831 132.668 690.303 132.552 689.855 132.32C689.415 132.088 689.079 131.784 688.847 131.408C688.615 131.024 688.499 130.612 688.499 130.172C688.499 129.892 688.543 129.652 688.631 129.452L689.855 129.752C689.815 129.856 689.795 129.988 689.795 130.148C689.795 130.564 689.947 130.904 690.251 131.168C690.555 131.432 690.951 131.564 691.439 131.564C691.927 131.564 692.323 131.432 692.627 131.168C692.939 130.896 693.095 130.52 693.095 130.04C693.095 129.52 692.887 129.136 692.471 128.888C692.055 128.632 691.511 128.504 690.839 128.504V127.496C691.455 127.496 691.923 127.372 692.243 127.124C692.563 126.876 692.723 126.552 692.723 126.152C692.723 125.8 692.599 125.52 692.351 125.312C692.111 125.104 691.783 125 691.367 125C690.967 125 690.635 125.112 690.371 125.336C690.107 125.552 689.975 125.836 689.975 126.188C689.975 126.332 689.999 126.46 690.047 126.572L688.847 126.824C688.775 126.608 688.739 126.4 688.739 126.2C688.739 125.792 688.847 125.416 689.063 125.072C689.287 124.728 689.599 124.452 689.999 124.244C690.399 124.036 690.859 123.932 691.379 123.932C692.211 123.932 692.851 124.124 693.299 124.508C693.755 124.884 693.983 125.376 693.983 125.984C693.983 126.408 693.863 126.792 693.623 127.136C693.391 127.48 693.071 127.732 692.663 127.892C693.167 128.044 693.579 128.3 693.899 128.66C694.227 129.02 694.391 129.472 694.391 130.016C694.391 130.552 694.263 131.02 694.007 131.42C693.759 131.82 693.411 132.128 692.963 132.344C692.515 132.56 692.007 132.668 691.439 132.668ZM695.744 131.576L698.961 128.42C699.352 128.036 699.628 127.7 699.789 127.412C699.957 127.116 700.041 126.796 700.041 126.452C700.041 126.036 699.905 125.704 699.632 125.456C699.36 125.2 698.996 125.072 698.541 125.072C698.1 125.072 697.74 125.2 697.46 125.456C697.188 125.704 697.052 126.048 697.052 126.488C697.052 126.696 697.084 126.884 697.148 127.052L695.912 127.28C695.808 127.016 695.756 126.72 695.756 126.392C695.756 125.96 695.868 125.556 696.092 125.18C696.324 124.804 696.652 124.504 697.076 124.28C697.5 124.048 697.992 123.932 698.552 123.932C699.128 123.932 699.62 124.036 700.028 124.244C700.444 124.452 700.761 124.736 700.977 125.096C701.192 125.456 701.3 125.864 701.3 126.32C701.3 126.856 701.192 127.336 700.977 127.76C700.761 128.184 700.373 128.668 699.813 129.212L697.7 131.288H701.325V132.5H695.744V131.576ZM705.463 132.668C704.855 132.668 704.327 132.552 703.879 132.32C703.439 132.088 703.103 131.784 702.871 131.408C702.639 131.024 702.523 130.612 702.523 130.172C702.523 129.892 702.567 129.652 702.655 129.452L703.879 129.752C703.839 129.856 703.819 129.988 703.819 130.148C703.819 130.564 703.971 130.904 704.275 131.168C704.579 131.432 704.975 131.564 705.463 131.564C705.951 131.564 706.347 131.432 706.651 131.168C706.963 130.896 707.119 130.52 707.119 130.04C707.119 129.52 706.911 129.136 706.495 128.888C706.079 128.632 705.535 128.504 704.863 128.504V127.496C705.479 127.496 705.947 127.372 706.267 127.124C706.587 126.876 706.747 126.552 706.747 126.152C706.747 125.8 706.623 125.52 706.375 125.312C706.135 125.104 705.807 125 705.391 125C704.991 125 704.659 125.112 704.395 125.336C704.131 125.552 703.999 125.836 703.999 126.188C703.999 126.332 704.023 126.46 704.071 126.572L702.871 126.824C702.799 126.608 702.763 126.4 702.763 126.2C702.763 125.792 702.871 125.416 703.087 125.072C703.311 124.728 703.623 124.452 704.023 124.244C704.423 124.036 704.883 123.932 705.403 123.932C706.235 123.932 706.875 124.124 707.323 124.508C707.779 124.884 708.007 125.376 708.007 125.984C708.007 126.408 707.887 126.792 707.647 127.136C707.415 127.48 707.095 127.732 706.687 127.892C707.191 128.044 707.603 128.3 707.923 128.66C708.251 129.02 708.415 129.472 708.415 130.016C708.415 130.552 708.287 131.02 708.031 131.42C707.783 131.82 707.435 132.128 706.987 132.344C706.539 132.56 706.031 132.668 705.463 132.668Z" fill="#1A1D29"/>
    <path d="M4.996 373.168C4.036 373.168 3.264 372.928 2.68 372.448C2.104 371.96 1.732 371.32 1.564 370.528L2.716 369.928C2.972 371.328 3.732 372.028 4.996 372.028C5.54 372.028 5.976 371.9 6.304 371.644C6.632 371.388 6.796 371.068 6.796 370.684C6.796 370.268 6.62 369.944 6.268 369.712C5.916 369.472 5.372 369.284 4.636 369.148C3.796 368.988 3.136 368.708 2.656 368.308C2.184 367.9 1.948 367.356 1.948 366.676C1.948 366.236 2.068 365.848 2.308 365.512C2.556 365.168 2.896 364.904 3.328 364.72C3.76 364.528 4.256 364.432 4.816 364.432C5.592 364.432 6.248 364.612 6.784 364.972C7.32 365.332 7.708 365.852 7.948 366.532L6.916 367.132C6.74 366.628 6.472 366.244 6.112 365.98C5.752 365.708 5.316 365.572 4.804 365.572C4.34 365.572 3.952 365.668 3.64 365.86C3.336 366.044 3.184 366.308 3.184 366.652C3.184 367.028 3.36 367.328 3.712 367.552C4.072 367.776 4.624 367.964 5.368 368.116C6.28 368.308 6.96 368.604 7.408 369.004C7.864 369.404 8.092 369.94 8.092 370.612C8.092 371.076 7.964 371.504 7.708 371.896C7.452 372.288 7.088 372.6 6.616 372.832C6.152 373.056 5.612 373.168 4.996 373.168ZM12.4053 373.168C11.8613 373.168 11.3573 373.036 10.8933 372.772C10.4373 372.508 10.0733 372.136 9.80125 371.656C9.52925 371.176 9.39325 370.632 9.39325 370.024C9.39325 369.416 9.52925 368.876 9.80125 368.404C10.0733 367.924 10.4413 367.552 10.9053 367.288C11.3773 367.016 11.8973 366.88 12.4653 366.88C13.0333 366.88 13.5333 367.008 13.9653 367.264C14.4053 367.512 14.7453 367.864 14.9853 368.32C15.2253 368.768 15.3453 369.28 15.3453 369.856V370.288H10.5933C10.6333 370.824 10.8213 371.26 11.1573 371.596C11.4933 371.932 11.9173 372.1 12.4293 372.1C12.8693 372.1 13.2333 372 13.5213 371.8C13.8093 371.592 14.0533 371.292 14.2533 370.9L15.1653 371.428C14.8773 372.012 14.5093 372.448 14.0613 372.736C13.6133 373.024 13.0613 373.168 12.4053 373.168ZM14.1573 369.316C14.1093 368.86 13.9253 368.504 13.6053 368.248C13.2853 367.984 12.8933 367.852 12.4293 367.852C11.9813 367.852 11.5933 367.992 11.2653 368.272C10.9373 368.544 10.7213 368.892 10.6173 369.316H14.1573ZM16.765 367.048H18.013V368.02C18.205 367.692 18.489 367.42 18.865 367.204C19.249 366.988 19.669 366.88 20.125 366.88C20.637 366.88 21.101 367.012 21.517 367.276C21.941 367.532 22.273 367.9 22.513 368.38C22.761 368.852 22.885 369.4 22.885 370.024C22.885 370.632 22.757 371.176 22.501 371.656C22.253 372.128 21.913 372.5 21.481 372.772C21.049 373.036 20.565 373.168 20.029 373.168C19.597 373.168 19.205 373.08 18.853 372.904C18.509 372.72 18.229 372.472 18.013 372.16V375.448H16.765V367.048ZM19.765 372.028C20.117 372.028 20.433 371.944 20.713 371.776C21.001 371.6 21.221 371.36 21.373 371.056C21.533 370.744 21.613 370.4 21.613 370.024C21.613 369.648 21.533 369.308 21.373 369.004C21.221 368.692 21.001 368.452 20.713 368.284C20.433 368.108 20.117 368.02 19.765 368.02C19.413 368.02 19.097 368.108 18.817 368.284C18.537 368.46 18.317 368.7 18.157 369.004C17.997 369.308 17.917 369.648 17.917 370.024C17.917 370.4 17.997 370.74 18.157 371.044C18.317 371.348 18.537 371.588 18.817 371.764C19.097 371.94 19.413 372.028 19.765 372.028Z" fill="#6A6D8F"/>
    <path d="M138.588 373.168C137.796 373.168 137.08 372.984 136.44 372.616C135.808 372.24 135.308 371.72 134.94 371.056C134.572 370.392 134.388 369.64 134.388 368.8C134.388 367.96 134.572 367.208 134.94 366.544C135.308 365.88 135.808 365.364 136.44 364.996C137.08 364.62 137.796 364.432 138.588 364.432C139.38 364.432 140.092 364.62 140.724 364.996C141.364 365.364 141.868 365.88 142.236 366.544C142.604 367.208 142.788 367.96 142.788 368.8C142.788 369.64 142.604 370.392 142.236 371.056C141.868 371.72 141.364 372.24 140.724 372.616C140.092 372.984 139.38 373.168 138.588 373.168ZM138.588 371.98C139.14 371.98 139.632 371.852 140.064 371.596C140.504 371.332 140.848 370.96 141.096 370.48C141.344 370 141.468 369.44 141.468 368.8C141.468 368.16 141.344 367.6 141.096 367.12C140.848 366.64 140.504 366.272 140.064 366.016C139.632 365.752 139.14 365.62 138.588 365.62C138.036 365.62 137.54 365.752 137.1 366.016C136.668 366.272 136.328 366.64 136.08 367.12C135.832 367.6 135.708 368.16 135.708 368.8C135.708 369.44 135.832 370 136.08 370.48C136.328 370.96 136.668 371.332 137.1 371.596C137.54 371.852 138.036 371.98 138.588 371.98ZM147.082 373.168C146.498 373.168 145.97 373.036 145.498 372.772C145.026 372.508 144.654 372.14 144.382 371.668C144.118 371.188 143.986 370.64 143.986 370.024C143.986 369.416 144.126 368.876 144.406 368.404C144.686 367.924 145.062 367.552 145.534 367.288C146.014 367.016 146.53 366.88 147.082 366.88C147.722 366.88 148.262 367.008 148.702 367.264C149.15 367.52 149.482 367.892 149.698 368.38L148.678 369.004C148.334 368.356 147.802 368.032 147.082 368.032C146.738 368.032 146.426 368.116 146.146 368.284C145.874 368.444 145.658 368.676 145.498 368.98C145.338 369.276 145.258 369.624 145.258 370.024C145.258 370.624 145.426 371.108 145.762 371.476C146.106 371.836 146.546 372.016 147.082 372.016C147.482 372.016 147.81 371.932 148.066 371.764C148.322 371.596 148.546 371.344 148.738 371.008L149.734 371.62C149.126 372.652 148.242 373.168 147.082 373.168ZM153.191 373.168C152.671 373.168 152.251 373.028 151.931 372.748C151.611 372.46 151.451 372 151.451 371.368V368.044H150.491V367.048H151.451V365.44H152.687V367.048H154.043V368.044H152.687V371.188C152.687 371.78 152.951 372.076 153.479 372.076C153.639 372.076 153.799 372.052 153.959 372.004L154.079 373.024C153.807 373.12 153.511 373.168 153.191 373.168Z" fill="#6A6D8F"/>
    <path d="M267.548 364.6H268.868L272.648 370.408C272.84 370.736 272.96 370.956 273.008 371.068V364.6H274.268V373H272.936L269.156 367.168C268.964 366.84 268.844 366.62 268.796 366.508V373H267.548V364.6ZM278.912 373.168C278.352 373.168 277.828 373.048 277.34 372.808C276.852 372.56 276.46 372.2 276.164 371.728C275.868 371.248 275.72 370.68 275.72 370.024C275.72 369.368 275.868 368.804 276.164 368.332C276.46 367.852 276.852 367.492 277.34 367.252C277.828 367.004 278.352 366.88 278.912 366.88C279.464 366.88 279.984 367.004 280.472 367.252C280.96 367.492 281.352 367.852 281.648 368.332C281.944 368.804 282.092 369.368 282.092 370.024C282.092 370.68 281.944 371.248 281.648 371.728C281.352 372.2 280.96 372.56 280.472 372.808C279.984 373.048 279.464 373.168 278.912 373.168ZM278.912 372.028C279.256 372.028 279.576 371.948 279.872 371.788C280.168 371.62 280.4 371.384 280.568 371.08C280.744 370.776 280.832 370.424 280.832 370.024C280.832 369.624 280.744 369.272 280.568 368.968C280.4 368.664 280.168 368.432 279.872 368.272C279.576 368.104 279.256 368.02 278.912 368.02C278.56 368.02 278.236 368.104 277.94 368.272C277.652 368.432 277.42 368.664 277.244 368.968C277.068 369.272 276.98 369.624 276.98 370.024C276.98 370.424 277.068 370.776 277.244 371.08C277.42 371.384 277.652 371.62 277.94 371.788C278.236 371.948 278.56 372.028 278.912 372.028ZM282.536 367.048H283.868L285.536 371.464L287.204 367.048H288.536L286.136 373H284.936L282.536 367.048Z" fill="#6A6D8F"/>
    <path d="M400.348 364.6H402.76C403.624 364.6 404.388 364.764 405.052 365.092C405.724 365.412 406.248 365.888 406.624 366.52C407 367.152 407.188 367.912 407.188 368.8C407.188 369.688 407 370.448 406.624 371.08C406.248 371.712 405.724 372.192 405.052 372.52C404.388 372.84 403.624 373 402.76 373H400.348V364.6ZM402.796 371.812C403.74 371.812 404.488 371.556 405.04 371.044C405.6 370.532 405.88 369.784 405.88 368.8C405.88 367.816 405.6 367.068 405.04 366.556C404.488 366.044 403.74 365.788 402.796 365.788H401.644V371.812H402.796ZM411.403 373.168C410.859 373.168 410.355 373.036 409.891 372.772C409.435 372.508 409.071 372.136 408.799 371.656C408.527 371.176 408.391 370.632 408.391 370.024C408.391 369.416 408.527 368.876 408.799 368.404C409.071 367.924 409.439 367.552 409.903 367.288C410.375 367.016 410.895 366.88 411.463 366.88C412.031 366.88 412.531 367.008 412.963 367.264C413.403 367.512 413.743 367.864 413.983 368.32C414.223 368.768 414.343 369.28 414.343 369.856V370.288H409.591C409.631 370.824 409.819 371.26 410.155 371.596C410.491 371.932 410.915 372.1 411.427 372.1C411.867 372.1 412.231 372 412.519 371.8C412.807 371.592 413.051 371.292 413.251 370.9L414.163 371.428C413.875 372.012 413.507 372.448 413.059 372.736C412.611 373.024 412.059 373.168 411.403 373.168ZM413.155 369.316C413.107 368.86 412.923 368.504 412.603 368.248C412.283 367.984 411.891 367.852 411.427 367.852C410.979 367.852 410.591 367.992 410.263 368.272C409.935 368.544 409.719 368.892 409.615 369.316H413.155ZM418.51 373.168C417.926 373.168 417.398 373.036 416.926 372.772C416.454 372.508 416.082 372.14 415.81 371.668C415.546 371.188 415.414 370.64 415.414 370.024C415.414 369.416 415.554 368.876 415.834 368.404C416.114 367.924 416.49 367.552 416.962 367.288C417.442 367.016 417.958 366.88 418.51 366.88C419.15 366.88 419.69 367.008 420.13 367.264C420.578 367.52 420.91 367.892 421.126 368.38L420.106 369.004C419.762 368.356 419.23 368.032 418.51 368.032C418.166 368.032 417.854 368.116 417.574 368.284C417.302 368.444 417.086 368.676 416.926 368.98C416.766 369.276 416.686 369.624 416.686 370.024C416.686 370.624 416.854 371.108 417.19 371.476C417.534 371.836 417.974 372.016 418.51 372.016C418.91 372.016 419.238 371.932 419.494 371.764C419.75 371.596 419.974 371.344 420.166 371.008L421.162 371.62C420.554 372.652 419.67 373.168 418.51 373.168ZM425.689 366.208L427.021 364.516L427.297 364.708L426.517 366.208H427.081V367.612H425.689V366.208ZM428.426 372.076L431.642 368.92C432.034 368.536 432.31 368.2 432.47 367.912C432.638 367.616 432.722 367.296 432.722 366.952C432.722 366.536 432.586 366.204 432.314 365.956C432.042 365.7 431.678 365.572 431.222 365.572C430.782 365.572 430.422 365.7 430.142 365.956C429.87 366.204 429.734 366.548 429.734 366.988C429.734 367.196 429.766 367.384 429.83 367.552L428.594 367.78C428.49 367.516 428.438 367.22 428.438 366.892C428.438 366.46 428.55 366.056 428.774 365.68C429.006 365.304 429.334 365.004 429.758 364.78C430.182 364.548 430.674 364.432 431.234 364.432C431.81 364.432 432.302 364.536 432.71 364.744C433.126 364.952 433.442 365.236 433.658 365.596C433.874 365.956 433.982 366.364 433.982 366.82C433.982 367.356 433.874 367.836 433.658 368.26C433.442 368.684 433.054 369.168 432.494 369.712L430.382 371.788H434.006V373H428.426V372.076ZM435.578 372.076L438.794 368.92C439.186 368.536 439.462 368.2 439.622 367.912C439.79 367.616 439.874 367.296 439.874 366.952C439.874 366.536 439.738 366.204 439.466 365.956C439.194 365.7 438.83 365.572 438.374 365.572C437.934 365.572 437.574 365.7 437.294 365.956C437.022 366.204 436.886 366.548 436.886 366.988C436.886 367.196 436.918 367.384 436.982 367.552L435.746 367.78C435.642 367.516 435.59 367.22 435.59 366.892C435.59 366.46 435.702 366.056 435.926 365.68C436.158 365.304 436.486 365.004 436.91 364.78C437.334 364.548 437.826 364.432 438.386 364.432C438.962 364.432 439.454 364.536 439.862 364.744C440.278 364.952 440.594 365.236 440.81 365.596C441.026 365.956 441.134 366.364 441.134 366.82C441.134 367.356 441.026 367.836 440.81 368.26C440.594 368.684 440.206 369.168 439.646 369.712L437.534 371.788H441.158V373H435.578V372.076Z" fill="#6A6D8F"/>
    <path d="M535.38 373.168C534.564 373.168 533.92 372.928 533.448 372.448C532.976 371.968 532.74 371.3 532.74 370.444L534.036 370.588C534.036 371.044 534.156 371.392 534.396 371.632C534.636 371.864 534.964 371.98 535.38 371.98C535.804 371.98 536.132 371.848 536.364 371.584C536.604 371.32 536.724 370.956 536.724 370.492V364.6H538.02V370.504C538.02 371.304 537.784 371.948 537.312 372.436C536.84 372.924 536.196 373.168 535.38 373.168ZM541.334 373.168C540.742 373.168 540.262 373 539.894 372.664C539.526 372.32 539.342 371.872 539.342 371.32C539.342 370.76 539.534 370.32 539.918 370C540.31 369.68 540.81 369.472 541.418 369.376L543.314 369.076V368.836C543.314 368.492 543.206 368.232 542.99 368.056C542.782 367.88 542.478 367.792 542.078 367.792C541.686 367.792 541.378 367.872 541.154 368.032C540.938 368.184 540.83 368.376 540.83 368.608C540.83 368.664 540.838 368.716 540.854 368.764L539.762 369.136C539.698 368.984 539.666 368.82 539.666 368.644C539.666 368.332 539.762 368.044 539.954 367.78C540.154 367.508 540.438 367.292 540.806 367.132C541.174 366.964 541.598 366.88 542.078 366.88C542.878 366.88 543.49 367.056 543.914 367.408C544.346 367.76 544.562 368.272 544.562 368.944V371.524C544.562 371.86 544.59 372.136 544.646 372.352C544.702 372.56 544.802 372.776 544.946 373H543.686C543.47 372.72 543.362 372.368 543.362 371.944C543.178 372.328 542.902 372.628 542.534 372.844C542.174 373.06 541.774 373.168 541.334 373.168ZM541.598 372.136C542.11 372.136 542.522 371.952 542.834 371.584C543.154 371.208 543.314 370.728 543.314 370.144V369.976L541.694 370.252C541.326 370.316 541.042 370.432 540.842 370.6C540.65 370.768 540.554 370.988 540.554 371.26C540.554 371.532 540.646 371.748 540.83 371.908C541.022 372.06 541.278 372.136 541.598 372.136ZM546.278 367.048H547.526V368.056C547.742 367.688 548.03 367.4 548.39 367.192C548.75 366.984 549.142 366.88 549.566 366.88C550.182 366.88 550.682 367.064 551.066 367.432C551.458 367.792 551.654 368.296 551.654 368.944V373H550.406V369.388C550.406 368.956 550.29 368.62 550.058 368.38C549.834 368.14 549.51 368.02 549.086 368.02C548.798 368.02 548.534 368.1 548.294 368.26C548.062 368.42 547.874 368.64 547.73 368.92C547.594 369.192 547.526 369.504 547.526 369.856V373H546.278V367.048ZM556.59 366.208L557.922 364.516L558.198 364.708L557.418 366.208H557.982V367.612H556.59V366.208ZM559.328 372.076L562.544 368.92C562.936 368.536 563.212 368.2 563.372 367.912C563.54 367.616 563.624 367.296 563.624 366.952C563.624 366.536 563.488 366.204 563.216 365.956C562.944 365.7 562.58 365.572 562.124 365.572C561.684 365.572 561.324 365.7 561.044 365.956C560.772 366.204 560.636 366.548 560.636 366.988C560.636 367.196 560.668 367.384 560.732 367.552L559.496 367.78C559.392 367.516 559.34 367.22 559.34 366.892C559.34 366.46 559.452 366.056 559.676 365.68C559.908 365.304 560.236 365.004 560.66 364.78C561.084 364.548 561.576 364.432 562.136 364.432C562.712 364.432 563.204 364.536 563.612 364.744C564.028 364.952 564.344 365.236 564.56 365.596C564.776 365.956 564.884 366.364 564.884 366.82C564.884 367.356 564.776 367.836 564.56 368.26C564.344 368.684 563.956 369.168 563.396 369.712L561.284 371.788H564.908V373H559.328V372.076ZM569.046 373.168C568.438 373.168 567.91 373.052 567.462 372.82C567.022 372.588 566.686 372.284 566.454 371.908C566.222 371.524 566.106 371.112 566.106 370.672C566.106 370.392 566.15 370.152 566.238 369.952L567.462 370.252C567.422 370.356 567.402 370.488 567.402 370.648C567.402 371.064 567.554 371.404 567.858 371.668C568.162 371.932 568.558 372.064 569.046 372.064C569.534 372.064 569.93 371.932 570.234 371.668C570.546 371.396 570.702 371.02 570.702 370.54C570.702 370.02 570.494 369.636 570.078 369.388C569.662 369.132 569.118 369.004 568.446 369.004V367.996C569.062 367.996 569.53 367.872 569.85 367.624C570.17 367.376 570.33 367.052 570.33 366.652C570.33 366.3 570.206 366.02 569.958 365.812C569.718 365.604 569.39 365.5 568.974 365.5C568.574 365.5 568.242 365.612 567.978 365.836C567.714 366.052 567.582 366.336 567.582 366.688C567.582 366.832 567.606 366.96 567.654 367.072L566.454 367.324C566.382 367.108 566.346 366.9 566.346 366.7C566.346 366.292 566.454 365.916 566.67 365.572C566.894 365.228 567.206 364.952 567.606 364.744C568.006 364.536 568.466 364.432 568.986 364.432C569.818 364.432 570.458 364.624 570.906 365.008C571.362 365.384 571.59 365.876 571.59 366.484C571.59 366.908 571.47 367.292 571.23 367.636C570.998 367.98 570.678 368.232 570.27 368.392C570.774 368.544 571.186 368.8 571.506 369.16C571.834 369.52 571.998 369.972 571.998 370.516C571.998 371.052 571.87 371.52 571.614 371.92C571.366 372.32 571.018 372.628 570.57 372.844C570.122 373.06 569.614 373.168 569.046 373.168Z" fill="#6A6D8F"/>
    <path d="M1 56V356" stroke="#DAD9F7" stroke-dasharray="2 2"/>
    <path d="M133.8 56V356" stroke="#DAD9F7" stroke-dasharray="2 2"/>
    <path d="M266.6 56V356" stroke="#DAD9F7" stroke-dasharray="2 2"/>
    <path d="M399.4 56V356" stroke="#DAD9F7" stroke-dasharray="2 2"/>
    <path d="M532.2 56V356" stroke="#DAD9F7" stroke-dasharray="2 2"/>
    <path d="M665 56V356" stroke="#DAD9F7"/>
    <path d="M665 355H1V357H665V355Z" fill="#DAD9F7" mask="url(#path-37-inside-1_1182_21716)"/>
    <path d="M1 338L133.8 272" stroke="#AAA7CC" stroke-width="2" stroke-linecap="round" stroke-linejoin="round"/>
    <path d="M266.6 206L133.8 272" stroke="#AAA7CC" stroke-width="2" stroke-linecap="round" stroke-linejoin="round"/>
    <path d="M266.6 206L399.4 216" stroke="#AAA7CC" stroke-width="2" stroke-linecap="round" stroke-linejoin="round"/>
    <path d="M532.2 158L399.4 216" stroke="#AAA7CC" stroke-width="2" stroke-linecap="round" stroke-linejoin="round"/>
    <path d="M532.2 158L665 128" stroke="#AAA7CC" stroke-width="2" stroke-linecap="round" stroke-linejoin="round"/>
</svg>
