<svg width="134" height="24" viewBox="0 0 134 24" fill="none" xmlns="http://www.w3.org/2000/svg">
    <path d="M107.902 23.7145H111.149V17.3799C111.149 14.3465 112.416 10.1175 115.842 10.1175C117.823 10.1175 118.68 11.6164 118.68 14.9888V23.7323H121.927V17.3978C121.927 13.2045 123.569 10.1353 126.424 10.1353C128.262 10.1353 129.457 11.3309 129.457 14.1502V23.7323H132.705V13.8112C132.705 9.6 131.259 6.85204 127.833 6.85204C125.068 6.85204 122.659 8.88624 121.356 12.8297L120.767 12.5799C121.588 10.2245 120.678 6.86989 117.234 6.86989C114.379 6.86989 112.363 9.10037 110.81 12.8476L110.168 12.5978C111.078 10.4565 111.149 9.74275 111.149 8.83271V7.15539H107.902V23.7145ZM89.1123 16.9695C89.1123 21.6625 91.5212 23.9822 95.1613 23.9822C98.7837 23.9822 101.014 21.7695 102.459 18.0401L103.084 18.29C102.299 20.3242 102.103 20.9844 102.103 22.0193V23.6967H105.35V7.08402H102.103V13.3294C102.103 17.6654 99.4796 20.8238 96.1249 20.8238C93.5197 20.8238 92.3599 19.5747 92.3599 16.006V7.06617H89.1123V16.9695ZM75.3903 10.0461H79.1554V18.5041C79.1554 21.9301 80.4223 23.7145 84.3836 23.7145H87.7561V20.7703H84.2409C83.081 20.7703 82.403 20.0922 82.403 18.8788V10.0461H86.9532V7.10186H82.2067C80.8149 7.10186 80.2796 7.24461 78.4238 8.08327L78.174 7.44089C80.6364 6.45948 83.1167 5.63866 83.1167 1.55242H79.8691C79.8691 4.24684 77.6565 6.81636 75.4082 6.81636V10.0461H75.3903ZM58.51 23.7145H61.7576V17.487C61.7576 13.1331 64.3628 9.99257 67.7353 9.99257C70.3584 9.99257 71.5004 11.206 71.5004 14.7747V23.7145H74.748V13.8468C74.748 9.17175 72.3747 6.8342 68.6989 6.8342C65.1123 6.8342 62.8461 9.06469 61.4364 12.8119L60.794 12.5621C61.6149 10.5279 61.7755 9.86766 61.7755 8.79703V7.1197H58.51V23.7145ZM42.0045 14.1502C42.4506 11.545 44.5204 9.65353 47.661 9.65353C50.6587 9.65353 52.6037 11.6342 52.9784 14.1502H42.0045ZM38.7033 15.4706C38.7033 19.8245 41.3621 23.9643 47.6074 23.9643C53.4602 23.9643 55.9227 19.771 55.9227 18.058H52.9784C52.5859 19.4677 50.7123 21.1985 47.6253 21.1985C44.5918 21.1985 42.397 19.5569 41.9688 16.5591H56.0833C56.1368 16.1844 56.1368 15.8454 56.1368 15.4885C56.1368 10.7599 52.9963 6.85204 47.6788 6.85204C42.058 6.85204 38.7033 10.5814 38.7033 15.4706ZM16.9517 18.8967C16.9517 17.3978 18.1472 16.4342 21.3413 16.2736C23.2684 16.1665 25.3561 16.0416 26.5517 15.4885L26.516 16.5948C26.4625 19.0037 23.661 21.1985 20.3777 21.1985C18.1651 21.1985 16.9517 20.2528 16.9517 18.8967ZM13.6149 19.1822C13.6149 22.1264 16.0238 24 19.8959 24C23.2862 24 25.7844 22.4654 26.9442 19.8424L27.7115 18.1115L28.3004 18.3435C27.6758 19.4677 27.3725 20.4848 27.3725 21.3056C27.3725 22.7509 28.3361 23.7145 30.2632 23.7145H32.0654V20.7703H31.2446C30.1204 20.7703 29.7993 20.0922 29.7993 18.8967V13.5257C29.7993 9.51078 26.9086 6.81636 22.055 6.81636C17.3085 6.81636 13.9361 9.38587 13.9361 12.8654H17.2193C17.255 10.9383 18.7717 9.61784 21.8052 9.61784C25.142 9.61784 26.5517 10.8669 26.5517 13.0617V13.4007C25.5881 13.9717 23.2684 13.9361 20.5561 14.0788C15.7026 14.3465 13.6149 16.2379 13.6149 19.1822ZM0 10.0461H3.72937V18.5041C3.72937 21.9301 5.03197 23.7145 8.95762 23.7145H12.348V20.7703H8.85056C7.63717 20.7703 6.97695 20.1457 6.97695 18.8788V10.0461H11.5271V7.10186H6.78067C5.38885 7.10186 4.88922 7.24461 2.99777 8.08327L2.74796 7.44089C5.17472 6.45948 7.69071 5.63866 7.69071 1.55242H4.44312C4.44312 4.24684 2.26617 6.81636 0 6.81636V10.0461ZM33.4929 23.7145H36.7405V0H33.4929V23.7145Z" fill="white"/>
</svg>
