<svg width="24" height="16" viewBox="0 0 24 16" fill="none" xmlns="http://www.w3.org/2000/svg">
<path fill-rule="evenodd" clip-rule="evenodd" d="M8.50004 1.75C6.15283 1.75 4.25004 3.65279 4.25004 6C4.25004 8.34721 6.15283 10.25 8.50004 10.25C10.8472 10.25 12.75 8.34721 12.75 6C12.75 3.65279 10.8472 1.75 8.50004 1.75ZM11.5895 10.8504C13.1892 9.82928 14.25 8.03853 14.25 6C14.25 2.82436 11.6757 0.25 8.50004 0.25C5.3244 0.25 2.75004 2.82436 2.75004 6C2.75004 8.03849 3.81082 9.82923 5.41049 10.8503C5.38789 10.8594 5.36533 10.8687 5.3428 10.878C4.34186 11.2926 3.43239 11.9003 2.6663 12.6664C1.90022 13.4325 1.29253 14.3419 0.87793 15.3429L2.26375 15.9169C2.60297 15.0979 3.10017 14.3538 3.72697 13.727C4.35376 13.1002 5.09787 12.603 5.91682 12.2638C6.73576 11.9246 7.61361 11.75 8.50004 11.75C9.38645 11.75 10.2641 11.9246 11.083 12.2638C11.902 12.603 12.6461 13.1002 13.2729 13.727C13.8997 14.3538 14.3969 15.0979 14.7361 15.9169L16.1219 15.3429C15.7073 14.3419 15.0997 13.4325 14.3336 12.6664C13.5675 11.9003 12.658 11.2926 11.6571 10.878C11.6346 10.8687 11.6121 10.8595 11.5895 10.8504ZM14.3214 0.415539C14.8616 0.283039 15.4196 0.229249 15.9782 0.257171C16.8271 0.299606 17.6561 0.52972 18.4054 0.930949C19.1547 1.33218 19.8058 1.89454 20.3117 2.57756C20.8176 3.26058 21.1658 4.04727 21.3312 4.881C21.4966 5.71473 21.4751 6.57476 21.2683 7.39919C21.0615 8.22362 20.6744 8.99194 20.1351 9.64885C19.7296 10.1427 19.2456 10.5643 18.7039 10.8975C19.6864 11.3116 20.5795 11.9122 21.3337 12.6664C22.0998 13.4325 22.7074 14.3419 23.122 15.3429L21.7362 15.9169C21.397 15.0979 20.8998 14.3538 20.273 13.727C19.6462 13.1002 18.9021 12.603 18.0832 12.2638C17.2642 11.9246 16.3865 11.75 15.5 11.75V10.25C15.5638 10.25 15.6275 10.2507 15.6911 10.2522V10.25C16.3194 10.25 16.9398 10.1107 17.5078 9.84218C18.0757 9.57364 18.5771 9.18252 18.9758 8.69698C19.3745 8.21143 19.6605 7.64354 19.8134 7.03418C19.9663 6.42482 19.9822 5.78914 19.8599 5.17291C19.7376 4.55668 19.4803 3.97521 19.1063 3.47037C18.7324 2.96553 18.2512 2.54987 17.6973 2.25331C17.1435 1.95675 16.5308 1.78667 15.9033 1.7553C15.4905 1.73466 15.078 1.77442 14.6787 1.87236L14.3214 0.415539Z" fill="white"/>
</svg>
