<svg width="80" height="80" viewBox="0 0 80 80" fill="none" xmlns="http://www.w3.org/2000/svg">
<path d="M33.9999 5C33.7347 5.00003 33.4803 5.10539 33.2928 5.29292C33.1053 5.48045 32.9999 5.73479 32.9999 6V9.38477C31.7542 10.0007 30.9348 10.9649 30.4765 12.0195C29.101 12.0494 25.6312 12.3688 22.6132 15.2363C20.5894 17.1588 19.4298 19.4119 18.7772 21.2617C18.451 22.1866 18.2509 23.0122 18.1347 23.6602C18.0184 24.3082 17.96 24.6516 18.0038 25.0977L17.9999 25V69.332C17.9998 69.5868 18.0969 69.832 18.2714 70.0176C18.2714 70.0176 19.7905 71.602 23.0604 73.0781C26.3303 74.5543 31.424 76.0009 38.7772 76.002C45.3317 76.002 49.7292 75.4657 52.5116 74.9199C55.294 74.3741 56.5507 73.7754 56.5507 73.7754C56.7188 73.6931 56.8605 73.5653 56.9596 73.4064C57.0587 73.2476 57.1112 73.0642 57.1112 72.877V67.2109C57.1114 67.0409 57.0682 66.8737 56.9858 66.725C56.9034 66.5764 56.7844 66.4512 56.6401 66.3612C56.4959 66.2713 56.3311 66.2197 56.1613 66.2111C55.9915 66.2026 55.8224 66.2375 55.6698 66.3125C55.6698 66.3125 55.3961 66.4274 54.9999 66.5645V56.4277C55.1812 56.392 55.4299 56.3582 55.5975 56.3223C57.0921 56.0016 58.0561 55.6763 58.6718 55.4121C59.2874 55.148 59.6503 54.8633 59.6503 54.8633C59.7597 54.7696 59.8476 54.6534 59.9079 54.5226C59.9683 54.3918 59.9996 54.2495 59.9999 54.1055V51H60.285C63.9951 51 66.9999 47.8994 66.9999 44.1328V38.498C66.9999 34.4622 64.5776 30.8311 60.8925 29.3672L60.8847 29.3633L56.9374 27.3555V23.9082C56.9375 23.8991 56.9375 23.89 56.9374 23.8809C56.9134 23.022 56.7045 18.8423 53.2675 15.4805C50.2887 12.566 46.8796 12.1234 45.5292 12.041C45.0723 10.9796 44.253 10.0062 42.9999 9.38672V6C42.9999 5.73479 42.8945 5.48045 42.707 5.29292C42.5194 5.10539 42.2651 5.00003 41.9999 5H33.9999ZM34.9999 7H40.9999V10C40.9972 10.195 41.0516 10.3866 41.1564 10.551C41.2612 10.7155 41.4119 10.8458 41.5897 10.9258L41.5819 10.9512C43.4047 11.5372 43.8952 12.8287 43.9472 14.1055C43.7295 14.2288 43.2932 14.3953 42.7225 14.5332C41.5719 14.8112 39.8796 15 37.9999 15C36.1202 15 34.4278 14.8113 33.2772 14.5332C32.7055 14.395 32.2698 14.227 32.0526 14.1035C32.1051 12.8274 32.596 11.5369 34.4179 10.9512L34.41 10.9258C34.5879 10.8458 34.7385 10.7155 34.8433 10.551C34.9481 10.3866 35.0026 10.195 34.9999 10V7ZM37.9999 9C37.7347 9 37.4803 9.10536 37.2928 9.29289C37.1052 9.48043 36.9999 9.73478 36.9999 10C36.9999 10.2652 37.1052 10.5196 37.2928 10.7071C37.4803 10.8946 37.7347 11 37.9999 11C38.2651 11 38.5195 10.8946 38.707 10.7071C38.8945 10.5196 38.9999 10.2652 38.9999 10C38.9999 9.73478 38.8945 9.48043 38.707 9.29289C38.5195 9.10536 38.2651 9 37.9999 9ZM30.0175 14.0371C30.013 14.1285 29.9999 14.2228 29.9999 14.3125C29.9999 15.1018 30.5597 15.5557 31.0487 15.8359C31.5378 16.1162 32.1179 16.3101 32.8065 16.4766C34.1838 16.8095 35.9906 17 37.9999 17C40.0092 17 41.8161 16.8113 43.1932 16.4785C43.8818 16.3121 44.4601 16.1179 44.9491 15.8379C45.4381 15.5579 45.9999 15.1022 45.9999 14.3125C45.9999 14.2374 45.9874 14.1583 45.9843 14.082C47.3774 14.2662 49.7854 14.8715 51.869 16.9102C54.742 19.7203 54.9174 23.2203 54.9374 23.9375V28C54.9341 28.2368 55.0149 28.467 55.1655 28.6498C55.3161 28.8326 55.5266 28.956 55.7597 28.998L59.9862 31.1504C60.0167 31.1657 60.048 31.1793 60.08 31.1914C62.072 31.9578 63.597 33.5404 64.3905 35.4863C63.2481 34.5602 61.8146 34 60.2499 34H38.6874C34.9482 34 31.9374 37.1688 31.9374 41V44C31.9374 45.9487 32.7189 47.7239 33.9765 49H33.1425C29.7536 49 26.9999 46.1903 26.9999 42.668V35.334C26.9999 31.8113 29.7525 29.0011 33.1405 29H33.1425C33.275 29.0019 33.4065 28.9774 33.5295 28.928C33.6525 28.8786 33.7644 28.8052 33.8588 28.7122C33.9531 28.6191 34.0281 28.5082 34.0792 28.386C34.1304 28.2637 34.1567 28.1325 34.1567 28C34.1567 27.8675 34.1304 27.7363 34.0792 27.614C34.0281 27.4918 33.9531 27.3809 33.8588 27.2878C33.7644 27.1948 33.6525 27.1214 33.5295 27.072C33.4065 27.0226 33.275 26.9981 33.1425 27C28.6434 27 24.9999 30.7574 24.9999 35.334V42.668C24.9999 47.2437 28.6434 51 33.1425 51H57.9999V53.5176C57.9343 53.5483 57.9998 53.524 57.8827 53.5742C57.415 53.7749 56.5739 54.0681 55.1796 54.3672C52.391 54.9654 47.3961 55.584 38.7772 55.584C36.3812 55.584 34.2806 55.4258 32.4452 55.1621C28.4069 54.5854 24.7772 57.7506 24.7772 61.7715V61.8379C24.7772 65.8032 27.7095 69.2026 31.6815 69.8203C33.7319 70.1408 36.0841 70.3359 38.7772 70.3359C45.3317 70.3359 49.7292 69.7997 52.5116 69.2539C54.3025 68.9026 54.5127 68.7374 55.1112 68.5156V72.1328C54.8526 72.2471 54.3457 72.5237 52.1268 72.959C49.4927 73.4757 45.2227 74.002 38.7772 74.002C31.6855 74.001 26.8905 72.6137 23.8827 71.2559C21.3048 70.0921 20.2935 69.1612 19.9999 68.875V25C20.0002 24.9674 19.9989 24.9348 19.996 24.9023C20.0103 25.0479 20.0056 24.5572 20.1034 24.0117C20.2012 23.4662 20.375 22.7394 20.662 21.9258C21.236 20.2986 22.2569 18.3321 23.9901 16.6855C26.1252 14.657 28.617 14.1566 30.0175 14.0371ZM37.16 27.4199C36.61 27.3199 36.0901 27.6807 35.9901 28.2207C35.8801 28.7607 36.2392 29.2806 36.7792 29.3906C36.8492 29.4006 36.9106 29.4004 36.9706 29.4004C37.4406 29.4004 37.8591 29.0698 37.9491 28.5898C38.0491 28.0498 37.7 27.5199 37.16 27.4199ZM40.9003 28.0801C40.3503 28.0101 39.8494 28.3895 39.7694 28.9395C39.6994 29.4895 40.0807 29.9905 40.6307 30.0605C40.6807 30.0705 40.7194 30.0703 40.7694 30.0703C41.2594 30.0703 41.6897 29.7109 41.7597 29.2109C41.8297 28.6609 41.4403 28.1601 40.9003 28.0801ZM52.119 28.0801C51.569 28.1801 51.2104 28.7002 51.3104 29.2402C51.3904 29.7302 51.809 30.0703 52.289 30.0703C52.349 30.0703 52.4008 30.0608 52.4608 30.0508C53.0108 29.9608 53.3692 29.4404 53.2792 28.9004C53.1792 28.3504 52.659 27.9901 52.119 28.0801ZM44.6503 28.4102C44.1003 28.3802 43.6295 28.8094 43.5995 29.3594C43.5795 29.9094 44.0104 30.3802 44.5604 30.4102H44.5995C45.1295 30.4102 45.5795 29.9892 45.5995 29.4492C45.6295 28.8992 45.2003 28.4302 44.6503 28.4102ZM48.4198 28.4492C47.8698 28.4692 47.4408 28.9305 47.4608 29.4805C47.4708 30.0205 47.9208 30.4492 48.4608 30.4492H48.4901C49.0401 30.4292 49.4708 29.9699 49.4608 29.4199C49.4408 28.8699 48.9798 28.4292 48.4198 28.4492ZM38.6874 36H40.1249C43.331 36 45.9999 38.8547 45.9999 42.5C45.9999 46.1453 43.331 49 40.1249 49H38.6874C36.0766 49 33.9374 46.7948 33.9374 44H35.2499C35.6639 44 35.9999 43.664 35.9999 43.25V41.75C35.9999 41.336 35.6639 41 35.2499 41H33.9374C33.9374 38.2052 36.0766 36 38.6874 36ZM52.9432 36C56.2645 36 58.9999 38.8677 58.9999 42.5C58.9999 46.1323 56.2645 49 52.9432 49C50.5687 49 48.5284 47.5287 47.5311 45.3535C47.829 44.4574 47.9999 43.4987 47.9999 42.5C47.9999 41.5013 47.829 40.5426 47.5311 39.6465C48.5284 37.4713 50.5687 36 52.9432 36ZM58.1229 36H60.2499C62.8607 36 64.9999 38.2052 64.9999 41V44C64.9999 46.4805 63.3135 48.4939 61.1093 48.916C60.8527 48.9625 60.5911 48.9939 60.3222 48.9961C60.2979 48.9965 60.2742 49 60.2499 49H58.1229C59.8834 47.4334 60.9999 45.0917 60.9999 42.5C60.9999 39.9083 59.8834 37.5666 58.1229 36ZM50.7499 41C50.3359 41 49.9999 41.336 49.9999 41.75V43.25C49.9999 43.664 50.3359 44 50.7499 44H52.2499C52.6639 44 52.9999 43.664 52.9999 43.25V41.75C52.9999 41.336 52.6639 41 52.2499 41H50.7499ZM52.9999 56.7773V67C52.9997 67.0319 53.001 67.0639 53.0038 67.0957C52.7148 67.1609 52.4739 67.2229 52.1268 67.291C51.282 67.4567 50.1991 67.6173 48.9999 67.7676V66C49.0017 65.8662 48.9767 65.7334 48.9263 65.6095C48.8759 65.4855 48.8011 65.373 48.7064 65.2785C48.6117 65.1839 48.499 65.1094 48.3749 65.0592C48.2509 65.009 48.118 64.9842 47.9843 64.9863C47.7194 64.9905 47.467 65.0995 47.2824 65.2896C47.0979 65.4796 46.9963 65.7351 46.9999 66V67.9941C45.3196 68.1475 43.2737 68.2433 40.9999 68.291V66C41.0017 65.8662 40.9767 65.7334 40.9263 65.6095C40.8759 65.4855 40.8011 65.373 40.7064 65.2785C40.6117 65.1839 40.499 65.1094 40.3749 65.0592C40.2509 65.009 40.118 64.9842 39.9843 64.9863C39.7194 64.9905 39.467 65.0995 39.2824 65.2896C39.0979 65.4796 38.9963 65.7351 38.9999 66V68.332C38.9197 68.3322 38.8581 68.3359 38.7772 68.3359C36.5667 68.3359 34.7313 68.1436 32.9999 67.916V66C33.0018 65.8675 32.9773 65.7359 32.9279 65.613C32.8785 65.49 32.8051 65.3781 32.712 65.2837C32.619 65.1893 32.5081 65.1144 32.3859 65.0632C32.2636 65.0121 32.1324 64.9858 31.9999 64.9858C31.8674 64.9858 31.7362 65.0121 31.6139 65.0632C31.4916 65.1144 31.3808 65.1893 31.2877 65.2837C31.1947 65.3781 31.1213 65.49 31.0719 65.613C31.0225 65.7359 30.998 65.8675 30.9999 66V67.5039C28.5255 66.6748 26.7772 64.4673 26.7772 61.8379V61.7715C26.7772 59.3387 28.6488 57.3605 30.9999 57.1211V59C30.998 59.1325 31.0225 59.2641 31.0719 59.387C31.1213 59.51 31.1947 59.6219 31.2877 59.7163C31.3808 59.8107 31.4916 59.8856 31.6139 59.9368C31.7362 59.9879 31.8674 60.0142 31.9999 60.0142C32.1324 60.0142 32.2636 59.9879 32.3859 59.9368C32.5081 59.8856 32.619 59.8107 32.712 59.7163C32.8051 59.6219 32.8785 59.51 32.9279 59.387C32.9773 59.2641 33.0018 59.1325 32.9999 59V57.2461C34.7289 57.4571 36.6397 57.584 38.7772 57.584C38.8554 57.584 38.9223 57.5821 38.9999 57.582V59C38.998 59.1325 39.0225 59.2641 39.0719 59.387C39.1213 59.51 39.1947 59.6219 39.2877 59.7163C39.3808 59.8107 39.4916 59.8856 39.6139 59.9368C39.7362 59.9879 39.8674 60.0142 39.9999 60.0142C40.1324 60.0142 40.2636 59.9879 40.3859 59.9368C40.5081 59.8856 40.619 59.8107 40.712 59.7163C40.8051 59.6219 40.8785 59.51 40.9279 59.387C40.9773 59.2641 41.0018 59.1325 40.9999 59V57.5645C43.2492 57.5349 45.2558 57.4658 46.9999 57.3613V59C46.998 59.1325 47.0225 59.2641 47.0719 59.387C47.1213 59.51 47.1947 59.6219 47.2877 59.7163C47.3808 59.8107 47.4916 59.8856 47.6139 59.9368C47.7362 59.9879 47.8674 60.0142 47.9999 60.0142C48.1324 60.0142 48.2636 59.9879 48.3859 59.9368C48.5081 59.8856 48.619 59.8107 48.712 59.7163C48.8051 59.6219 48.8785 59.51 48.9279 59.387C48.9773 59.2641 49.0018 59.1325 48.9999 59V57.2168C50.5397 57.0907 51.8675 56.9413 52.9999 56.7773ZM31.9999 61.5C31.4499 61.5 30.9999 61.95 30.9999 62.5C30.9999 63.05 31.4499 63.5 31.9999 63.5C32.5499 63.5 32.9999 63.05 32.9999 62.5C32.9999 61.95 32.5499 61.5 31.9999 61.5ZM39.9999 61.5C39.4499 61.5 38.9999 61.95 38.9999 62.5C38.9999 63.05 39.4499 63.5 39.9999 63.5C40.5499 63.5 40.9999 63.05 40.9999 62.5C40.9999 61.95 40.5499 61.5 39.9999 61.5ZM47.9999 61.5C47.4499 61.5 46.9999 61.95 46.9999 62.5C46.9999 63.05 47.4499 63.5 47.9999 63.5C48.5499 63.5 48.9999 63.05 48.9999 62.5C48.9999 61.95 48.5499 61.5 47.9999 61.5Z" fill="#6A6D8F"/>
</svg>
