<svg width="18" height="18" viewBox="0 0 18 18" fill="none" xmlns="http://www.w3.org/2000/svg">
<path d="M15.4588 7.05825L13.5176 8.99951L15.4588 10.9408L17.4001 8.99951L15.4588 7.05825Z" fill="#6A6D8F"/>
<path d="M2.54136 7.05947L0.600098 9.00073L2.54136 10.942L4.48262 9.00073L2.54136 7.05947Z" fill="#6A6D8F"/>
<path d="M8.99959 13.5194L5.78171 10.3015L3.84082 12.2424L8.99959 17.4012L14.1584 12.2424L12.2175 10.3015L8.99959 13.5194Z" fill="#6A6D8F"/>
<path d="M8.99959 4.48188L12.2175 7.69976L14.1584 5.75886L8.99959 0.600098L3.84082 5.75886L5.78171 7.69976L8.99959 4.48188Z" fill="#6A6D8F"/>
<path d="M8.99849 7.08379L7.08154 9.00073L8.99849 10.9177L10.9154 9.00073L8.99849 7.08379Z" fill="#6A6D8F"/>
</svg>
