<svg width="24" height="24" viewBox="0 0 24 24" fill="none" xmlns="http://www.w3.org/2000/svg">
<path d="M12 19L17 10" stroke="#1A1D29" stroke-width="1.5" stroke-linejoin="round"/>
<path d="M12 5V8" stroke="#1A1D29" stroke-width="1.5" stroke-linejoin="round"/>
<path d="M21.5 13L19.125 14.5" stroke="#1A1D29" stroke-width="1.5" stroke-linejoin="round"/>
<path d="M2.5 13L4.875 14.5" stroke="#1A1D29" stroke-width="1.5" stroke-linejoin="round"/>
<path d="M22 19V19.75C22.4142 19.75 22.75 19.4142 22.75 19H22ZM12 5V5.75V5ZM2 19H1.25C1.25 19.1989 1.32902 19.3897 1.46967 19.5303C1.61032 19.671 1.80109 19.75 2 19.75L2 19ZM12 19V18.25V19ZM22.75 19C22.75 18.3176 22.684 16.6436 22.5556 14.991C22.4913 14.1631 22.4105 13.3294 22.3127 12.6208C22.219 11.9412 22.0993 11.2907 21.9317 10.8862L20.5459 11.4602C20.6296 11.6623 20.7307 12.1293 20.8268 12.8258C20.9189 13.4932 20.9969 14.2942 21.0601 15.1072C21.1867 16.7364 21.25 18.3692 21.25 19H22.75ZM21.9317 10.8862C21.3915 9.5819 20.5996 8.39683 19.6014 7.3986L18.5407 8.45926C19.3997 9.3182 20.081 10.3379 20.5459 11.4602L21.9317 10.8862ZM19.6014 7.3986C18.6032 6.40037 17.4181 5.60853 16.1138 5.06829L15.5398 6.45411C16.6621 6.91897 17.6818 7.60032 18.5407 8.45926L19.6014 7.3986ZM16.1138 5.06829C14.8096 4.52806 13.4117 4.25 12 4.25V5.75C13.2147 5.75 14.4176 5.98926 15.5398 6.45411L16.1138 5.06829ZM12 4.25C10.5883 4.25 9.1904 4.52806 7.88615 5.0683L8.46018 6.45411C9.58244 5.98926 10.7853 5.75 12 5.75V4.25ZM7.88615 5.0683C6.5819 5.60853 5.39683 6.40037 4.3986 7.3986L5.45926 8.45926C6.3182 7.60032 7.33792 6.91897 8.46018 6.45411L7.88615 5.0683ZM4.3986 7.3986C3.40037 8.39683 2.60853 9.5819 2.06829 10.8862L3.45411 11.4602C3.91897 10.3379 4.60032 9.3182 5.45926 8.45926L4.3986 7.3986ZM2.06829 10.8862C1.90073 11.2907 1.78105 11.9412 1.68729 12.6208C1.58953 13.3294 1.50872 14.1631 1.4444 14.991C1.31601 16.6436 1.25 18.3176 1.25 19H2.75C2.75 18.3692 2.81332 16.7364 2.93989 15.1072C3.00305 14.2942 3.08114 13.4932 3.17322 12.8258C3.2693 12.1293 3.37041 11.6623 3.45411 11.4602L2.06829 10.8862ZM2 19.75L12 19.75V18.25L2 18.25L2 19.75ZM12 19.75H22V18.25H12V19.75Z" fill="#1A1D29"/>
</svg>
