<svg width="24" height="24" viewBox="0 0 24 24" fill="none" xmlns="http://www.w3.org/2000/svg">
<path d="M20.7944 9.23234C19.8378 9.78463 18.6147 9.45688 18.0624 8.50029C17.5101 7.54371 17.8378 6.32053 18.7944 5.76824L17.7944 4.03619C17.5183 3.5579 16.9067 3.39402 16.4284 3.67017L2.572 11.6702C2.09371 11.9463 1.92983 12.5579 2.20598 13.0362L3.20598 14.7682C4.16256 14.216 5.38574 14.5437 5.93803 15.5003C6.49031 16.4569 6.16256 17.6801 5.20598 18.2323L6.20598 19.9644C6.48212 20.4427 7.09371 20.6066 7.572 20.3304L21.4284 12.3304C21.9067 12.0543 22.0706 11.4427 21.7944 10.9644L20.7944 9.23234Z" stroke="#6A6D8F" stroke-width="1.5" stroke-linejoin="round"/>
<path d="M15.9736 12.8818L12.0986 6.17014" stroke="#6A6D8F" stroke-width="1.5"/>
</svg>
