<svg width="24" height="24" viewBox="0 0 24 24" fill="none" xmlns="http://www.w3.org/2000/svg">
<circle cx="8.5" cy="10" r="5" stroke="#6A6D8F" stroke-width="1.5"/>
<path d="M15.6911 15C16.4302 15 17.1601 14.8361 17.8283 14.5202C18.4965 14.2043 19.0864 13.7441 19.5554 13.1729C20.0244 12.6017 20.361 11.9336 20.5408 11.2167C20.7207 10.4998 20.7394 9.75194 20.5955 9.02695C20.4517 8.30197 20.1489 7.6179 19.709 7.02397C19.269 6.43004 18.7029 5.94102 18.0513 5.59213C17.3998 5.24323 16.6789 5.04314 15.9407 5.00624C15.455 4.98196 14.9697 5.02873 14.5 5.14395" stroke="#6A6D8F" stroke-width="1.5"/>
<path d="M15.429 19.6299C15.0521 18.7199 14.4996 17.8931 13.8032 17.1967C13.1068 16.5003 12.28 15.9478 11.37 15.5709C10.4601 15.194 9.48481 15 8.4999 15C7.51498 15 6.53971 15.194 5.62977 15.5709C4.71983 15.9478 3.89304 16.5003 3.1966 17.1967C2.50016 17.8931 1.94771 18.7199 1.5708 19.6299" stroke="#6A6D8F" stroke-width="1.5"/>
<path d="M22.4291 19.6299C22.0522 18.7199 21.4997 17.8931 20.8033 17.1967C20.1069 16.5003 19.2801 15.9478 18.3701 15.5709C17.4602 15.194 16.4849 15 15.5 15" stroke="#6A6D8F" stroke-width="1.5"/>
</svg>
