<svg width="24" height="24" viewBox="0 0 24 24" fill="none" xmlns="http://www.w3.org/2000/svg">
<path fill-rule="evenodd" clip-rule="evenodd" d="M14.2662 3.30462C14.1928 3.07865 14.1043 2.86417 14.0019 2.66162L12.6631 3.33817C12.7302 3.47089 12.7896 3.61406 12.8396 3.76814L13.9357 7.1415L14.1041 7.65974H14.649H18.1959C20.8599 7.65974 21.9676 11.0687 19.8124 12.6345L16.9428 14.7194L16.502 15.0397L16.6704 15.5579L17.7664 18.9313C17.9817 19.5938 17.9442 20.209 17.7461 20.736L19.1502 21.2638C19.467 20.4208 19.5142 19.4562 19.193 18.4677L18.2653 15.6126L20.694 13.8481C24.0248 11.4281 22.313 6.15974 18.1959 6.15974H15.1939L14.2662 3.30462ZM11.4129 4.23166C11.0387 3.08002 9.40949 3.08002 9.0353 4.23166L7.43407 9.15973H2.2524C1.04149 9.15973 0.538022 10.7092 1.51766 11.421L5.70973 14.4667L4.1085 19.3948C3.73431 20.5464 5.05241 21.5041 6.03205 20.7923L10.2241 17.7466L14.4162 20.7923C15.3958 21.5041 16.7139 20.5464 16.3397 19.3948L14.7385 14.4667L18.9306 11.421C19.9102 10.7092 19.4067 9.15973 18.1958 9.15973H13.0142L11.4129 4.23166ZM8.80453 9.796L10.2241 5.42695L11.6437 9.796C11.8111 10.311 12.291 10.6597 12.8325 10.6597H17.4264L13.7099 13.3599C13.2718 13.6783 13.0885 14.2425 13.2558 14.7575L14.6754 19.1265L10.9589 16.4263C10.5207 16.108 9.9275 16.108 9.48939 16.4263L5.77285 19.1265L7.19244 14.7575C7.35978 14.2425 7.17646 13.6783 6.73835 13.3599L3.02182 10.6597H7.61571C8.15724 10.6597 8.63719 10.311 8.80453 9.796Z" fill="#6A6D8F"/>
</svg>
