<svg width="24" height="24" viewBox="0 0 24 24" fill="none" xmlns="http://www.w3.org/2000/svg">
<path fill-rule="evenodd" clip-rule="evenodd" d="M5 5.75C4.58587 5.75 4.25 6.08583 4.25 6.50012C4.25 6.91426 4.58571 7.25 5 7.25H19.5V7.25008L20.5 7.25004C20.6989 7.25003 20.8897 7.32904 21.0303 7.4697C21.171 7.61035 21.25 7.80112 21.25 8.00004V20C21.25 20.4143 20.9142 20.75 20.5 20.75H5.5C3.98122 20.75 2.75 19.5188 2.75 18V6.50012C2.75 5.25756 3.75728 4.25 5 4.25H19.5V5.75H5ZM4.25 8.62198V18C4.25 18.6904 4.80964 19.25 5.5 19.25H19.75V13.25H17C16.5858 13.25 16.25 13.5858 16.25 14C16.25 14.4142 16.5858 14.75 17 14.75H18.625V16.25H17C15.7574 16.25 14.75 15.2426 14.75 14C14.75 12.7574 15.7574 11.75 17 11.75H19.75V8.75007L18.5 8.75012V8.75H5C4.73703 8.75 4.48459 8.70489 4.25 8.62198Z" fill="#38405B"/>
</svg>
