<svg width="40" height="40" viewBox="0 0 40 40" fill="none" xmlns="http://www.w3.org/2000/svg">
<rect width="40" height="40" rx="20" fill="#F5F5FD"/>
<path fill-rule="evenodd" clip-rule="evenodd" d="M9.64696 11.3896C9.80924 11.1462 10.0824 11 10.375 11H29.625C29.9176 11 30.1908 11.1462 30.353 11.3896L33.853 16.6396C34.0731 16.9697 34.0436 17.4065 33.7811 17.7039L20.6561 32.5789C20.49 32.7672 20.2511 32.875 20 32.875C19.7489 32.875 19.51 32.7672 19.3439 32.5789L6.2189 17.7039C5.95645 17.4065 5.92693 16.9697 6.14696 16.6396L9.64696 11.3896ZM12.2432 12.75L14.8088 15.8288L17.8876 12.75H12.2432ZM20 13.1124L16.8624 16.25H23.1376L20 13.1124ZM24.0133 18L20 29.3709L15.9867 18H24.0133ZM12.8818 16.25H8.50996L10.453 13.3354L12.8818 16.25ZM8.81398 18H14.1309L17.6756 28.0431L8.81398 18ZM22.3244 28.0431L25.8691 18H31.186L22.3244 28.0431ZM31.49 16.25H27.1182L29.547 13.3354L31.49 16.25ZM27.7568 12.75H22.1124L25.1912 15.8288L27.7568 12.75Z" fill="#6A6D8F"/>
</svg>
