<svg width="18" height="14" viewBox="0 0 18 14" fill="none" xmlns="http://www.w3.org/2000/svg">
<path d="M12.2316 2.05928C11.6686 1.89117 11.1004 1.76968 10.5224 1.6945C10.238 1.65955 9.95106 1.63737 9.65867 1.62395C9.18724 1.6041 8.71689 1.61522 8.24948 1.65924C7.89249 1.69286 7.53532 1.74014 7.17503 1.79701L7.17473 1.79706C6.68809 1.87363 6.20953 1.98986 5.73452 2.14222L5.73222 2.14296L5.73222 2.14296C4.99567 2.37598 4.28218 2.69922 3.5821 3.08611L3.568 3.0939L3.5535 3.10094C3.55351 3.10094 3.5532 3.10109 3.55248 3.10145C3.55184 3.10177 3.55086 3.10226 3.54949 3.10296L3.53754 3.10913L3.53536 3.11027C3.52564 3.11531 3.51046 3.12319 3.4942 3.13126L2.7965 3.4777C2.48593 4.26989 2.22336 5.08259 2.00249 5.91507L2.00247 5.91514C1.83966 6.52851 1.70022 7.14945 1.59012 7.77344C1.50602 8.25351 1.43383 8.72807 1.38668 9.20061L1.38665 9.20088C1.35523 9.51439 1.32808 9.83152 1.30723 10.1455C1.29365 10.378 1.28713 10.6098 1.28032 10.8523C1.27895 10.9009 1.27757 10.9499 1.27612 10.9995C1.27563 11.0229 1.27592 11.0481 1.27672 11.08C1.28961 11.1002 1.30197 11.1188 1.316 11.1385L1.31636 11.1391C1.61837 11.5661 1.98915 11.9158 2.41655 12.2064C3.15431 12.7068 3.96278 12.9651 4.83941 13.0403C4.93636 12.9106 5.03339 12.781 5.13028 12.6516L5.1312 12.6504L5.13128 12.6503C5.13781 12.6416 5.14433 12.6329 5.15086 12.6241C4.63615 12.375 4.15359 12.0507 3.71831 11.6353C3.49227 11.4202 3.2829 11.1815 3.09886 10.9088C3.07907 10.8796 3.06412 10.8537 3.05557 10.8386L3.04458 10.8189L3.04174 10.8138L3.04102 10.8125L3.0408 10.8121L2.519 9.90008H3.56972C3.74075 9.90008 3.86065 9.96578 3.89199 9.98294L3.89394 9.98401L3.91045 9.99303L3.92638 10.0031C3.99141 10.044 4.05403 10.0838 4.11527 10.1226C4.24831 10.2071 4.37488 10.2875 4.50572 10.3668L4.50649 10.3672C4.8317 10.5648 5.18192 10.7292 5.55565 10.888L5.55581 10.888C6.60701 11.335 7.68781 11.6022 8.80475 11.6701L8.80528 11.6702C9.3 11.7007 9.79563 11.6877 10.2926 11.6329L10.2928 11.6329C10.7441 11.5834 11.194 11.4901 11.6517 11.3673L11.6527 11.3671C12.2197 11.216 12.7731 10.9931 13.3418 10.735L13.342 10.735C13.755 10.5477 14.1515 10.3134 14.538 10.04L14.5463 10.0342L14.5463 10.0342C14.5631 10.0227 14.5795 10.0123 14.5872 10.0073L14.5973 10.0008C14.5989 9.99977 14.5997 9.99925 14.5999 9.99912L12.2316 2.05928ZM12.2316 2.05928C13.0476 2.30358 13.8292 2.64485 14.581 3.08022C14.6367 3.11433 14.7919 3.20101 15.0096 3.17722L15.4725 3.12665C15.5256 3.25614 15.5774 3.38685 15.628 3.51875L15.6284 3.51985C15.9974 4.47647 16.3038 5.45556 16.5456 6.45957C16.6815 7.0282 16.798 7.59912 16.8893 8.17269L16.8893 8.17306C16.9577 8.60087 17.0118 9.03444 17.0535 9.46932L17.0535 9.46939C17.1047 10.0028 17.1334 10.5383 17.1397 11.076C16.9299 11.3794 16.6799 11.6474 16.396 11.8896L12.2316 2.05928ZM0.818818 11.4909C1.16749 11.984 1.59318 12.3835 2.07448 12.7107L0.818818 11.4909ZM0.818818 11.4909C0.782554 11.4397 0.748426 11.3851 0.71417 11.3302C0.699929 11.3074 0.685666 11.2845 0.671219 11.2619L0.818818 11.4909ZM6.23934 6.26588L6.1378 5.66502C5.56318 5.76213 5.11635 6.09246 4.80607 6.55326C4.4328 7.10367 4.30773 7.72702 4.39713 8.37513L4.39728 8.37623C4.48226 8.98413 4.75155 9.51683 5.22767 9.91569L5.22948 9.9172C5.64562 10.2631 6.14523 10.4243 6.68892 10.3625L6.69119 10.3622C7.27604 10.2935 7.74277 9.98785 8.08022 9.53416L8.08086 9.5333C8.29473 9.24469 8.43257 8.92998 8.50589 8.5998H8.5676L8.57282 7.99568C8.57829 7.36258 8.36476 6.7434 7.92601 6.28306C7.45008 5.78228 6.83366 5.54625 6.13681 5.66519L6.23934 6.26588ZM6.23934 6.26588C6.7185 6.18409 7.13563 6.33598 7.4843 6.70286L5.00079 8.29186C4.9302 7.78011 5.0286 7.31042 5.31096 6.89447C5.54199 6.55097 5.85216 6.33131 6.23934 6.26588ZM14.5999 9.99908L14.5999 9.9991L13.8455 11.8448C13.8919 11.8238 13.9381 11.8022 13.9841 11.7803L14.2205 12.1099C14.2208 12.1096 14.2211 12.1094 14.2215 12.1092C14.6227 11.8212 14.9968 11.4787 15.3158 11.055C15.3572 11.0006 15.3994 10.9391 15.4296 10.8949C15.4382 10.8824 15.4458 10.8713 15.4522 10.8621L15.7006 10.505L15.4436 10.1541L15.435 10.1424L15.0867 9.66675L14.5999 9.99908ZM13.5734 13.0264C13.4799 12.9019 13.3863 12.7774 13.2925 12.6528L16.396 11.8896C15.8141 12.3848 15.1586 12.7058 14.4331 12.8857L14.4313 12.8861C14.1534 12.9559 13.8686 13.0001 13.5734 13.0264ZM13.9847 11.7799C14.4244 11.5696 14.8398 11.319 15.2356 11.0394C15.2377 11.0379 15.2398 11.0364 15.2419 11.035L13.9847 11.7799ZM9.78485 8.63017C9.88826 9.06719 10.0989 9.4655 10.435 9.79452L11.9572 9.75702L12.024 10.3627C12.0243 10.3627 12.0246 10.3627 12.0249 10.3626C12.6492 10.2935 13.1368 9.95453 13.4746 9.45772C13.8311 8.93682 13.9555 8.34721 13.8965 7.74078C13.8439 7.18636 13.6321 6.68591 13.2491 6.27696L13.2488 6.27672C12.4755 5.45186 11.2431 5.41192 10.4301 6.21259L10.4289 6.21376C9.92818 6.70959 9.72033 7.33336 9.70723 8.00898L9.69518 8.63017H9.78485Z" fill="#38405B" stroke="#38405B" stroke-width="1.21876"/>
</svg>
