<svg width="18" height="14" viewBox="0 0 18 14" fill="none" xmlns="http://www.w3.org/2000/svg">
<path d="M14.9006 1.67902C13.7837 1.16767 12.6046 0.804898 11.3934 0.599976C11.2276 0.896263 11.0777 1.2011 10.9441 1.51322C9.65397 1.31881 8.34196 1.31881 7.05181 1.51322C6.91817 1.20113 6.76821 0.896298 6.60254 0.599976C5.39057 0.806628 4.21068 1.17026 3.09264 1.68169C0.87304 4.96563 0.271342 8.168 0.572191 11.3249C1.87204 12.2853 3.32695 13.0157 4.87366 13.4843C5.22193 13.0159 5.53011 12.519 5.79493 11.9988C5.29195 11.811 4.80649 11.5792 4.34417 11.3062C4.46584 11.2179 4.58485 11.127 4.69984 11.0388C6.0451 11.6714 7.51338 11.9994 8.99997 11.9994C10.4866 11.9994 11.9548 11.6714 13.3001 11.0388C13.4164 11.1337 13.5354 11.2246 13.6558 11.3062C13.1926 11.5796 12.7062 11.8118 12.2023 12.0001C12.4668 12.5201 12.775 13.0166 13.1236 13.4843C14.6716 13.0176 16.1277 12.2875 17.4277 11.3262C17.7807 7.66524 16.8247 4.49229 14.9006 1.67902ZM6.176 9.38343C5.33764 9.38343 4.64502 8.62261 4.64502 7.68664C4.64502 6.75066 5.31357 5.98316 6.17333 5.98316C7.03309 5.98316 7.72036 6.75066 7.70565 7.68664C7.69094 8.62261 7.03041 9.38343 6.176 9.38343ZM11.8239 9.38343C10.9842 9.38343 10.2943 8.62261 10.2943 7.68664C10.2943 6.75066 10.9628 5.98316 11.8239 5.98316C12.685 5.98316 13.367 6.75066 13.3522 7.68664C13.3375 8.62261 12.6783 9.38343 11.8239 9.38343Z" fill="white"/>
</svg>
