<svg width="24" height="24" viewBox="0 0 24 24" fill="none" xmlns="http://www.w3.org/2000/svg">
<path fill-rule="evenodd" clip-rule="evenodd" d="M4.75 4.5C4.75 3.5335 5.5335 2.75 6.5 2.75H15.5C17.5711 2.75 19.25 4.42893 19.25 6.5V8.75012H17.75L14.3 8.75008C13.7201 8.75008 13.25 8.27998 13.25 7.70008V4.25H6.5C6.36193 4.25 6.25 4.36193 6.25 4.5V19.5C6.25 19.6381 6.36193 19.75 6.5 19.75H17.5C17.6381 19.75 17.75 19.6381 17.75 19.5V10.5001H19.25V19.5C19.25 20.4665 18.4665 21.25 17.5 21.25H6.5C5.5335 21.25 4.75 20.4665 4.75 19.5V4.5ZM14.75 4.25V7.25008H17.75V6.5C17.75 5.25736 16.7426 4.25 15.5 4.25H14.75Z" fill="#38405B"/>
</svg>
