<svg width="16" height="14" viewBox="0 0 16 14" fill="none" xmlns="http://www.w3.org/2000/svg">
<path fill-rule="evenodd" clip-rule="evenodd" d="M0 1.25C0 0.835786 0.335786 0.5 0.75 0.5H4.75C5.16421 0.5 5.5 0.835786 5.5 1.25V5.25C5.5 5.66421 5.16421 6 4.75 6H0.75C0.335786 6 0 5.66421 0 5.25V1.25ZM1.5 2V4.5H4V2H1.5ZM16 4H7V2.5H16V4ZM0 8.75C0 8.33579 0.335786 8 0.75 8H4.75C5.16421 8 5.5 8.33579 5.5 8.75V12.75C5.5 13.1642 5.16421 13.5 4.75 13.5H0.75C0.335786 13.5 0 13.1642 0 12.75V8.75ZM1.5 9.5V12H4V9.5H1.5ZM16 11.5H7V10H16V11.5Z" fill="white"/>
</svg>
