<svg width="24" height="24" viewBox="0 0 24 24" fill="none" xmlns="http://www.w3.org/2000/svg">
<path fill-rule="evenodd" clip-rule="evenodd" d="M7 6.75C6.86193 6.75 6.75 6.86193 6.75 7V17C6.75 17.1381 6.86193 17.25 7 17.25H17C17.1381 17.25 17.25 17.1381 17.25 17V11.4H18.75V17C18.75 17.9665 17.9665 18.75 17 18.75H7C6.0335 18.75 5.25 17.9665 5.25 17V7C5.25 6.0335 6.0335 5.25 7 5.25H12.6V6.75H7Z" fill="#38405B"/>
<path fill-rule="evenodd" clip-rule="evenodd" d="M14.5 3.75L19.5 3.74997C19.6989 3.74997 19.8896 3.82899 20.0303 3.96964C20.171 4.11029 20.25 4.30106 20.25 4.49997L20.25 9.5H18.75L18.75 5.24998L14.5 5.25L14.5 3.75ZM18.0303 7.03036L13.5303 11.5303L12.4697 10.4697L16.9696 5.9697L18.0303 7.03036Z" fill="#38405B"/>
</svg>
