<svg width="32" height="32" viewBox="0 0 32 32" fill="none" xmlns="http://www.w3.org/2000/svg">
<path fill-rule="evenodd" clip-rule="evenodd" d="M16 30.5C24.0081 30.5 30.5 24.0081 30.5 16C30.5 7.99187 24.0081 1.5 16 1.5C7.99187 1.5 1.5 7.99187 1.5 16C1.5 24.0081 7.99187 30.5 16 30.5ZM16 32C24.8366 32 32 24.8366 32 16C32 7.16344 24.8366 0 16 0C7.16344 0 0 7.16344 0 16C0 24.8366 7.16344 32 16 32Z" fill="#38405B"/>
<path d="M4.54959 11.9H5.97959L10.0746 18.192C10.2826 18.5473 10.4126 18.7857 10.4646 18.907V11.9H11.8296V21H10.3866L6.29159 14.682C6.08359 14.3267 5.95359 14.0883 5.90159 13.967V21H4.54959V11.9Z" fill="#38405B"/>
<path d="M14.0499 11.9H20.1859V13.148H15.4539V15.93H19.7959V17.178H15.4539V21H14.0499V11.9Z" fill="#38405B"/>
<path d="M24.0667 13.187H21.2717V11.9H28.2657V13.187H25.4707V21H24.0667V13.187Z" fill="#38405B"/>
</svg>
