<svg width="40" height="40" viewBox="0 0 40 40" fill="none" xmlns="http://www.w3.org/2000/svg">
<path fill-rule="evenodd" clip-rule="evenodd" d="M17.1508 14.4362C17.1663 14.4103 17.1866 14.386 17.2086 14.3642C17.2242 14.3485 17.2407 14.334 17.2573 14.3212C17.2956 14.2913 17.3424 14.27 17.3893 14.2573C17.4234 14.2487 17.4574 14.2445 17.4915 14.2445C17.5767 14.2445 17.6576 14.27 17.7258 14.3212C17.7641 14.351 17.8025 14.3893 17.828 14.4319L19.3017 16.8342C19.3188 16.864 19.3358 16.898 19.3486 16.9279C19.3741 16.9832 19.3912 17.0429 19.3997 17.1025C19.4012 17.1055 19.4022 17.1092 19.4032 17.1129C19.4051 17.1196 19.407 17.1268 19.4125 17.1323C19.4338 17.2942 19.404 17.4645 19.3188 17.6136L17.8578 20.1692L17.828 20.2118C17.8195 20.2246 17.8067 20.2373 17.7939 20.2501C17.7726 20.2714 17.7513 20.2885 17.7258 20.3055C17.7104 20.3158 17.6945 20.3248 17.6782 20.3326C17.693 20.3258 17.7075 20.3182 17.7215 20.3098C17.6619 20.3524 17.5895 20.3736 17.5086 20.3736C17.5428 20.3717 17.5762 20.3664 17.6084 20.3577C17.5775 20.3655 17.5456 20.3694 17.5128 20.3694H17.5086C17.4191 20.3694 17.3382 20.3396 17.27 20.2885C17.2445 20.2672 17.2189 20.2416 17.1976 20.2161C17.1849 20.2033 17.1763 20.1905 17.1678 20.1735L15.6685 17.6136C15.6345 17.5625 15.6132 17.5029 15.5961 17.4475L15.5884 17.4151C15.5812 17.3858 15.5737 17.3549 15.5706 17.324C15.5663 17.2899 15.5663 17.2558 15.5663 17.2218C15.5706 17.0855 15.6089 16.9492 15.6813 16.8299L17.155 14.4319L17.1636 14.4184L17.1508 14.4362ZM17.6065 19.164C17.5597 19.2449 17.4447 19.2449 17.3978 19.164L16.3202 17.3197C16.2989 17.2814 16.2989 17.2345 16.3202 17.1962L17.385 15.4627C17.4319 15.386 17.5426 15.386 17.5895 15.4627L18.6543 17.1962C18.6756 17.2345 18.6799 17.2814 18.6543 17.3197L17.6065 19.164Z" fill="#38405B"/>
<path d="M17.5086 20.3736C17.4191 20.3736 17.3382 20.3438 17.27 20.2927C17.3339 20.3438 17.4191 20.3736 17.5086 20.3736Z" fill="#38405B"/>
<path d="M17.27 20.2927C17.2445 20.2714 17.2189 20.2459 17.1976 20.2203C17.2189 20.2459 17.2402 20.2714 17.27 20.2927Z" fill="#38405B"/>
<path d="M17.1678 20.1777C17.1763 20.1948 17.1849 20.2075 17.1976 20.2203L17.1678 20.1777Z" fill="#38405B"/>
<path d="M15.6771 16.8342C15.6046 16.9534 15.5663 17.0897 15.5621 17.226C15.5621 17.0897 15.6004 16.9534 15.6771 16.8342Z" fill="#38405B"/>
<path fill-rule="evenodd" clip-rule="evenodd" d="M13.5474 14.5639C13.2961 14.4276 12.9979 14.3552 12.6615 14.3552H11.3112C11.0003 14.3552 10.749 14.6065 10.749 14.9175V20.1777C10.749 20.2374 10.7618 20.2885 10.7916 20.3268C10.8214 20.3651 10.864 20.3864 10.9194 20.3864H11.2814C11.3368 20.3864 11.3794 20.3651 11.4092 20.3268C11.439 20.2885 11.4561 20.2374 11.4561 20.1777V18.2014C11.4561 18.1162 11.5242 18.0438 11.6137 18.0438H12.6615C13.0022 18.0438 13.3004 17.9757 13.5474 17.8351C13.7987 17.6988 13.9946 17.4901 14.1309 17.2218C14.2672 16.9534 14.3396 16.6127 14.3396 16.2038C14.3396 15.7991 14.2715 15.4541 14.1309 15.1815C13.9946 14.9089 13.7987 14.7002 13.5474 14.5639ZM13.377 17.0216C13.2109 17.209 12.9553 17.3027 12.6231 17.3027H11.6094C11.52 17.3027 11.4475 17.2303 11.4475 17.1408V15.2667C11.4475 15.1773 11.52 15.1049 11.6094 15.1049H12.6231C12.9681 15.1049 13.2237 15.2028 13.3855 15.3945C13.5474 15.5862 13.6283 15.8588 13.6283 16.2123C13.6283 16.5616 13.5474 16.8342 13.377 17.0216Z" fill="#38405B"/>
<path fill-rule="evenodd" clip-rule="evenodd" d="M23.0755 14.4106C23.1053 14.4447 23.1351 14.4915 23.1522 14.5512L24.8474 20.1011C24.8559 20.1394 24.8602 20.1692 24.8602 20.199C24.8602 20.2501 24.8474 20.2927 24.8176 20.3268C24.7877 20.3651 24.7494 20.3822 24.7111 20.3822H24.3618C24.3064 20.3822 24.2596 20.3651 24.234 20.3268C24.2085 20.2927 24.1914 20.2586 24.1829 20.2288L23.8464 19.147C23.8209 19.0703 23.7527 19.0192 23.6718 19.0192H21.704C21.6231 19.0192 21.5549 19.0703 21.5294 19.147L21.1929 20.2288C21.1886 20.2586 21.1716 20.2927 21.1418 20.3268C21.1119 20.3651 21.0694 20.3822 21.0097 20.3822H20.6605C20.6179 20.3822 20.5838 20.3651 20.554 20.3268C20.5242 20.2885 20.5114 20.2459 20.5114 20.199C20.5114 20.1735 20.5156 20.1394 20.5199 20.1053L22.2236 14.5512C22.2407 14.4958 22.2662 14.4447 22.3003 14.4106C22.3344 14.3723 22.3855 14.3552 22.4536 14.3552H22.9222C22.9903 14.3552 23.0414 14.3723 23.0755 14.4106ZM23.5099 18.261C23.5312 18.261 23.5525 18.2525 23.5653 18.2355C23.5781 18.2184 23.5824 18.1971 23.5738 18.1758L22.7518 15.4754C22.7433 15.4414 22.7092 15.4286 22.6879 15.4286C22.6666 15.4286 22.6368 15.4414 22.624 15.4754L21.802 18.1758C21.7934 18.1971 21.7977 18.2184 21.8105 18.2355C21.8233 18.2525 21.8445 18.261 21.8658 18.261H23.5099Z" fill="#38405B"/>
<path fill-rule="evenodd" clip-rule="evenodd" d="M28.1782 14.3552C28.5146 14.3552 28.8128 14.4276 29.0641 14.5639C29.3154 14.7002 29.5113 14.9089 29.6434 15.1815C29.7839 15.4541 29.8521 15.7991 29.8521 16.2038C29.8521 16.6084 29.7797 16.9534 29.6434 17.2218C29.5071 17.4901 29.3111 17.6988 29.0598 17.8351C28.8128 17.9757 28.5146 18.0438 28.1739 18.0438H27.1261C27.0367 18.0438 26.9685 18.1162 26.9685 18.2014V20.1777C26.9685 20.2374 26.9515 20.2885 26.9217 20.3268C26.8918 20.3651 26.8493 20.3864 26.7939 20.3864H26.4318C26.3765 20.3864 26.3339 20.3651 26.3041 20.3268C26.2742 20.2885 26.2615 20.2374 26.2615 20.1777V14.9175C26.2615 14.6065 26.5128 14.3552 26.8237 14.3552H28.1782ZM28.1441 17.3027C28.4763 17.3027 28.7319 17.209 28.898 17.0216C29.0641 16.8342 29.1493 16.5616 29.1493 16.2123C29.1493 15.8588 29.0684 15.5862 28.9065 15.3945C28.7447 15.2028 28.4891 15.1049 28.1441 15.1049H27.1304C27.0409 15.1049 26.9685 15.1773 26.9685 15.2667V17.1408C26.9685 17.2303 27.0409 17.3027 27.1304 17.3027H28.1441Z" fill="#38405B"/>
<path fill-rule="evenodd" clip-rule="evenodd" d="M33.9368 14.121L34.4862 15.0751C35.172 16.2634 35.172 17.7371 34.482 18.9212L33.9325 19.8753C33.6556 20.3609 33.5066 20.9146 33.5066 21.4726V22.5757C33.5066 23.9472 32.7697 25.225 31.5814 25.9108L30.6273 26.4602C30.146 26.7371 29.7413 27.1417 29.4602 27.6273L28.9108 28.5814C28.685 28.969 28.3996 29.3097 28.0674 29.5908L30.4825 36.2098C30.6571 36.6954 30.163 37.1511 29.6945 36.9339L26.1252 35.2728C25.8355 35.1407 25.4948 35.2642 25.3585 35.5539L23.6931 39.1232C23.4759 39.5917 22.7986 39.5619 22.624 39.0763L20.0429 32.0016H19.9875C19.9683 32.0016 19.9502 32.0005 19.9321 31.9995C19.914 31.9984 19.8959 31.9973 19.8767 31.9973C19.9066 32.0016 19.9406 32.0016 19.9747 32.0016C19.9832 32.0016 19.9832 32.0101 19.9832 32.0144L17.4191 39.055C17.2402 39.5449 16.5587 39.5747 16.3372 39.1019L14.6846 35.5624C14.5483 35.2685 14.1991 35.1407 13.9052 35.277L10.3614 36.9254C9.88438 37.1469 9.38178 36.6826 9.56067 36.1928L11.9501 29.6249C11.9501 29.6221 11.9537 29.6194 11.9574 29.6189L11.9544 29.6164C11.6137 29.331 11.3155 28.986 11.0855 28.5856L10.5361 27.6315C10.2592 27.1502 9.85456 26.7456 9.369 26.4645L8.41491 25.915C7.22656 25.2293 6.4897 23.9515 6.4897 22.58V21.4768C6.4897 20.9146 6.34488 20.3651 6.06377 19.8796L5.51431 18.9255C4.82856 17.7371 4.82856 16.2634 5.51431 15.0751L6.06377 14.121C6.34062 13.6354 6.4897 13.0817 6.4897 12.5237V11.4206C6.4897 10.0491 7.22656 8.77126 8.41491 8.08551L9.369 7.53605C9.8503 7.2592 10.2549 6.85456 10.5361 6.369L11.0855 5.41491C11.7713 4.22656 13.0491 3.4897 14.4206 3.4897H15.5237C16.0859 3.4897 16.6354 3.34488 17.121 3.06377L18.0751 2.51431C19.2634 1.82856 20.7371 1.82856 21.9255 2.51431L22.8796 3.06377C23.3651 3.34062 23.9188 3.4897 24.4768 3.4897H25.58C26.9515 3.4897 28.2293 4.22656 28.915 5.41491L29.4645 6.369C29.7413 6.8503 30.146 7.25494 30.6315 7.53605L31.5856 8.08551C32.774 8.77126 33.5108 10.0491 33.5108 11.4206V12.5237C33.5108 13.0859 33.6556 13.6354 33.9368 14.121ZM17.0145 38.233L19.3017 31.9462C19.2081 31.9292 19.1143 31.9121 19.0249 31.8866C18.6969 31.8014 18.3732 31.6694 18.0708 31.4947L17.1167 30.9453C16.6311 30.6684 16.0774 30.5194 15.5195 30.5194H14.4163C13.837 30.5194 13.2748 30.3873 12.7679 30.1445C12.6828 30.1019 12.5976 30.0593 12.5166 30.0125V30.0168L10.3998 35.8307C10.3699 35.9159 10.404 36.0096 10.4849 36.0565C10.5403 36.0863 10.6085 36.082 10.6638 36.0565L13.6326 34.6765C13.82 34.587 14.0202 34.5487 14.2246 34.5614C14.6846 34.587 15.0978 34.8809 15.3065 35.3281L16.6695 38.2458C16.7036 38.3139 16.7717 38.3608 16.8484 38.3565C16.925 38.3522 16.9889 38.3054 17.0145 38.233ZM19.3367 31.9524C19.3677 31.9587 19.3974 31.9643 19.4295 31.9675C19.4083 31.9633 19.3871 31.9601 19.3658 31.9569L19.3367 31.9524ZM29.5837 36.0267C29.6391 35.9755 29.6562 35.8989 29.6306 35.8265L27.5094 29.9955C27.4243 30.0423 27.3433 30.0849 27.2582 30.1275C26.7385 30.3788 26.1678 30.5151 25.5757 30.5151H24.4726C23.9103 30.5151 23.3609 30.6599 22.8753 30.941L21.9212 31.4905C21.6316 31.6609 21.3207 31.7886 21.0012 31.8738C20.9075 31.8994 20.8181 31.9207 20.7243 31.9377L23.0201 38.2372C23.0457 38.3097 23.1096 38.3565 23.1862 38.3608H23.1948C23.2672 38.3608 23.3311 38.3182 23.3609 38.2543L24.7494 35.277C24.8261 35.1109 24.9368 34.9703 25.0774 34.8511L25.0929 34.8392L25.1327 34.8085C25.4991 34.5316 26.0059 34.489 26.4531 34.6978L29.3793 36.0565C29.4474 36.0905 29.5284 36.0778 29.5837 36.0267ZM33.366 19.5516L33.9155 18.5975C34.482 17.6136 34.482 16.3869 33.9155 15.4073L33.366 14.4532C33.0295 13.8697 32.8506 13.2052 32.8506 12.528V11.4248C32.8506 10.2876 32.2373 9.227 31.2534 8.66051L30.295 8.1068C29.7115 7.77032 29.2217 7.28049 28.8852 6.69697L28.3358 5.74288C27.7693 4.75898 26.7087 4.14563 25.5715 4.14563H24.4683C23.7953 4.14563 23.1266 3.96674 22.5431 3.63026L21.589 3.0808C20.6051 2.51431 19.3827 2.51431 18.3988 3.0808L17.4447 3.63026C16.8611 3.96674 16.1924 4.14563 15.5195 4.14563H14.4163C13.2791 4.14563 12.2185 4.75898 11.652 5.74288L11.1025 6.69697C10.7661 7.28049 10.2762 7.77032 9.69271 8.1068L8.73862 8.65625C7.75472 9.22274 7.14137 10.2833 7.14137 11.4206V12.5237C7.14137 13.1967 6.96248 13.8654 6.626 14.4489L6.07654 15.403C5.51005 16.3869 5.51005 17.6093 6.07654 18.5933L6.626 19.5473C6.96248 20.1309 7.14137 20.7953 7.14137 21.4726V22.5757C7.14137 23.713 7.75472 24.7735 8.73862 25.34L9.69271 25.8895C10.2762 26.226 10.7661 26.7158 11.1025 27.2993L11.652 28.2534C12.2185 29.2373 13.2791 29.8506 14.4163 29.8506H15.5195C16.1924 29.8506 16.8611 30.0295 17.4447 30.366L18.3988 30.9155C19.3827 31.482 20.6051 31.482 21.589 30.9155L22.5431 30.366C23.1266 30.0295 23.7953 29.8506 24.4683 29.8506H25.5715C26.7087 29.8506 27.7693 29.2373 28.3358 28.2534L28.8895 27.3036C29.226 26.72 29.7158 26.2302 30.2993 25.8937L31.2534 25.3443C32.2373 24.7778 32.8506 23.7172 32.8506 22.58V21.4768C32.8506 20.8038 33.0295 20.1351 33.366 19.5516Z" fill="#38405B"/>
</svg>
