<svg width="25" height="24" viewBox="0 0 25 24" fill="none" xmlns="http://www.w3.org/2000/svg">
<path d="M14.231 8.16474L12.8395 6.75819C15.6335 6.90908 18.0748 8.93633 18.6329 11.8078C19.2915 15.1961 17.0787 18.4769 13.6903 19.1355C13.2907 19.2132 12.8925 19.2509 12.5 19.2515V19.25C9.04822 19.25 6.25 16.4518 6.25 13H4.75C4.75 13.5058 4.79845 14.0002 4.89095 14.4789C5.41109 17.1548 7.24925 19.2397 9.60158 20.1898C10.9428 20.7316 12.4508 20.9045 13.9765 20.6079C18.1781 19.7912 20.9221 15.7231 20.1054 11.5216C19.4249 8.02064 16.4869 5.53172 13.0954 5.27143L14.2528 4.12644L13.1979 3.06006L10.1014 6.12319L13.1646 9.21965L14.231 8.16474Z" fill="white"/>
</svg>
