<svg width="24" height="24" viewBox="0 0 24 24" fill="none" xmlns="http://www.w3.org/2000/svg">
<path fill-rule="evenodd" clip-rule="evenodd" d="M4.09992 11.2082C8.39488 9.33696 11.2589 8.10332 12.6919 7.50728C16.7834 5.80549 17.6335 5.50987 18.1877 5.5001C18.3095 5.49796 18.5821 5.52816 18.7586 5.67139C18.9076 5.79234 18.9486 5.95571 18.9683 6.07038C18.9879 6.18505 19.0123 6.44626 18.9929 6.65037C18.7712 8.98 17.8118 14.6334 17.3237 17.2426C17.1172 18.3467 16.7105 18.7169 16.3169 18.7531C15.4613 18.8318 14.8116 18.1877 13.9829 17.6445C12.6862 16.7945 11.9537 16.2654 10.695 15.4359C9.24043 14.4773 10.1834 13.9505 11.0124 13.0895C11.2293 12.8642 14.999 9.43537 15.0719 9.12432C15.0811 9.08542 15.0895 8.94041 15.0034 8.86384C14.9172 8.78727 14.7901 8.81346 14.6983 8.83428C14.5683 8.8638 12.4968 10.233 8.48389 12.9418C7.89591 13.3456 7.36333 13.5423 6.88616 13.532C6.36012 13.5206 5.34822 13.2345 4.59598 12.99C3.67333 12.6901 2.94002 12.5315 3.00388 12.0222C3.03714 11.7569 3.40248 11.4855 4.09992 11.2082Z" fill="white"/>
</svg>
