<svg width="18" height="15" viewBox="0 0 18 15" fill="none" xmlns="http://www.w3.org/2000/svg">
<path d="M6.81239 13.2936C6.84952 12.6869 6.88665 12.0802 6.92997 11.4735C6.9733 10.8856 7.00424 10.2976 7.07231 9.71597C7.09088 9.56586 7.17752 9.39699 7.28892 9.29692C9.47971 7.28922 11.6767 5.28778 13.8675 3.28634C13.9851 3.18001 14.0841 3.05492 14.1893 2.94234L14.1212 2.80474C13.9356 2.86103 13.7313 2.88605 13.5766 2.98612C11.1321 4.53098 8.68756 6.0821 6.24303 7.63322C6.01405 7.77707 5.75413 7.89591 5.55609 8.07729C5.14763 8.44631 4.74537 8.41503 4.25647 8.23991C3.32197 7.90216 2.35654 7.62697 1.40967 7.32675C1.08786 7.21417 0.679408 7.15788 0.667031 6.75133C0.654654 6.34479 1.05073 6.20094 1.36635 6.07585C3.04348 5.41287 4.73299 4.7624 6.41631 4.10568C9.50447 2.90481 12.5988 1.7102 15.687 0.509334C15.7303 0.49057 15.7736 0.471807 15.8169 0.459298C16.1387 0.334208 16.4667 0.24039 16.7576 0.49057C17.0608 0.75326 17.0794 1.12228 17.0051 1.48504C16.182 5.42538 15.359 9.36572 14.5297 13.3123C14.4987 13.4624 14.443 13.6125 14.375 13.7501C14.1955 14.1317 13.8984 14.2755 13.4962 14.1379C13.2981 14.0691 13.1063 13.9628 12.933 13.8377C11.8871 13.0684 10.8474 12.2928 9.80771 11.5173C9.67775 11.4172 9.5416 11.3234 9.38069 11.2108C8.75564 11.8175 8.14296 12.4179 7.5179 13.0058C7.34462 13.1685 7.12182 13.2623 6.9176 13.3874L6.81239 13.2873V13.2936Z" fill="#38405B"/>
</svg>
