<svg width="24" height="24" viewBox="0 0 24 24" fill="none" xmlns="http://www.w3.org/2000/svg">
<path d="M20.0995 9.56453L17.6653 11.9987L20.0995 14.433L22.5338 11.9987L20.0995 9.56453Z" fill="#6A6D8F"/>
<path d="M3.90199 9.56583L1.46777 12L3.90199 14.4343L6.3362 12L3.90199 9.56583Z" fill="#6A6D8F"/>
<path d="M12.0002 17.6663L7.96516 13.6313L5.53141 16.0651L12.0002 22.5338L18.4689 16.0651L16.0352 13.6313L12.0002 17.6663Z" fill="#6A6D8F"/>
<path d="M12.0002 6.33381L16.0352 10.3688L18.4689 7.93506L12.0002 1.46631L5.53141 7.93506L7.96516 10.3688L12.0002 6.33381Z" fill="#6A6D8F"/>
<path d="M11.9988 9.59634L9.59505 12.0001L11.9988 14.4038L14.4025 12.0001L11.9988 9.59634Z" fill="#6A6D8F"/>
</svg>
