<svg width="17" height="14" viewBox="0 0 17 14" fill="none" xmlns="http://www.w3.org/2000/svg">
<path d="M5.52001 13.0098C11.5617 13.0098 14.8653 8.00341 14.8653 3.66454C14.8653 3.5215 14.8653 3.37846 14.8584 3.24223C15.4987 2.77906 16.0573 2.20009 16.5 1.53938C15.9142 1.79821 15.2808 1.97531 14.6132 2.05705C15.2944 1.64836 15.812 1.00809 16.0573 0.238399C15.4238 0.613027 14.7222 0.885483 13.973 1.03533C13.3736 0.395062 12.5221 0 11.5754 0C9.76352 0 8.29225 1.47126 8.29225 3.2831C8.29225 3.54193 8.3195 3.79395 8.3808 4.03235C5.64943 3.89613 3.23137 2.58834 1.61026 0.599404C1.33099 1.08301 1.16752 1.64836 1.16752 2.24776C1.16752 3.38527 1.74649 4.39336 2.63197 4.97914C2.09387 4.96552 1.58983 4.81567 1.14708 4.57046C1.14708 4.58408 1.14708 4.5977 1.14708 4.61132C1.14708 6.20519 2.27778 7.52661 3.7831 7.83312C3.51064 7.90805 3.21775 7.94891 2.91805 7.94891C2.7069 7.94891 2.50255 7.92848 2.29821 7.88761C2.71371 9.1954 3.92614 10.1422 5.36335 10.1694C4.23946 11.0481 2.82269 11.5726 1.28331 11.5726C1.01767 11.5726 0.758834 11.559 0.5 11.5249C1.93721 12.4649 3.6673 13.0098 5.52001 13.0098Z" fill="white"/>
</svg>
