<svg width="17" height="14" viewBox="0 0 17 14" fill="none" xmlns="http://www.w3.org/2000/svg">
<path d="M0.502761 11.984C2.25901 12.1569 3.83024 11.6977 5.22613 10.6136V10.598C5.21232 10.5952 5.19989 10.5895 5.18747 10.5895C4.99003 10.5768 4.79397 10.5584 4.60205 10.5116C3.68113 10.2891 2.97835 9.76052 2.49649 8.92299C2.3957 8.74869 2.31562 8.56304 2.25072 8.37173C2.2452 8.35473 2.23968 8.33914 2.23554 8.32213C2.23554 8.3193 2.23692 8.31363 2.2383 8.3108C2.39846 8.32639 2.55862 8.34339 2.7174 8.35614C2.87618 8.3689 3.03496 8.35331 3.19374 8.3363C3.35252 8.31788 3.5113 8.29237 3.66456 8.23711C2.61799 7.97636 1.84894 7.36274 1.38503 6.36083C1.18897 5.93711 1.04538 5.18745 1.10751 4.96496C1.47201 5.1662 1.85723 5.29374 2.26729 5.34475C2.35704 5.35609 2.44678 5.36034 2.54067 5.36176C1.56038 4.61777 1.07299 3.63287 1.12822 2.38296C1.15031 1.87422 1.29804 1.39806 1.55209 0.945999C2.35428 1.94791 3.30696 2.74716 4.41842 3.34377C4.98174 3.64562 5.56992 3.88512 6.18157 4.06226C6.68138 4.2068 7.19086 4.30742 7.70724 4.36269C7.87154 4.37969 8.03585 4.39103 8.20844 4.4052C8.20429 4.36977 8.20153 4.34426 8.19739 4.32017C8.12973 3.98006 8.11317 3.63995 8.14768 3.29417C8.26366 2.15197 8.95953 1.14014 9.98953 0.645568C10.2657 0.513776 10.5542 0.424497 10.8552 0.374897C11.0872 0.336635 11.3205 0.323881 11.5525 0.340886C12.3671 0.400406 13.0685 0.722093 13.6456 1.31729C13.6926 1.36547 13.7326 1.37397 13.7961 1.36122C14.463 1.21667 15.0898 0.968673 15.6822 0.621477C15.6946 0.614392 15.7084 0.605889 15.7208 0.598803C15.725 0.597386 15.7291 0.595969 15.7332 0.595969C15.7332 0.746184 15.4378 1.32012 15.203 1.62055C14.9642 1.92665 14.6798 2.18173 14.3581 2.39572C14.6701 2.36879 14.9725 2.30502 15.2721 2.22283C15.5731 2.13922 15.8658 2.03293 16.1571 1.90539C16.1613 1.93373 16.1433 1.94791 16.1323 1.96349C15.8423 2.39572 15.5082 2.78968 15.1257 3.13829C14.9642 3.28567 14.7916 3.42172 14.6232 3.55918C14.5886 3.58752 14.579 3.61444 14.579 3.65838C14.5817 3.87661 14.5886 4.09343 14.5804 4.31167C14.5721 4.54266 14.5583 4.77224 14.5334 5.00181C14.4823 5.50064 14.3884 5.99096 14.26 6.4742C13.9314 7.70568 13.3957 8.83372 12.6419 9.85121C11.7651 11.0331 10.6785 11.9514 9.36408 12.5834C8.75519 12.8754 8.12145 13.0908 7.46424 13.2339C7.19914 13.292 6.93267 13.3388 6.66343 13.3728C6.45495 13.3983 6.24646 13.4139 6.0366 13.4295C5.86125 13.4422 5.68452 13.4521 5.50917 13.4521C5.2924 13.4521 5.07701 13.4436 4.86024 13.4309C4.65038 13.4181 4.44189 13.4011 4.23341 13.3742C3.93656 13.3373 3.64385 13.2821 3.35252 13.2126C2.4385 12.9972 1.57832 12.6472 0.769236 12.1611C0.686394 12.1115 0.606314 12.0591 0.524853 12.0081C0.517949 12.0038 0.513807 11.9982 0.5 11.9854L0.502761 11.984Z" fill="#38405B"/>
</svg>
