<svg width="24" height="24" viewBox="0 0 24 24" fill="none" xmlns="http://www.w3.org/2000/svg">
<path fill-rule="evenodd" clip-rule="evenodd" d="M8 6.75C6.20507 6.75 4.75 8.20507 4.75 10C4.75 11.1635 5.36594 12.5035 6.3532 13.8611C7.32647 15.1995 8.58928 16.4581 9.72177 17.4397L8.7393 18.5732C7.55541 17.547 6.20295 16.2049 5.14005 14.7433C4.09114 13.3009 3.25 11.6416 3.25 10C3.25 7.37665 5.37665 5.25 8 5.25C9.67947 5.25 11.1554 6.12162 12 7.43718C12.8446 6.12162 14.3205 5.25 16 5.25C18.6234 5.25 20.75 7.37665 20.75 10C20.75 11.3232 20.2037 12.6512 19.458 13.8557C18.7064 15.0698 17.711 16.2246 16.7178 17.2178C15.7224 18.2133 14.7117 19.0637 13.9138 19.6681C13.5155 19.9699 13.1632 20.2157 12.8868 20.3896C12.7499 20.4758 12.6212 20.5509 12.5088 20.6074C12.4533 20.6353 12.39 20.6645 12.3244 20.6885C12.2781 20.7054 12.153 20.75 12 20.75C11.8722 20.75 11.7686 20.7193 11.722 20.7044C11.6636 20.6858 11.6099 20.6633 11.5653 20.6429C11.4755 20.602 11.3786 20.5492 11.2812 20.4921C11.0842 20.3763 10.8389 20.2147 10.562 20.0179L11.431 18.7953C11.6642 18.961 11.8566 19.0878 12 19.1743C12.0269 19.1581 12.0561 19.1401 12.0878 19.1201C12.3173 18.9757 12.633 18.7566 13.008 18.4725C13.7571 17.905 14.7151 17.0992 15.6572 16.1572C16.6015 15.2129 17.5123 14.149 18.1826 13.0662C18.8588 11.9738 19.25 10.9268 19.25 10C19.25 8.20507 17.7949 6.75 16 6.75C14.2051 6.75 12.75 8.20507 12.75 10H11.25C11.25 8.20507 9.79493 6.75 8 6.75Z" fill="#38405B"/>
</svg>
