<svg width="24" height="24" viewBox="0 0 24 24" fill="none" xmlns="http://www.w3.org/2000/svg">
<path fill-rule="evenodd" clip-rule="evenodd" d="M3.25 11C3.25 7.27208 6.27208 4.25 10 4.25H14C17.7279 4.25 20.75 7.27208 20.75 11C20.75 12.9992 19.8799 14.7962 18.5002 16.0311C17.9371 16.5351 16.4021 17.6919 15.0485 18.695C14.363 19.2029 13.711 19.6809 13.2306 20.0318C12.9903 20.2073 12.7928 20.3511 12.6553 20.451L12.441 20.6067L12.4401 20.6073C12.2118 20.7727 11.9101 20.7961 11.659 20.668C11.408 20.5399 11.25 20.2818 11.25 20V17.75H10C8.77178 17.75 7.61805 17.4213 6.62446 16.8465L7.37554 15.5481C8.14699 15.9944 9.0425 16.25 10 16.25H12.75V18.5249C13.1632 18.2222 13.6503 17.8641 14.1554 17.4898C15.5364 16.4665 17.0014 15.3594 17.4998 14.9134C18.5751 13.951 19.25 12.5548 19.25 11C19.25 8.10051 16.8995 5.75 14 5.75H10C7.10051 5.75 4.75 8.10051 4.75 11C4.75 12.3451 5.25487 13.5705 6.08664 14.4998L4.96894 15.5002C3.90054 14.3065 3.25 12.7283 3.25 11Z" fill="#38405B"/>
</svg>
