<svg width="24" height="24" viewBox="0 0 24 24" fill="none" xmlns="http://www.w3.org/2000/svg">
<path fill-rule="evenodd" clip-rule="evenodd" d="M5.49908 4.93945L8.52941 7.96978L7.46875 9.03044L6.24908 7.81077V15.5001C6.24908 16.1905 6.80872 16.7501 7.49908 16.7501H13.4991V18.2501H7.49908C5.9803 18.2501 4.74908 17.0189 4.74908 15.5001V7.81077L3.52941 9.03044L2.46875 7.96978L5.49908 4.93945ZM16.4991 7.25011H10.4991V5.75011H16.4991C18.0179 5.75011 19.2491 6.98133 19.2491 8.50011V16.1895L20.4688 14.9698L21.5294 16.0304L18.4991 19.0608L15.4688 16.0304L16.5294 14.9698L17.7491 16.1895V8.50011C17.7491 7.80976 17.1894 7.25011 16.4991 7.25011Z" fill="#38405B"/>
</svg>
